<ttFont>
    <TTGlyph name=".notdef" xMin="68" yMin="0" xMax="612" yMax="1365">
      <contour>
        <pt x="68" y="0" on="1"/>
        <pt x="68" y="1365" on="1"/>
        <pt x="612" y="1365" on="1"/>
        <pt x="612" y="0" on="1"/>
      </contour>
      <contour>
        <pt x="136" y="68" on="1"/>
        <pt x="544" y="68" on="1"/>
        <pt x="544" y="1297" on="1"/>
        <pt x="136" y="1297" on="1"/>
      </contour>
    </TTGlyph>
    <TTGlyph name="A" xMin="0" yMin="-2" xMax="1453" yMax="1270">
      <contour>
        <pt x="538" y="561" on="1"/>
        <pt x="789" y="561" on="1"/>
        <pt x="662" y="933" on="1"/>
      </contour>
      <contour>
        <pt x="0" y="0" on="1"/>
        <pt x="19" y="138" on="1"/>
        <pt x="180" y="241" on="1"/>
        <pt x="568" y="1205" on="1"/>
        <pt x="915" y="1270" on="1"/>
        <pt x="1305" y="238" on="1"/>
        <pt x="1453" y="145" on="1"/>
        <pt x="1441" y="-2" on="1"/>
        <pt x="716" y="-2" on="1"/>
        <pt x="732" y="136" on="1"/>
        <pt x="898" y="240" on="1"/>
        <pt x="860" y="352" on="1"/>
        <pt x="468" y="352" on="1"/>
        <pt x="431" y="240" on="1"/>
        <pt x="620" y="148" on="1"/>
        <pt x="605" y="0" on="1"/>
      </contour>
    </TTGlyph>
    <TTGlyph name="AE" xMin="0" yMin="-2" xMax="1892" yMax="1244">
      <contour>
        <pt x="656" y="615" on="1"/>
        <pt x="942" y="615" on="1"/>
        <pt x="930" y="1008" on="1"/>
      </contour>
      <contour>
        <pt x="0" y="-2" on="1"/>
        <pt x="20" y="162" on="1"/>
        <pt x="154" y="237" on="1"/>
        <pt x="715" y="1020" on="1"/>
        <pt x="535" y="1094" on="1"/>
        <pt x="556" y="1244" on="1"/>
        <pt x="1807" y="1244" on="1"/>
        <pt x="1777" y="826" on="1"/>
        <pt x="1606" y="852" on="1"/>
        <pt x="1523" y="1072" on="1"/>
        <pt x="1275" y="1072" on="1"/>
        <pt x="1292" y="708" on="1"/>
        <pt x="1424" y="724" on="1"/>
        <pt x="1630" y="749" on="1"/>
        <pt x="1598" y="507" on="1"/>
        <pt x="1432" y="523" on="1"/>
        <pt x="1408" y="526" on="1"/>
        <pt x="1299" y="536" on="1"/>
        <pt x="1315" y="198" on="1"/>
        <pt x="1581" y="180" on="1"/>
        <pt x="1727" y="428" on="1"/>
        <pt x="1892" y="411" on="1"/>
        <pt x="1862" y="0" on="1"/>
        <pt x="791" y="0" on="1"/>
        <pt x="804" y="138" on="1"/>
        <pt x="967" y="217" on="1"/>
        <pt x="954" y="443" on="1"/>
        <pt x="552" y="443" on="1"/>
        <pt x="420" y="243" on="1"/>
        <pt x="601" y="150" on="1"/>
        <pt x="584" y="-2" on="1"/>
      </contour>
    </TTGlyph>
    <TTGlyph name="Aacute" xMin="0" yMin="-2" xMax="1453" yMax="1728">
      <contour>
        <pt x="538" y="561" on="1"/>
        <pt x="789" y="561" on="1"/>
        <pt x="662" y="933" on="1"/>
      </contour>
      <contour>
        <pt x="0" y="0" on="1"/>
        <pt x="19" y="138" on="1"/>
        <pt x="180" y="241" on="1"/>
        <pt x="568" y="1205" on="1"/>
        <pt x="915" y="1270" on="1"/>
        <pt x="1305" y="238" on="1"/>
        <pt x="1453" y="145" on="1"/>
        <pt x="1441" y="-2" on="1"/>
        <pt x="716" y="-2" on="1"/>
        <pt x="732" y="136" on="1"/>
        <pt x="898" y="240" on="1"/>
        <pt x="860" y="352" on="1"/>
        <pt x="468" y="352" on="1"/>
        <pt x="431" y="240" on="1"/>
        <pt x="620" y="148" on="1"/>
        <pt x="605" y="0" on="1"/>
      </contour>
      <contour>
        <pt x="657" y="1403" on="1"/>
        <pt x="812" y="1728" on="1"/>
        <pt x="1032" y="1714" on="1"/>
        <pt x="801" y="1382" on="1"/>
      </contour>
    </TTGlyph>
    <TTGlyph name="Abreve" xMin="0" yMin="-2" xMax="1453" yMax="1636">
      <contour>
        <pt x="538" y="561" on="1"/>
        <pt x="789" y="561" on="1"/>
        <pt x="662" y="933" on="1"/>
      </contour>
      <contour>
        <pt x="0" y="0" on="1"/>
        <pt x="19" y="138" on="1"/>
        <pt x="180" y="241" on="1"/>
        <pt x="568" y="1205" on="1"/>
        <pt x="915" y="1270" on="1"/>
        <pt x="1305" y="238" on="1"/>
        <pt x="1453" y="145" on="1"/>
        <pt x="1441" y="-2" on="1"/>
        <pt x="716" y="-2" on="1"/>
        <pt x="732" y="136" on="1"/>
        <pt x="898" y="240" on="1"/>
        <pt x="860" y="352" on="1"/>
        <pt x="468" y="352" on="1"/>
        <pt x="431" y="240" on="1"/>
        <pt x="620" y="148" on="1"/>
        <pt x="605" y="0" on="1"/>
      </contour>
      <contour>
        <pt x="498" y="1600" on="1"/>
        <pt x="677" y="1636" on="1"/>
        <pt x="682" y="1610" on="0"/>
        <pt x="720" y="1569" on="0"/>
        <pt x="782" y="1569" on="0"/>
        <pt x="817" y="1592" on="0"/>
        <pt x="830" y="1615" on="0"/>
        <pt x="839" y="1636" on="1"/>
        <pt x="1012" y="1595" on="1"/>
        <pt x="995" y="1505" on="0"/>
        <pt x="858" y="1392" on="0"/>
        <pt x="757" y="1392" on="1"/>
        <pt x="550" y="1392" on="0"/>
      </contour>
    </TTGlyph>
    <TTGlyph name="Acircumflex" xMin="0" yMin="-2" xMax="1453" yMax="1617">
      <contour>
        <pt x="538" y="561" on="1"/>
        <pt x="789" y="561" on="1"/>
        <pt x="662" y="933" on="1"/>
      </contour>
      <contour>
        <pt x="0" y="0" on="1"/>
        <pt x="19" y="138" on="1"/>
        <pt x="180" y="241" on="1"/>
        <pt x="568" y="1205" on="1"/>
        <pt x="915" y="1270" on="1"/>
        <pt x="1305" y="238" on="1"/>
        <pt x="1453" y="145" on="1"/>
        <pt x="1441" y="-2" on="1"/>
        <pt x="716" y="-2" on="1"/>
        <pt x="732" y="136" on="1"/>
        <pt x="898" y="240" on="1"/>
        <pt x="860" y="352" on="1"/>
        <pt x="468" y="352" on="1"/>
        <pt x="431" y="240" on="1"/>
        <pt x="620" y="148" on="1"/>
        <pt x="605" y="0" on="1"/>
      </contour>
      <contour>
        <pt x="474" y="1402" on="1"/>
        <pt x="645" y="1597" on="1"/>
        <pt x="822" y="1617" on="1"/>
        <pt x="1026" y="1412" on="1"/>
        <pt x="875" y="1353" on="1"/>
        <pt x="736" y="1454" on="1"/>
        <pt x="722" y="1454" on="1"/>
        <pt x="619" y="1352" on="1"/>
      </contour>
    </TTGlyph>
    <TTGlyph name="Adieresis" xMin="0" yMin="-2" xMax="1453" yMax="1616">
      <contour>
        <pt x="538" y="561" on="1"/>
        <pt x="789" y="561" on="1"/>
        <pt x="662" y="933" on="1"/>
      </contour>
      <contour>
        <pt x="0" y="0" on="1"/>
        <pt x="19" y="138" on="1"/>
        <pt x="180" y="241" on="1"/>
        <pt x="568" y="1205" on="1"/>
        <pt x="915" y="1270" on="1"/>
        <pt x="1305" y="238" on="1"/>
        <pt x="1453" y="145" on="1"/>
        <pt x="1441" y="-2" on="1"/>
        <pt x="716" y="-2" on="1"/>
        <pt x="732" y="136" on="1"/>
        <pt x="898" y="240" on="1"/>
        <pt x="860" y="352" on="1"/>
        <pt x="468" y="352" on="1"/>
        <pt x="431" y="240" on="1"/>
        <pt x="620" y="148" on="1"/>
        <pt x="605" y="0" on="1"/>
      </contour>
      <contour>
        <pt x="453" y="1509" on="1"/>
        <pt x="453" y="1551" on="0"/>
        <pt x="518" y="1616" on="0"/>
        <pt x="668" y="1616" on="0"/>
        <pt x="735" y="1553" on="0"/>
        <pt x="735" y="1511" on="1"/>
        <pt x="735" y="1402" on="0"/>
        <pt x="453" y="1402" on="0"/>
      </contour>
      <contour>
        <pt x="762" y="1509" on="1"/>
        <pt x="762" y="1551" on="0"/>
        <pt x="827" y="1616" on="0"/>
        <pt x="977" y="1616" on="0"/>
        <pt x="1044" y="1553" on="0"/>
        <pt x="1044" y="1511" on="1"/>
        <pt x="1044" y="1402" on="0"/>
        <pt x="762" y="1402" on="0"/>
      </contour>
    </TTGlyph>
    <TTGlyph name="Agrave" xMin="0" yMin="-2" xMax="1453" yMax="1771">
      <contour>
        <pt x="538" y="561" on="1"/>
        <pt x="789" y="561" on="1"/>
        <pt x="662" y="933" on="1"/>
      </contour>
      <contour>
        <pt x="0" y="0" on="1"/>
        <pt x="19" y="138" on="1"/>
        <pt x="180" y="241" on="1"/>
        <pt x="568" y="1205" on="1"/>
        <pt x="915" y="1270" on="1"/>
        <pt x="1305" y="238" on="1"/>
        <pt x="1453" y="145" on="1"/>
        <pt x="1441" y="-2" on="1"/>
        <pt x="716" y="-2" on="1"/>
        <pt x="732" y="136" on="1"/>
        <pt x="898" y="240" on="1"/>
        <pt x="860" y="352" on="1"/>
        <pt x="468" y="352" on="1"/>
        <pt x="431" y="240" on="1"/>
        <pt x="620" y="148" on="1"/>
        <pt x="605" y="0" on="1"/>
      </contour>
      <contour>
        <pt x="456" y="1731" on="1"/>
        <pt x="674" y="1771" on="1"/>
        <pt x="824" y="1423" on="1"/>
        <pt x="665" y="1392" on="1"/>
      </contour>
    </TTGlyph>
    <TTGlyph name="Amacron" xMin="0" yMin="-2" xMax="1453" yMax="1587">
      <contour>
        <pt x="538" y="561" on="1"/>
        <pt x="789" y="561" on="1"/>
        <pt x="662" y="933" on="1"/>
      </contour>
      <contour>
        <pt x="0" y="0" on="1"/>
        <pt x="19" y="138" on="1"/>
        <pt x="180" y="241" on="1"/>
        <pt x="568" y="1205" on="1"/>
        <pt x="915" y="1270" on="1"/>
        <pt x="1305" y="238" on="1"/>
        <pt x="1453" y="145" on="1"/>
        <pt x="1441" y="-2" on="1"/>
        <pt x="716" y="-2" on="1"/>
        <pt x="732" y="136" on="1"/>
        <pt x="898" y="240" on="1"/>
        <pt x="860" y="352" on="1"/>
        <pt x="468" y="352" on="1"/>
        <pt x="431" y="240" on="1"/>
        <pt x="620" y="148" on="1"/>
        <pt x="605" y="0" on="1"/>
      </contour>
      <contour>
        <pt x="518" y="1392" on="1"/>
        <pt x="539" y="1587" on="1"/>
        <pt x="992" y="1587" on="1"/>
        <pt x="970" y="1392" on="1"/>
      </contour>
    </TTGlyph>
    <TTGlyph name="Aogonek" xMin="0" yMin="-387" xMax="1494" yMax="1270">
      <contour>
        <pt x="538" y="561" on="1"/>
        <pt x="789" y="561" on="1"/>
        <pt x="662" y="933" on="1"/>
      </contour>
      <contour>
        <pt x="1424" y="-2" on="1"/>
        <pt x="1360" y="-176" on="0"/>
        <pt x="1494" y="-292" on="1"/>
        <pt x="1470" y="-387" on="1"/>
        <pt x="1339" y="-379" on="0"/>
        <pt x="1154" y="-280" on="0"/>
        <pt x="1154" y="-136" on="0"/>
        <pt x="1216" y="-51" on="0"/>
        <pt x="1290" y="-2" on="1"/>
        <pt x="716" y="-2" on="1"/>
        <pt x="732" y="136" on="1"/>
        <pt x="898" y="240" on="1"/>
        <pt x="860" y="352" on="1"/>
        <pt x="468" y="352" on="1"/>
        <pt x="431" y="240" on="1"/>
        <pt x="620" y="148" on="1"/>
        <pt x="605" y="0" on="1"/>
        <pt x="0" y="0" on="1"/>
        <pt x="19" y="138" on="1"/>
        <pt x="180" y="241" on="1"/>
        <pt x="568" y="1205" on="1"/>
        <pt x="915" y="1270" on="1"/>
        <pt x="1305" y="238" on="1"/>
        <pt x="1453" y="145" on="1"/>
        <pt x="1441" y="-2" on="1"/>
      </contour>
    </TTGlyph>
    <TTGlyph name="Aring" xMin="0" yMin="-2" xMax="1453" yMax="1719">
      <contour>
        <pt x="538" y="561" on="1"/>
        <pt x="789" y="561" on="1"/>
        <pt x="662" y="933" on="1"/>
      </contour>
      <contour>
        <pt x="0" y="0" on="1"/>
        <pt x="19" y="138" on="1"/>
        <pt x="180" y="241" on="1"/>
        <pt x="568" y="1205" on="1"/>
        <pt x="915" y="1270" on="1"/>
        <pt x="1305" y="238" on="1"/>
        <pt x="1453" y="145" on="1"/>
        <pt x="1441" y="-2" on="1"/>
        <pt x="716" y="-2" on="1"/>
        <pt x="732" y="136" on="1"/>
        <pt x="898" y="240" on="1"/>
        <pt x="860" y="352" on="1"/>
        <pt x="468" y="352" on="1"/>
        <pt x="431" y="240" on="1"/>
        <pt x="620" y="148" on="1"/>
        <pt x="605" y="0" on="1"/>
      </contour>
      <contour>
        <pt x="661" y="1547" on="1"/>
        <pt x="661" y="1490" on="0"/>
        <pt x="738" y="1490" on="1"/>
        <pt x="769" y="1490" on="0"/>
        <pt x="816" y="1520" on="0"/>
        <pt x="816" y="1574" on="0"/>
        <pt x="765" y="1606" on="0"/>
        <pt x="705" y="1606" on="0"/>
        <pt x="661" y="1572" on="0"/>
      </contour>
      <contour>
        <pt x="730" y="1380" on="1"/>
        <pt x="470" y="1380" on="0"/>
        <pt x="470" y="1546" on="1"/>
        <pt x="470" y="1622" on="0"/>
        <pt x="606" y="1719" on="0"/>
        <pt x="744" y="1719" on="1"/>
        <pt x="1019" y="1719" on="0"/>
        <pt x="1019" y="1555" on="1"/>
        <pt x="1019" y="1481" on="0"/>
        <pt x="876" y="1380" on="0"/>
      </contour>
    </TTGlyph>
    <TTGlyph name="Atilde" xMin="0" yMin="-2" xMax="1453" yMax="1648">
      <contour>
        <pt x="538" y="561" on="1"/>
        <pt x="789" y="561" on="1"/>
        <pt x="662" y="933" on="1"/>
      </contour>
      <contour>
        <pt x="0" y="0" on="1"/>
        <pt x="19" y="138" on="1"/>
        <pt x="180" y="241" on="1"/>
        <pt x="568" y="1205" on="1"/>
        <pt x="915" y="1270" on="1"/>
        <pt x="1305" y="238" on="1"/>
        <pt x="1453" y="145" on="1"/>
        <pt x="1441" y="-2" on="1"/>
        <pt x="716" y="-2" on="1"/>
        <pt x="732" y="136" on="1"/>
        <pt x="898" y="240" on="1"/>
        <pt x="860" y="352" on="1"/>
        <pt x="468" y="352" on="1"/>
        <pt x="431" y="240" on="1"/>
        <pt x="620" y="148" on="1"/>
        <pt x="605" y="0" on="1"/>
      </contour>
      <contour>
        <pt x="439" y="1398" on="1"/>
        <pt x="426" y="1497" on="0"/>
        <pt x="476" y="1580" on="1"/>
        <pt x="500" y="1621" on="0"/>
        <pt x="597" y="1658" on="0"/>
        <pt x="662" y="1644" on="1"/>
        <pt x="889" y="1595" on="1"/>
        <pt x="909" y="1591" on="0"/>
        <pt x="944" y="1617" on="0"/>
        <pt x="959" y="1648" on="1"/>
        <pt x="1074" y="1637" on="1"/>
        <pt x="1073" y="1509" on="0"/>
        <pt x="944" y="1378" on="0"/>
        <pt x="826" y="1406" on="1"/>
        <pt x="617" y="1455" on="1"/>
        <pt x="593" y="1461" on="0"/>
        <pt x="563" y="1429" on="0"/>
        <pt x="557" y="1392" on="1"/>
      </contour>
    </TTGlyph>
    <TTGlyph name="B" xMin="0" yMin="0" xMax="1228" yMax="1257">
      <contour>
        <pt x="552" y="728" on="1"/>
        <pt x="726" y="728" on="1"/>
        <pt x="788" y="802" on="0"/>
        <pt x="788" y="892" on="1"/>
        <pt x="788" y="1080" on="0"/>
        <pt x="604" y="1080" on="1"/>
        <pt x="584" y="1080" on="0"/>
        <pt x="552" y="1075" on="1"/>
      </contour>
      <contour>
        <pt x="552" y="186" on="1"/>
        <pt x="664" y="186" on="1"/>
        <pt x="745" y="186" on="0"/>
        <pt x="853" y="271" on="0"/>
        <pt x="853" y="442" on="0"/>
        <pt x="731" y="561" on="0"/>
        <pt x="631" y="561" on="1"/>
        <pt x="552" y="561" on="1"/>
      </contour>
      <contour>
        <pt x="0" y="0" on="1"/>
        <pt x="14" y="138" on="1"/>
        <pt x="180" y="217" on="1"/>
        <pt x="180" y="1008" on="1"/>
        <pt x="11" y="1052" on="1"/>
        <pt x="21" y="1211" on="1"/>
        <pt x="367" y="1257" on="0"/>
        <pt x="754" y="1257" on="0"/>
        <pt x="970" y="1205" on="0"/>
        <pt x="1030" y="1160" on="1"/>
        <pt x="1146" y="1073" on="0"/>
        <pt x="1146" y="951" on="1"/>
        <pt x="1146" y="869" on="0"/>
        <pt x="1025" y="711" on="0"/>
        <pt x="943" y="684" on="1"/>
        <pt x="943" y="674" on="1"/>
        <pt x="1089" y="666" on="0"/>
        <pt x="1162" y="571" on="1"/>
        <pt x="1228" y="485" on="0"/>
        <pt x="1228" y="379" on="1"/>
        <pt x="1228" y="199" on="0"/>
        <pt x="924" y="0" on="0"/>
        <pt x="644" y="0" on="1"/>
      </contour>
    </TTGlyph>
    <TTGlyph name="C" xMin="0" yMin="-29" xMax="1194" yMax="1272">
      <contour>
        <pt x="0" y="583" on="1"/>
        <pt x="0" y="788" on="0"/>
        <pt x="96" y="952" on="1"/>
        <pt x="151" y="1046" on="0"/>
        <pt x="318" y="1184" on="0"/>
        <pt x="592" y="1272" on="0"/>
        <pt x="871" y="1272" on="0"/>
        <pt x="1107" y="1216" on="0"/>
        <pt x="1162" y="1172" on="1"/>
        <pt x="1131" y="748" on="1"/>
        <pt x="961" y="771" on="1"/>
        <pt x="897" y="1003" on="1"/>
        <pt x="864" y="1044" on="0"/>
        <pt x="757" y="1090" on="0"/>
        <pt x="703" y="1090" on="1"/>
        <pt x="540" y="1090" on="0"/>
        <pt x="392" y="903" on="0"/>
        <pt x="392" y="706" on="1"/>
        <pt x="392" y="205" on="0"/>
        <pt x="809" y="205" on="1"/>
        <pt x="990" y="205" on="0"/>
        <pt x="1135" y="313" on="1"/>
        <pt x="1194" y="178" on="1"/>
        <pt x="1120" y="86" on="0"/>
        <pt x="859" y="-29" on="0"/>
        <pt x="680" y="-29" on="1"/>
        <pt x="338" y="-29" on="0"/>
        <pt x="0" y="291" on="0"/>
      </contour>
    </TTGlyph>
    <TTGlyph name="Cacute" xMin="0" yMin="-29" xMax="1194" yMax="1730">
      <contour>
        <pt x="0" y="583" on="1"/>
        <pt x="0" y="788" on="0"/>
        <pt x="96" y="952" on="1"/>
        <pt x="151" y="1046" on="0"/>
        <pt x="318" y="1184" on="0"/>
        <pt x="592" y="1272" on="0"/>
        <pt x="871" y="1272" on="0"/>
        <pt x="1107" y="1216" on="0"/>
        <pt x="1162" y="1172" on="1"/>
        <pt x="1131" y="748" on="1"/>
        <pt x="961" y="771" on="1"/>
        <pt x="897" y="1003" on="1"/>
        <pt x="864" y="1044" on="0"/>
        <pt x="757" y="1090" on="0"/>
        <pt x="703" y="1090" on="1"/>
        <pt x="540" y="1090" on="0"/>
        <pt x="392" y="903" on="0"/>
        <pt x="392" y="706" on="1"/>
        <pt x="392" y="205" on="0"/>
        <pt x="809" y="205" on="1"/>
        <pt x="990" y="205" on="0"/>
        <pt x="1135" y="313" on="1"/>
        <pt x="1194" y="178" on="1"/>
        <pt x="1120" y="86" on="0"/>
        <pt x="859" y="-29" on="0"/>
        <pt x="680" y="-29" on="1"/>
        <pt x="338" y="-29" on="0"/>
        <pt x="0" y="291" on="0"/>
      </contour>
      <contour>
        <pt x="655" y="1405" on="1"/>
        <pt x="810" y="1730" on="1"/>
        <pt x="1030" y="1716" on="1"/>
        <pt x="799" y="1384" on="1"/>
      </contour>
    </TTGlyph>
    <TTGlyph name="Ccaron" xMin="0" yMin="-29" xMax="1194" yMax="1637">
      <contour>
        <pt x="0" y="583" on="1"/>
        <pt x="0" y="788" on="0"/>
        <pt x="96" y="952" on="1"/>
        <pt x="151" y="1046" on="0"/>
        <pt x="318" y="1184" on="0"/>
        <pt x="592" y="1272" on="0"/>
        <pt x="871" y="1272" on="0"/>
        <pt x="1107" y="1216" on="0"/>
        <pt x="1162" y="1172" on="1"/>
        <pt x="1131" y="748" on="1"/>
        <pt x="961" y="771" on="1"/>
        <pt x="897" y="1003" on="1"/>
        <pt x="864" y="1044" on="0"/>
        <pt x="757" y="1090" on="0"/>
        <pt x="703" y="1090" on="1"/>
        <pt x="540" y="1090" on="0"/>
        <pt x="392" y="903" on="0"/>
        <pt x="392" y="706" on="1"/>
        <pt x="392" y="205" on="0"/>
        <pt x="809" y="205" on="1"/>
        <pt x="990" y="205" on="0"/>
        <pt x="1135" y="313" on="1"/>
        <pt x="1194" y="178" on="1"/>
        <pt x="1120" y="86" on="0"/>
        <pt x="859" y="-29" on="0"/>
        <pt x="680" y="-29" on="1"/>
        <pt x="338" y="-29" on="0"/>
        <pt x="0" y="291" on="0"/>
      </contour>
      <contour>
        <pt x="394" y="1600" on="1"/>
        <pt x="579" y="1637" on="1"/>
        <pt x="692" y="1552" on="1"/>
        <pt x="702" y="1552" on="1"/>
        <pt x="798" y="1634" on="1"/>
        <pt x="970" y="1605" on="1"/>
        <pt x="760" y="1404" on="1"/>
        <pt x="602" y="1394" on="1"/>
      </contour>
    </TTGlyph>
    <TTGlyph name="Ccedilla" xMin="0" yMin="-407" xMax="1194" yMax="1272">
      <contour>
        <pt x="712" y="-28" on="1"/>
        <pt x="680" y="-29" on="1"/>
        <pt x="338" y="-29" on="0"/>
        <pt x="0" y="291" on="0"/>
        <pt x="0" y="583" on="1"/>
        <pt x="0" y="788" on="0"/>
        <pt x="96" y="952" on="1"/>
        <pt x="151" y="1046" on="0"/>
        <pt x="318" y="1184" on="0"/>
        <pt x="592" y="1272" on="0"/>
        <pt x="871" y="1272" on="0"/>
        <pt x="1107" y="1216" on="0"/>
        <pt x="1162" y="1172" on="1"/>
        <pt x="1131" y="748" on="1"/>
        <pt x="961" y="771" on="1"/>
        <pt x="897" y="1003" on="1"/>
        <pt x="864" y="1044" on="0"/>
        <pt x="757" y="1090" on="0"/>
        <pt x="703" y="1090" on="1"/>
        <pt x="540" y="1090" on="0"/>
        <pt x="392" y="903" on="0"/>
        <pt x="392" y="706" on="1"/>
        <pt x="392" y="205" on="0"/>
        <pt x="809" y="205" on="1"/>
        <pt x="990" y="205" on="0"/>
        <pt x="1135" y="313" on="1"/>
        <pt x="1194" y="178" on="1"/>
        <pt x="1072" y="26" on="0"/>
        <pt x="836" y="-16" on="1"/>
        <pt x="902" y="-16" on="1"/>
        <pt x="784" y="-102" on="1"/>
        <pt x="959" y="-117" on="0"/>
        <pt x="959" y="-245" on="1"/>
        <pt x="959" y="-329" on="0"/>
        <pt x="793" y="-407" on="0"/>
        <pt x="595" y="-407" on="1"/>
        <pt x="559" y="-319" on="1"/>
        <pt x="617" y="-318" on="0"/>
        <pt x="696" y="-279" on="0"/>
        <pt x="696" y="-255" on="1"/>
        <pt x="696" y="-216" on="0"/>
        <pt x="540" y="-163" on="1"/>
      </contour>
    </TTGlyph>
    <TTGlyph name="Cdotaccent" xMin="0" yMin="-29" xMax="1194" yMax="1700">
      <contour>
        <pt x="0" y="583" on="1"/>
        <pt x="0" y="788" on="0"/>
        <pt x="96" y="952" on="1"/>
        <pt x="151" y="1046" on="0"/>
        <pt x="318" y="1184" on="0"/>
        <pt x="592" y="1272" on="0"/>
        <pt x="871" y="1272" on="0"/>
        <pt x="1107" y="1216" on="0"/>
        <pt x="1162" y="1172" on="1"/>
        <pt x="1131" y="748" on="1"/>
        <pt x="961" y="771" on="1"/>
        <pt x="897" y="1003" on="1"/>
        <pt x="864" y="1044" on="0"/>
        <pt x="757" y="1090" on="0"/>
        <pt x="703" y="1090" on="1"/>
        <pt x="540" y="1090" on="0"/>
        <pt x="392" y="903" on="0"/>
        <pt x="392" y="706" on="1"/>
        <pt x="392" y="205" on="0"/>
        <pt x="809" y="205" on="1"/>
        <pt x="990" y="205" on="0"/>
        <pt x="1135" y="313" on="1"/>
        <pt x="1194" y="178" on="1"/>
        <pt x="1120" y="86" on="0"/>
        <pt x="859" y="-29" on="0"/>
        <pt x="680" y="-29" on="1"/>
        <pt x="338" y="-29" on="0"/>
        <pt x="0" y="291" on="0"/>
      </contour>
      <contour>
        <pt x="480" y="1547" on="1"/>
        <pt x="480" y="1607" on="0"/>
        <pt x="578" y="1700" on="0"/>
        <pt x="805" y="1700" on="0"/>
        <pt x="907" y="1609" on="0"/>
        <pt x="907" y="1550" on="1"/>
        <pt x="907" y="1394" on="0"/>
        <pt x="480" y="1394" on="0"/>
      </contour>
    </TTGlyph>
    <TTGlyph name="D" xMin="0" yMin="0" xMax="1451" yMax="1258">
      <contour>
        <pt x="573" y="202" on="1"/>
        <pt x="648" y="202" on="1"/>
        <pt x="964" y="202" on="0"/>
        <pt x="1030" y="459" on="1"/>
        <pt x="1046" y="523" on="0"/>
        <pt x="1046" y="659" on="0"/>
        <pt x="1015" y="782" on="0"/>
        <pt x="945" y="905" on="0"/>
        <pt x="894" y="952" on="1"/>
        <pt x="780" y="1057" on="0"/>
        <pt x="591" y="1057" on="1"/>
        <pt x="578" y="1056" on="1"/>
        <pt x="578" y="1055" on="0"/>
        <pt x="592" y="1052" on="0"/>
        <pt x="576" y="1051" on="0"/>
        <pt x="573" y="1051" on="1"/>
      </contour>
      <contour>
        <pt x="0" y="0" on="1"/>
        <pt x="23" y="138" on="1"/>
        <pt x="203" y="241" on="1"/>
        <pt x="203" y="1003" on="1"/>
        <pt x="30" y="1049" on="1"/>
        <pt x="37" y="1206" on="1"/>
        <pt x="363" y="1258" on="0"/>
        <pt x="770" y="1258" on="0"/>
        <pt x="1002" y="1223" on="0"/>
        <pt x="1170" y="1161" on="0"/>
        <pt x="1299" y="1071" on="0"/>
        <pt x="1380" y="969" on="0"/>
        <pt x="1406" y="906" on="1"/>
        <pt x="1451" y="795" on="0"/>
        <pt x="1451" y="524" on="0"/>
        <pt x="1332" y="288" on="0"/>
        <pt x="1121" y="108" on="0"/>
        <pt x="804" y="0" on="0"/>
        <pt x="618" y="0" on="1"/>
      </contour>
    </TTGlyph>
    <TTGlyph name="Dcaron" xMin="0" yMin="0" xMax="1451" yMax="1634">
      <contour>
        <pt x="573" y="202" on="1"/>
        <pt x="648" y="202" on="1"/>
        <pt x="964" y="202" on="0"/>
        <pt x="1030" y="459" on="1"/>
        <pt x="1046" y="523" on="0"/>
        <pt x="1046" y="659" on="0"/>
        <pt x="1015" y="782" on="0"/>
        <pt x="945" y="905" on="0"/>
        <pt x="894" y="952" on="1"/>
        <pt x="780" y="1057" on="0"/>
        <pt x="591" y="1057" on="1"/>
        <pt x="578" y="1056" on="1"/>
        <pt x="578" y="1055" on="0"/>
        <pt x="592" y="1052" on="0"/>
        <pt x="576" y="1051" on="0"/>
        <pt x="573" y="1051" on="1"/>
      </contour>
      <contour>
        <pt x="0" y="0" on="1"/>
        <pt x="23" y="138" on="1"/>
        <pt x="203" y="241" on="1"/>
        <pt x="203" y="1003" on="1"/>
        <pt x="30" y="1049" on="1"/>
        <pt x="37" y="1206" on="1"/>
        <pt x="363" y="1258" on="0"/>
        <pt x="770" y="1258" on="0"/>
        <pt x="1002" y="1223" on="0"/>
        <pt x="1170" y="1161" on="0"/>
        <pt x="1299" y="1071" on="0"/>
        <pt x="1380" y="969" on="0"/>
        <pt x="1406" y="906" on="1"/>
        <pt x="1451" y="795" on="0"/>
        <pt x="1451" y="524" on="0"/>
        <pt x="1332" y="288" on="0"/>
        <pt x="1121" y="108" on="0"/>
        <pt x="804" y="0" on="0"/>
        <pt x="618" y="0" on="1"/>
      </contour>
      <contour>
        <pt x="446" y="1597" on="1"/>
        <pt x="632" y="1634" on="1"/>
        <pt x="744" y="1549" on="1"/>
        <pt x="754" y="1549" on="1"/>
        <pt x="850" y="1631" on="1"/>
        <pt x="1022" y="1602" on="1"/>
        <pt x="812" y="1401" on="1"/>
        <pt x="654" y="1391" on="1"/>
      </contour>
    </TTGlyph>
    <TTGlyph name="Dcroat" xMin="0" yMin="0" xMax="1451" yMax="1258">
      <contour>
        <pt x="573" y="202" on="1"/>
        <pt x="648" y="202" on="1"/>
        <pt x="964" y="202" on="0"/>
        <pt x="1030" y="459" on="1"/>
        <pt x="1046" y="523" on="0"/>
        <pt x="1046" y="659" on="0"/>
        <pt x="1015" y="782" on="0"/>
        <pt x="945" y="905" on="0"/>
        <pt x="894" y="952" on="1"/>
        <pt x="780" y="1057" on="0"/>
        <pt x="591" y="1057" on="1"/>
        <pt x="578" y="1056" on="1"/>
        <pt x="578" y="1055" on="0"/>
        <pt x="592" y="1052" on="0"/>
        <pt x="576" y="1051" on="0"/>
        <pt x="573" y="1051" on="1"/>
        <pt x="573" y="712" on="1"/>
        <pt x="771" y="737" on="1"/>
        <pt x="752" y="548" on="1"/>
        <pt x="573" y="536" on="1"/>
      </contour>
      <contour>
        <pt x="23" y="483" on="1"/>
        <pt x="38" y="666" on="1"/>
        <pt x="203" y="680" on="1"/>
        <pt x="203" y="1003" on="1"/>
        <pt x="30" y="1049" on="1"/>
        <pt x="37" y="1206" on="1"/>
        <pt x="363" y="1258" on="0"/>
        <pt x="770" y="1258" on="0"/>
        <pt x="1002" y="1223" on="0"/>
        <pt x="1170" y="1161" on="0"/>
        <pt x="1299" y="1071" on="0"/>
        <pt x="1380" y="969" on="0"/>
        <pt x="1406" y="906" on="1"/>
        <pt x="1451" y="795" on="0"/>
        <pt x="1451" y="524" on="0"/>
        <pt x="1332" y="288" on="0"/>
        <pt x="1121" y="108" on="0"/>
        <pt x="804" y="0" on="0"/>
        <pt x="618" y="0" on="1"/>
        <pt x="0" y="0" on="1"/>
        <pt x="23" y="138" on="1"/>
        <pt x="203" y="241" on="1"/>
        <pt x="203" y="499" on="1"/>
      </contour>
    </TTGlyph>
    <TTGlyph name="E" xMin="0" yMin="0" xMax="1237" yMax="1244">
      <contour>
        <pt x="0" y="1100" on="1"/>
        <pt x="19" y="1244" on="1"/>
        <pt x="1192" y="1244" on="1"/>
        <pt x="1162" y="826" on="1"/>
        <pt x="991" y="852" on="1"/>
        <pt x="908" y="1072" on="1"/>
        <pt x="563" y="1072" on="1"/>
        <pt x="563" y="712" on="1"/>
        <pt x="696" y="723" on="1"/>
        <pt x="982" y="746" on="1"/>
        <pt x="949" y="470" on="1"/>
        <pt x="563" y="540" on="1"/>
        <pt x="563" y="210" on="1"/>
        <pt x="926" y="170" on="1"/>
        <pt x="1072" y="428" on="1"/>
        <pt x="1237" y="411" on="1"/>
        <pt x="1207" y="0" on="1"/>
        <pt x="16" y="0" on="1"/>
        <pt x="26" y="138" on="1"/>
        <pt x="190" y="217" on="1"/>
        <pt x="190" y="1030" on="1"/>
      </contour>
    </TTGlyph>
    <TTGlyph name="Eacute" xMin="0" yMin="0" xMax="1237" yMax="1727">
      <contour>
        <pt x="0" y="1100" on="1"/>
        <pt x="19" y="1244" on="1"/>
        <pt x="1192" y="1244" on="1"/>
        <pt x="1162" y="826" on="1"/>
        <pt x="991" y="852" on="1"/>
        <pt x="908" y="1072" on="1"/>
        <pt x="563" y="1072" on="1"/>
        <pt x="563" y="712" on="1"/>
        <pt x="696" y="723" on="1"/>
        <pt x="982" y="746" on="1"/>
        <pt x="949" y="470" on="1"/>
        <pt x="563" y="540" on="1"/>
        <pt x="563" y="210" on="1"/>
        <pt x="926" y="170" on="1"/>
        <pt x="1072" y="428" on="1"/>
        <pt x="1237" y="411" on="1"/>
        <pt x="1207" y="0" on="1"/>
        <pt x="16" y="0" on="1"/>
        <pt x="26" y="138" on="1"/>
        <pt x="190" y="217" on="1"/>
        <pt x="190" y="1030" on="1"/>
      </contour>
      <contour>
        <pt x="538" y="1402" on="1"/>
        <pt x="692" y="1727" on="1"/>
        <pt x="912" y="1713" on="1"/>
        <pt x="682" y="1381" on="1"/>
      </contour>
    </TTGlyph>
    <TTGlyph name="Ecaron" xMin="0" yMin="0" xMax="1237" yMax="1634">
      <contour>
        <pt x="0" y="1100" on="1"/>
        <pt x="19" y="1244" on="1"/>
        <pt x="1192" y="1244" on="1"/>
        <pt x="1162" y="826" on="1"/>
        <pt x="991" y="852" on="1"/>
        <pt x="908" y="1072" on="1"/>
        <pt x="563" y="1072" on="1"/>
        <pt x="563" y="712" on="1"/>
        <pt x="696" y="723" on="1"/>
        <pt x="982" y="746" on="1"/>
        <pt x="949" y="470" on="1"/>
        <pt x="563" y="540" on="1"/>
        <pt x="563" y="210" on="1"/>
        <pt x="926" y="170" on="1"/>
        <pt x="1072" y="428" on="1"/>
        <pt x="1237" y="411" on="1"/>
        <pt x="1207" y="0" on="1"/>
        <pt x="16" y="0" on="1"/>
        <pt x="26" y="138" on="1"/>
        <pt x="190" y="217" on="1"/>
        <pt x="190" y="1030" on="1"/>
      </contour>
      <contour>
        <pt x="386" y="1597" on="1"/>
        <pt x="572" y="1634" on="1"/>
        <pt x="684" y="1549" on="1"/>
        <pt x="694" y="1549" on="1"/>
        <pt x="790" y="1631" on="1"/>
        <pt x="962" y="1602" on="1"/>
        <pt x="752" y="1401" on="1"/>
        <pt x="594" y="1391" on="1"/>
      </contour>
    </TTGlyph>
    <TTGlyph name="Ecircumflex" xMin="0" yMin="0" xMax="1237" yMax="1616">
      <contour>
        <pt x="0" y="1100" on="1"/>
        <pt x="19" y="1244" on="1"/>
        <pt x="1192" y="1244" on="1"/>
        <pt x="1162" y="826" on="1"/>
        <pt x="991" y="852" on="1"/>
        <pt x="908" y="1072" on="1"/>
        <pt x="563" y="1072" on="1"/>
        <pt x="563" y="712" on="1"/>
        <pt x="696" y="723" on="1"/>
        <pt x="982" y="746" on="1"/>
        <pt x="949" y="470" on="1"/>
        <pt x="563" y="540" on="1"/>
        <pt x="563" y="210" on="1"/>
        <pt x="926" y="170" on="1"/>
        <pt x="1072" y="428" on="1"/>
        <pt x="1237" y="411" on="1"/>
        <pt x="1207" y="0" on="1"/>
        <pt x="16" y="0" on="1"/>
        <pt x="26" y="138" on="1"/>
        <pt x="190" y="217" on="1"/>
        <pt x="190" y="1030" on="1"/>
      </contour>
      <contour>
        <pt x="364" y="1401" on="1"/>
        <pt x="536" y="1596" on="1"/>
        <pt x="712" y="1616" on="1"/>
        <pt x="916" y="1411" on="1"/>
        <pt x="766" y="1352" on="1"/>
        <pt x="626" y="1453" on="1"/>
        <pt x="612" y="1453" on="1"/>
        <pt x="510" y="1351" on="1"/>
      </contour>
    </TTGlyph>
    <TTGlyph name="Edieresis" xMin="0" yMin="0" xMax="1237" yMax="1605">
      <contour>
        <pt x="0" y="1100" on="1"/>
        <pt x="19" y="1244" on="1"/>
        <pt x="1192" y="1244" on="1"/>
        <pt x="1162" y="826" on="1"/>
        <pt x="991" y="852" on="1"/>
        <pt x="908" y="1072" on="1"/>
        <pt x="563" y="1072" on="1"/>
        <pt x="563" y="712" on="1"/>
        <pt x="696" y="723" on="1"/>
        <pt x="982" y="746" on="1"/>
        <pt x="949" y="470" on="1"/>
        <pt x="563" y="540" on="1"/>
        <pt x="563" y="210" on="1"/>
        <pt x="926" y="170" on="1"/>
        <pt x="1072" y="428" on="1"/>
        <pt x="1237" y="411" on="1"/>
        <pt x="1207" y="0" on="1"/>
        <pt x="16" y="0" on="1"/>
        <pt x="26" y="138" on="1"/>
        <pt x="190" y="217" on="1"/>
        <pt x="190" y="1030" on="1"/>
      </contour>
      <contour>
        <pt x="356" y="1498" on="1"/>
        <pt x="356" y="1540" on="0"/>
        <pt x="421" y="1605" on="0"/>
        <pt x="571" y="1605" on="0"/>
        <pt x="638" y="1542" on="0"/>
        <pt x="638" y="1500" on="1"/>
        <pt x="638" y="1391" on="0"/>
        <pt x="356" y="1391" on="0"/>
      </contour>
      <contour>
        <pt x="665" y="1498" on="1"/>
        <pt x="665" y="1540" on="0"/>
        <pt x="730" y="1605" on="0"/>
        <pt x="880" y="1605" on="0"/>
        <pt x="947" y="1542" on="0"/>
        <pt x="947" y="1500" on="1"/>
        <pt x="947" y="1391" on="0"/>
        <pt x="665" y="1391" on="0"/>
      </contour>
    </TTGlyph>
    <TTGlyph name="Edotaccent" xMin="0" yMin="0" xMax="1237" yMax="1697">
      <contour>
        <pt x="0" y="1100" on="1"/>
        <pt x="19" y="1244" on="1"/>
        <pt x="1192" y="1244" on="1"/>
        <pt x="1162" y="826" on="1"/>
        <pt x="991" y="852" on="1"/>
        <pt x="908" y="1072" on="1"/>
        <pt x="563" y="1072" on="1"/>
        <pt x="563" y="712" on="1"/>
        <pt x="696" y="723" on="1"/>
        <pt x="982" y="746" on="1"/>
        <pt x="949" y="470" on="1"/>
        <pt x="563" y="540" on="1"/>
        <pt x="563" y="210" on="1"/>
        <pt x="926" y="170" on="1"/>
        <pt x="1072" y="428" on="1"/>
        <pt x="1237" y="411" on="1"/>
        <pt x="1207" y="0" on="1"/>
        <pt x="16" y="0" on="1"/>
        <pt x="26" y="138" on="1"/>
        <pt x="190" y="217" on="1"/>
        <pt x="190" y="1030" on="1"/>
      </contour>
      <contour>
        <pt x="452" y="1544" on="1"/>
        <pt x="452" y="1604" on="0"/>
        <pt x="551" y="1697" on="0"/>
        <pt x="778" y="1697" on="0"/>
        <pt x="879" y="1606" on="0"/>
        <pt x="879" y="1547" on="1"/>
        <pt x="879" y="1391" on="0"/>
        <pt x="452" y="1391" on="0"/>
      </contour>
    </TTGlyph>
    <TTGlyph name="Egrave" xMin="0" yMin="0" xMax="1237" yMax="1770">
      <contour>
        <pt x="0" y="1100" on="1"/>
        <pt x="19" y="1244" on="1"/>
        <pt x="1192" y="1244" on="1"/>
        <pt x="1162" y="826" on="1"/>
        <pt x="991" y="852" on="1"/>
        <pt x="908" y="1072" on="1"/>
        <pt x="563" y="1072" on="1"/>
        <pt x="563" y="712" on="1"/>
        <pt x="696" y="723" on="1"/>
        <pt x="982" y="746" on="1"/>
        <pt x="949" y="470" on="1"/>
        <pt x="563" y="540" on="1"/>
        <pt x="563" y="210" on="1"/>
        <pt x="926" y="170" on="1"/>
        <pt x="1072" y="428" on="1"/>
        <pt x="1237" y="411" on="1"/>
        <pt x="1207" y="0" on="1"/>
        <pt x="16" y="0" on="1"/>
        <pt x="26" y="138" on="1"/>
        <pt x="190" y="217" on="1"/>
        <pt x="190" y="1030" on="1"/>
      </contour>
      <contour>
        <pt x="316" y="1730" on="1"/>
        <pt x="534" y="1770" on="1"/>
        <pt x="684" y="1422" on="1"/>
        <pt x="526" y="1391" on="1"/>
      </contour>
    </TTGlyph>
    <TTGlyph name="Emacron" xMin="0" yMin="0" xMax="1237" yMax="1586">
      <contour>
        <pt x="0" y="1100" on="1"/>
        <pt x="19" y="1244" on="1"/>
        <pt x="1192" y="1244" on="1"/>
        <pt x="1162" y="826" on="1"/>
        <pt x="991" y="852" on="1"/>
        <pt x="908" y="1072" on="1"/>
        <pt x="563" y="1072" on="1"/>
        <pt x="563" y="712" on="1"/>
        <pt x="696" y="723" on="1"/>
        <pt x="982" y="746" on="1"/>
        <pt x="949" y="470" on="1"/>
        <pt x="563" y="540" on="1"/>
        <pt x="563" y="210" on="1"/>
        <pt x="926" y="170" on="1"/>
        <pt x="1072" y="428" on="1"/>
        <pt x="1237" y="411" on="1"/>
        <pt x="1207" y="0" on="1"/>
        <pt x="16" y="0" on="1"/>
        <pt x="26" y="138" on="1"/>
        <pt x="190" y="217" on="1"/>
        <pt x="190" y="1030" on="1"/>
      </contour>
      <contour>
        <pt x="428" y="1391" on="1"/>
        <pt x="450" y="1586" on="1"/>
        <pt x="902" y="1586" on="1"/>
        <pt x="880" y="1391" on="1"/>
      </contour>
    </TTGlyph>
    <TTGlyph name="Eng" xMin="0" yMin="-326" xMax="1403" yMax="1244">
      <contour>
        <pt x="4" y="1087" on="1"/>
        <pt x="18" y="1244" on="1"/>
        <pt x="458" y="1244" on="1"/>
        <pt x="990" y="532" on="1"/>
        <pt x="990" y="1020" on="1"/>
        <pt x="802" y="1094" on="1"/>
        <pt x="826" y="1244" on="1"/>
        <pt x="1403" y="1244" on="1"/>
        <pt x="1378" y="1094" on="1"/>
        <pt x="1210" y="1027" on="1"/>
        <pt x="1210" y="434" on="1"/>
        <pt x="1210" y="237" on="0"/>
        <pt x="1139" y="-8" on="0"/>
        <pt x="974" y="-191" on="0"/>
        <pt x="812" y="-292" on="1"/>
        <pt x="756" y="-326" on="1"/>
        <pt x="639" y="-151" on="1"/>
        <pt x="762" y="-53" on="0"/>
        <pt x="815" y="112" on="1"/>
        <pt x="414" y="619" on="1"/>
        <pt x="414" y="211" on="1"/>
        <pt x="594" y="148" on="1"/>
        <pt x="581" y="0" on="1"/>
        <pt x="0" y="0" on="1"/>
        <pt x="10" y="138" on="1"/>
        <pt x="181" y="217" on="1"/>
        <pt x="181" y="1003" on="1"/>
      </contour>
    </TTGlyph>
    <TTGlyph name="Eogonek" xMin="0" yMin="-385" xMax="1237" yMax="1244">
      <contour>
        <pt x="0" y="1100" on="1"/>
        <pt x="19" y="1244" on="1"/>
        <pt x="1192" y="1244" on="1"/>
        <pt x="1162" y="826" on="1"/>
        <pt x="991" y="852" on="1"/>
        <pt x="908" y="1072" on="1"/>
        <pt x="563" y="1072" on="1"/>
        <pt x="563" y="712" on="1"/>
        <pt x="696" y="723" on="1"/>
        <pt x="982" y="746" on="1"/>
        <pt x="949" y="470" on="1"/>
        <pt x="563" y="540" on="1"/>
        <pt x="563" y="210" on="1"/>
        <pt x="926" y="170" on="1"/>
        <pt x="1072" y="428" on="1"/>
        <pt x="1237" y="411" on="1"/>
        <pt x="1207" y="0" on="1"/>
        <pt x="773" y="0" on="1"/>
        <pt x="714" y="-178" on="0"/>
        <pt x="844" y="-290" on="1"/>
        <pt x="818" y="-385" on="1"/>
        <pt x="687" y="-377" on="0"/>
        <pt x="502" y="-278" on="0"/>
        <pt x="502" y="-134" on="0"/>
        <pt x="565" y="-49" on="0"/>
        <pt x="639" y="0" on="1"/>
        <pt x="16" y="0" on="1"/>
        <pt x="26" y="138" on="1"/>
        <pt x="190" y="217" on="1"/>
        <pt x="190" y="1030" on="1"/>
      </contour>
    </TTGlyph>
    <TTGlyph name="Eth" xMin="0" yMin="0" xMax="1451" yMax="1258">
      <contour>
        <pt x="573" y="202" on="1"/>
        <pt x="648" y="202" on="1"/>
        <pt x="964" y="202" on="0"/>
        <pt x="1030" y="459" on="1"/>
        <pt x="1046" y="523" on="0"/>
        <pt x="1046" y="659" on="0"/>
        <pt x="1015" y="782" on="0"/>
        <pt x="945" y="905" on="0"/>
        <pt x="894" y="952" on="1"/>
        <pt x="780" y="1057" on="0"/>
        <pt x="591" y="1057" on="1"/>
        <pt x="578" y="1056" on="1"/>
        <pt x="578" y="1055" on="0"/>
        <pt x="592" y="1052" on="0"/>
        <pt x="576" y="1051" on="0"/>
        <pt x="573" y="1051" on="1"/>
        <pt x="573" y="712" on="1"/>
        <pt x="771" y="737" on="1"/>
        <pt x="752" y="548" on="1"/>
        <pt x="573" y="536" on="1"/>
      </contour>
      <contour>
        <pt x="23" y="483" on="1"/>
        <pt x="38" y="666" on="1"/>
        <pt x="203" y="680" on="1"/>
        <pt x="203" y="1003" on="1"/>
        <pt x="30" y="1049" on="1"/>
        <pt x="37" y="1206" on="1"/>
        <pt x="363" y="1258" on="0"/>
        <pt x="770" y="1258" on="0"/>
        <pt x="1002" y="1223" on="0"/>
        <pt x="1170" y="1161" on="0"/>
        <pt x="1299" y="1071" on="0"/>
        <pt x="1380" y="969" on="0"/>
        <pt x="1406" y="906" on="1"/>
        <pt x="1451" y="795" on="0"/>
        <pt x="1451" y="524" on="0"/>
        <pt x="1332" y="288" on="0"/>
        <pt x="1121" y="108" on="0"/>
        <pt x="804" y="0" on="0"/>
        <pt x="618" y="0" on="1"/>
        <pt x="0" y="0" on="1"/>
        <pt x="23" y="138" on="1"/>
        <pt x="203" y="241" on="1"/>
        <pt x="203" y="499" on="1"/>
      </contour>
    </TTGlyph>
    <TTGlyph name="Euro" xMin="0" yMin="-23" xMax="1231" yMax="1266">
      <contour>
        <pt x="1212" y="1166" on="1"/>
        <pt x="1185" y="815" on="1"/>
        <pt x="1010" y="837" on="1"/>
        <pt x="944" y="1027" on="1"/>
        <pt x="850" y="1096" on="0"/>
        <pt x="711" y="1096" on="1"/>
        <pt x="617" y="1096" on="0"/>
        <pt x="498" y="946" on="0"/>
        <pt x="494" y="789" on="1"/>
        <pt x="943" y="789" on="1"/>
        <pt x="916" y="655" on="1"/>
        <pt x="503" y="655" on="1"/>
        <pt x="510" y="608" on="0"/>
        <pt x="514" y="589" on="1"/>
        <pt x="897" y="589" on="1"/>
        <pt x="870" y="456" on="1"/>
        <pt x="550" y="456" on="1"/>
        <pt x="596" y="327" on="0"/>
        <pt x="746" y="164" on="0"/>
        <pt x="938" y="164" on="0"/>
        <pt x="952" y="188" on="1"/>
        <pt x="1026" y="408" on="1"/>
        <pt x="1202" y="436" on="1"/>
        <pt x="1231" y="127" on="1"/>
        <pt x="1132" y="37" on="0"/>
        <pt x="939" y="-23" on="0"/>
        <pt x="654" y="-23" on="0"/>
        <pt x="412" y="53" on="0"/>
        <pt x="332" y="120" on="1"/>
        <pt x="171" y="255" on="0"/>
        <pt x="135" y="456" on="1"/>
        <pt x="0" y="456" on="1"/>
        <pt x="16" y="589" on="1"/>
        <pt x="125" y="589" on="1"/>
        <pt x="127" y="633" on="0"/>
        <pt x="130" y="655" on="1"/>
        <pt x="16" y="655" on="1"/>
        <pt x="32" y="789" on="1"/>
        <pt x="161" y="789" on="1"/>
        <pt x="228" y="991" on="0"/>
        <pt x="398" y="1124" on="1"/>
        <pt x="579" y="1266" on="0"/>
        <pt x="1083" y="1266" on="0"/>
      </contour>
    </TTGlyph>
    <TTGlyph name="Euro.osf" xMin="0" yMin="-41" xMax="1028" yMax="1041">
      <contour>
        <pt x="5" y="343" on="1"/>
        <pt x="21" y="476" on="1"/>
        <pt x="111" y="476" on="1"/>
        <pt x="110" y="489" on="0"/>
        <pt x="110" y="517" on="1"/>
        <pt x="110" y="533" on="1"/>
        <pt x="0" y="533" on="1"/>
        <pt x="22" y="669" on="1"/>
        <pt x="132" y="669" on="1"/>
        <pt x="182" y="834" on="0"/>
        <pt x="464" y="1041" on="0"/>
        <pt x="652" y="1041" on="1"/>
        <pt x="782" y="1041" on="0"/>
        <pt x="992" y="968" on="0"/>
        <pt x="1021" y="918" on="1"/>
        <pt x="999" y="635" on="1"/>
        <pt x="856" y="659" on="1"/>
        <pt x="798" y="840" on="1"/>
        <pt x="755" y="882" on="0"/>
        <pt x="686" y="918" on="0"/>
        <pt x="613" y="918" on="1"/>
        <pt x="462" y="918" on="0"/>
        <pt x="437" y="669" on="1"/>
        <pt x="748" y="669" on="1"/>
        <pt x="721" y="533" on="1"/>
        <pt x="431" y="533" on="1"/>
        <pt x="431" y="512" on="0"/>
        <pt x="433" y="476" on="1"/>
        <pt x="706" y="476" on="1"/>
        <pt x="679" y="343" on="1"/>
        <pt x="455" y="343" on="1"/>
        <pt x="485" y="230" on="0"/>
        <pt x="603" y="112" on="0"/>
        <pt x="752" y="112" on="0"/>
        <pt x="794" y="147" on="1"/>
        <pt x="866" y="408" on="1"/>
        <pt x="1009" y="376" on="1"/>
        <pt x="1028" y="84" on="1"/>
        <pt x="961" y="31" on="0"/>
        <pt x="697" y="-41" on="0"/>
        <pt x="575" y="-41" on="1"/>
        <pt x="393" y="-41" on="0"/>
        <pt x="161" y="156" on="0"/>
        <pt x="125" y="343" on="1"/>
      </contour>
    </TTGlyph>
    <TTGlyph name="F" xMin="0" yMin="0" xMax="1187" yMax="1244">
      <contour>
        <pt x="0" y="1100" on="1"/>
        <pt x="19" y="1244" on="1"/>
        <pt x="1187" y="1244" on="1"/>
        <pt x="1128" y="834" on="1"/>
        <pt x="961" y="861" on="1"/>
        <pt x="901" y="1072" on="1"/>
        <pt x="565" y="1072" on="1"/>
        <pt x="565" y="686" on="1"/>
        <pt x="792" y="709" on="1"/>
        <pt x="984" y="728" on="1"/>
        <pt x="951" y="452" on="1"/>
        <pt x="798" y="477" on="1"/>
        <pt x="565" y="514" on="1"/>
        <pt x="565" y="227" on="1"/>
        <pt x="790" y="143" on="1"/>
        <pt x="774" y="0" on="1"/>
        <pt x="15" y="0" on="1"/>
        <pt x="31" y="138" on="1"/>
        <pt x="193" y="217" on="1"/>
        <pt x="193" y="1030" on="1"/>
      </contour>
    </TTGlyph>
    <TTGlyph name="G" xMin="0" yMin="-24" xMax="1371" yMax="1271">
      <contour>
        <pt x="0" y="580" on="1"/>
        <pt x="0" y="710" on="0"/>
        <pt x="86" y="936" on="0"/>
        <pt x="234" y="1098" on="0"/>
        <pt x="332" y="1156" on="1"/>
        <pt x="525" y="1271" on="0"/>
        <pt x="761" y="1271" on="1"/>
        <pt x="927" y="1271" on="0"/>
        <pt x="1057" y="1242" on="1"/>
        <pt x="1090" y="1234" on="0"/>
        <pt x="1166" y="1210" on="1"/>
        <pt x="1242" y="1185" on="1"/>
        <pt x="1201" y="746" on="1"/>
        <pt x="1013" y="761" on="1"/>
        <pt x="972" y="979" on="1"/>
        <pt x="922" y="1030" on="0"/>
        <pt x="803" y="1087" on="0"/>
        <pt x="714" y="1087" on="1"/>
        <pt x="564" y="1087" on="0"/>
        <pt x="408" y="901" on="0"/>
        <pt x="408" y="465" on="0"/>
        <pt x="580" y="179" on="0"/>
        <pt x="724" y="179" on="1"/>
        <pt x="833" y="179" on="0"/>
        <pt x="909" y="235" on="1"/>
        <pt x="909" y="355" on="1"/>
        <pt x="688" y="419" on="1"/>
        <pt x="711" y="591" on="1"/>
        <pt x="1371" y="591" on="1"/>
        <pt x="1350" y="435" on="1"/>
        <pt x="1245" y="363" on="1"/>
        <pt x="1245" y="93" on="1"/>
        <pt x="1180" y="51" on="0"/>
        <pt x="857" y="-24" on="0"/>
        <pt x="740" y="-24" on="1"/>
        <pt x="372" y="-24" on="0"/>
        <pt x="0" y="283" on="0"/>
      </contour>
    </TTGlyph>
    <TTGlyph name="Gbreve" xMin="0" yMin="-24" xMax="1371" yMax="1637">
      <contour>
        <pt x="0" y="580" on="1"/>
        <pt x="0" y="710" on="0"/>
        <pt x="86" y="936" on="0"/>
        <pt x="234" y="1098" on="0"/>
        <pt x="332" y="1156" on="1"/>
        <pt x="525" y="1271" on="0"/>
        <pt x="761" y="1271" on="1"/>
        <pt x="927" y="1271" on="0"/>
        <pt x="1057" y="1242" on="1"/>
        <pt x="1090" y="1234" on="0"/>
        <pt x="1166" y="1210" on="1"/>
        <pt x="1242" y="1185" on="1"/>
        <pt x="1201" y="746" on="1"/>
        <pt x="1013" y="761" on="1"/>
        <pt x="972" y="979" on="1"/>
        <pt x="922" y="1030" on="0"/>
        <pt x="803" y="1087" on="0"/>
        <pt x="714" y="1087" on="1"/>
        <pt x="564" y="1087" on="0"/>
        <pt x="408" y="901" on="0"/>
        <pt x="408" y="465" on="0"/>
        <pt x="580" y="179" on="0"/>
        <pt x="724" y="179" on="1"/>
        <pt x="833" y="179" on="0"/>
        <pt x="909" y="235" on="1"/>
        <pt x="909" y="355" on="1"/>
        <pt x="688" y="419" on="1"/>
        <pt x="711" y="591" on="1"/>
        <pt x="1371" y="591" on="1"/>
        <pt x="1350" y="435" on="1"/>
        <pt x="1245" y="363" on="1"/>
        <pt x="1245" y="93" on="1"/>
        <pt x="1180" y="51" on="0"/>
        <pt x="857" y="-24" on="0"/>
        <pt x="740" y="-24" on="1"/>
        <pt x="372" y="-24" on="0"/>
        <pt x="0" y="283" on="0"/>
      </contour>
      <contour>
        <pt x="434" y="1601" on="1"/>
        <pt x="613" y="1637" on="1"/>
        <pt x="618" y="1611" on="0"/>
        <pt x="656" y="1570" on="0"/>
        <pt x="718" y="1570" on="0"/>
        <pt x="753" y="1593" on="0"/>
        <pt x="766" y="1616" on="0"/>
        <pt x="775" y="1637" on="1"/>
        <pt x="948" y="1596" on="1"/>
        <pt x="931" y="1506" on="0"/>
        <pt x="794" y="1393" on="0"/>
        <pt x="693" y="1393" on="1"/>
        <pt x="486" y="1393" on="0"/>
      </contour>
    </TTGlyph>
    <TTGlyph name="Gcommaaccent" xMin="0" yMin="-451" xMax="1371" yMax="1271">
      <contour>
        <pt x="0" y="580" on="1"/>
        <pt x="0" y="710" on="0"/>
        <pt x="86" y="936" on="0"/>
        <pt x="234" y="1098" on="0"/>
        <pt x="332" y="1156" on="1"/>
        <pt x="525" y="1271" on="0"/>
        <pt x="761" y="1271" on="1"/>
        <pt x="927" y="1271" on="0"/>
        <pt x="1057" y="1242" on="1"/>
        <pt x="1090" y="1234" on="0"/>
        <pt x="1166" y="1210" on="1"/>
        <pt x="1242" y="1185" on="1"/>
        <pt x="1201" y="746" on="1"/>
        <pt x="1013" y="761" on="1"/>
        <pt x="972" y="979" on="1"/>
        <pt x="922" y="1030" on="0"/>
        <pt x="803" y="1087" on="0"/>
        <pt x="714" y="1087" on="1"/>
        <pt x="564" y="1087" on="0"/>
        <pt x="408" y="901" on="0"/>
        <pt x="408" y="465" on="0"/>
        <pt x="580" y="179" on="0"/>
        <pt x="724" y="179" on="1"/>
        <pt x="833" y="179" on="0"/>
        <pt x="909" y="235" on="1"/>
        <pt x="909" y="355" on="1"/>
        <pt x="688" y="419" on="1"/>
        <pt x="711" y="591" on="1"/>
        <pt x="1371" y="591" on="1"/>
        <pt x="1350" y="435" on="1"/>
        <pt x="1245" y="363" on="1"/>
        <pt x="1245" y="93" on="1"/>
        <pt x="1180" y="51" on="0"/>
        <pt x="857" y="-24" on="0"/>
        <pt x="740" y="-24" on="1"/>
        <pt x="372" y="-24" on="0"/>
        <pt x="0" y="283" on="0"/>
      </contour>
      <contour>
        <pt x="560" y="-272" on="1"/>
        <pt x="583" y="-146" on="0"/>
        <pt x="760" y="-146" on="1"/>
        <pt x="836" y="-146" on="0"/>
        <pt x="928" y="-216" on="0"/>
        <pt x="928" y="-340" on="0"/>
        <pt x="877" y="-382" on="1"/>
        <pt x="778" y="-462" on="0"/>
        <pt x="586" y="-451" on="1"/>
        <pt x="564" y="-391" on="1"/>
        <pt x="604" y="-385" on="0"/>
        <pt x="672" y="-349" on="0"/>
        <pt x="672" y="-308" on="0"/>
        <pt x="602" y="-278" on="0"/>
      </contour>
    </TTGlyph>
    <TTGlyph name="Gdotaccent" xMin="0" yMin="-24" xMax="1371" yMax="1699">
      <contour>
        <pt x="0" y="580" on="1"/>
        <pt x="0" y="710" on="0"/>
        <pt x="86" y="936" on="0"/>
        <pt x="234" y="1098" on="0"/>
        <pt x="332" y="1156" on="1"/>
        <pt x="525" y="1271" on="0"/>
        <pt x="761" y="1271" on="1"/>
        <pt x="927" y="1271" on="0"/>
        <pt x="1057" y="1242" on="1"/>
        <pt x="1090" y="1234" on="0"/>
        <pt x="1166" y="1210" on="1"/>
        <pt x="1242" y="1185" on="1"/>
        <pt x="1201" y="746" on="1"/>
        <pt x="1013" y="761" on="1"/>
        <pt x="972" y="979" on="1"/>
        <pt x="922" y="1030" on="0"/>
        <pt x="803" y="1087" on="0"/>
        <pt x="714" y="1087" on="1"/>
        <pt x="564" y="1087" on="0"/>
        <pt x="408" y="901" on="0"/>
        <pt x="408" y="465" on="0"/>
        <pt x="580" y="179" on="0"/>
        <pt x="724" y="179" on="1"/>
        <pt x="833" y="179" on="0"/>
        <pt x="909" y="235" on="1"/>
        <pt x="909" y="355" on="1"/>
        <pt x="688" y="419" on="1"/>
        <pt x="711" y="591" on="1"/>
        <pt x="1371" y="591" on="1"/>
        <pt x="1350" y="435" on="1"/>
        <pt x="1245" y="363" on="1"/>
        <pt x="1245" y="93" on="1"/>
        <pt x="1180" y="51" on="0"/>
        <pt x="857" y="-24" on="0"/>
        <pt x="740" y="-24" on="1"/>
        <pt x="372" y="-24" on="0"/>
        <pt x="0" y="283" on="0"/>
      </contour>
      <contour>
        <pt x="498" y="1546" on="1"/>
        <pt x="498" y="1606" on="0"/>
        <pt x="596" y="1699" on="0"/>
        <pt x="823" y="1699" on="0"/>
        <pt x="925" y="1608" on="0"/>
        <pt x="925" y="1549" on="1"/>
        <pt x="925" y="1393" on="0"/>
        <pt x="498" y="1393" on="0"/>
      </contour>
    </TTGlyph>
    <TTGlyph name="H" xMin="0" yMin="0" xMax="1570" yMax="1244">
      <contour>
        <pt x="0" y="1094" on="1"/>
        <pt x="25" y="1244" on="1"/>
        <pt x="745" y="1244" on="1"/>
        <pt x="726" y="1094" on="1"/>
        <pt x="559" y="1027" on="1"/>
        <pt x="559" y="744" on="1"/>
        <pt x="1006" y="744" on="1"/>
        <pt x="1006" y="1020" on="1"/>
        <pt x="825" y="1094" on="1"/>
        <pt x="842" y="1244" on="1"/>
        <pt x="1570" y="1244" on="1"/>
        <pt x="1551" y="1094" on="1"/>
        <pt x="1383" y="1027" on="1"/>
        <pt x="1383" y="211" on="1"/>
        <pt x="1562" y="148" on="1"/>
        <pt x="1548" y="0" on="1"/>
        <pt x="825" y="0" on="1"/>
        <pt x="839" y="138" on="1"/>
        <pt x="1006" y="217" on="1"/>
        <pt x="1006" y="493" on="1"/>
        <pt x="559" y="493" on="1"/>
        <pt x="559" y="211" on="1"/>
        <pt x="740" y="148" on="1"/>
        <pt x="722" y="0" on="1"/>
        <pt x="5" y="0" on="1"/>
        <pt x="17" y="138" on="1"/>
        <pt x="186" y="217" on="1"/>
        <pt x="186" y="1020" on="1"/>
      </contour>
    </TTGlyph>
    <TTGlyph name="Hbar" xMin="0" yMin="0" xMax="1570" yMax="1244">
      <contour>
        <pt x="1006" y="837" on="1"/>
        <pt x="559" y="837" on="1"/>
        <pt x="559" y="744" on="1"/>
        <pt x="1006" y="744" on="1"/>
      </contour>
      <contour>
        <pt x="15" y="772" on="1"/>
        <pt x="27" y="976" on="1"/>
        <pt x="186" y="976" on="1"/>
        <pt x="186" y="1020" on="1"/>
        <pt x="0" y="1094" on="1"/>
        <pt x="25" y="1244" on="1"/>
        <pt x="745" y="1244" on="1"/>
        <pt x="726" y="1094" on="1"/>
        <pt x="559" y="1027" on="1"/>
        <pt x="559" y="937" on="1"/>
        <pt x="1006" y="937" on="1"/>
        <pt x="1006" y="1020" on="1"/>
        <pt x="825" y="1094" on="1"/>
        <pt x="842" y="1244" on="1"/>
        <pt x="1570" y="1244" on="1"/>
        <pt x="1551" y="1094" on="1"/>
        <pt x="1383" y="1027" on="1"/>
        <pt x="1383" y="976" on="1"/>
        <pt x="1541" y="976" on="1"/>
        <pt x="1531" y="772" on="1"/>
        <pt x="1383" y="772" on="1"/>
        <pt x="1383" y="211" on="1"/>
        <pt x="1562" y="148" on="1"/>
        <pt x="1548" y="0" on="1"/>
        <pt x="825" y="0" on="1"/>
        <pt x="839" y="138" on="1"/>
        <pt x="1006" y="217" on="1"/>
        <pt x="1006" y="493" on="1"/>
        <pt x="559" y="493" on="1"/>
        <pt x="559" y="211" on="1"/>
        <pt x="740" y="148" on="1"/>
        <pt x="722" y="0" on="1"/>
        <pt x="5" y="0" on="1"/>
        <pt x="17" y="138" on="1"/>
        <pt x="186" y="217" on="1"/>
        <pt x="186" y="772" on="1"/>
      </contour>
    </TTGlyph>
    <TTGlyph name="I" xMin="0" yMin="0" xMax="747" yMax="1244">
      <contour>
        <pt x="0" y="1094" on="1"/>
        <pt x="20" y="1244" on="1"/>
        <pt x="747" y="1244" on="1"/>
        <pt x="731" y="1084" on="1"/>
        <pt x="552" y="1017" on="1"/>
        <pt x="552" y="223" on="1"/>
        <pt x="732" y="160" on="1"/>
        <pt x="719" y="0" on="1"/>
        <pt x="2" y="0" on="1"/>
        <pt x="12" y="142" on="1"/>
        <pt x="188" y="221" on="1"/>
        <pt x="188" y="1020" on="1"/>
      </contour>
    </TTGlyph>
    <TTGlyph name="Iacute" xMin="0" yMin="0" xMax="747" yMax="1727">
      <contour>
        <pt x="0" y="1094" on="1"/>
        <pt x="20" y="1244" on="1"/>
        <pt x="747" y="1244" on="1"/>
        <pt x="731" y="1084" on="1"/>
        <pt x="552" y="1017" on="1"/>
        <pt x="552" y="223" on="1"/>
        <pt x="732" y="160" on="1"/>
        <pt x="719" y="0" on="1"/>
        <pt x="2" y="0" on="1"/>
        <pt x="12" y="142" on="1"/>
        <pt x="188" y="221" on="1"/>
        <pt x="188" y="1020" on="1"/>
      </contour>
      <contour>
        <pt x="306" y="1402" on="1"/>
        <pt x="460" y="1727" on="1"/>
        <pt x="680" y="1713" on="1"/>
        <pt x="450" y="1381" on="1"/>
      </contour>
    </TTGlyph>
    <TTGlyph name="Icircumflex" xMin="0" yMin="0" xMax="747" yMax="1616">
      <contour>
        <pt x="0" y="1094" on="1"/>
        <pt x="20" y="1244" on="1"/>
        <pt x="747" y="1244" on="1"/>
        <pt x="731" y="1084" on="1"/>
        <pt x="552" y="1017" on="1"/>
        <pt x="552" y="223" on="1"/>
        <pt x="732" y="160" on="1"/>
        <pt x="719" y="0" on="1"/>
        <pt x="2" y="0" on="1"/>
        <pt x="12" y="142" on="1"/>
        <pt x="188" y="221" on="1"/>
        <pt x="188" y="1020" on="1"/>
      </contour>
      <contour>
        <pt x="122" y="1401" on="1"/>
        <pt x="294" y="1596" on="1"/>
        <pt x="470" y="1616" on="1"/>
        <pt x="674" y="1411" on="1"/>
        <pt x="524" y="1352" on="1"/>
        <pt x="384" y="1453" on="1"/>
        <pt x="370" y="1453" on="1"/>
        <pt x="268" y="1351" on="1"/>
      </contour>
    </TTGlyph>
    <TTGlyph name="Idieresis" xMin="0" yMin="0" xMax="747" yMax="1605">
      <contour>
        <pt x="0" y="1094" on="1"/>
        <pt x="20" y="1244" on="1"/>
        <pt x="747" y="1244" on="1"/>
        <pt x="731" y="1084" on="1"/>
        <pt x="552" y="1017" on="1"/>
        <pt x="552" y="223" on="1"/>
        <pt x="732" y="160" on="1"/>
        <pt x="719" y="0" on="1"/>
        <pt x="2" y="0" on="1"/>
        <pt x="12" y="142" on="1"/>
        <pt x="188" y="221" on="1"/>
        <pt x="188" y="1020" on="1"/>
      </contour>
      <contour>
        <pt x="84" y="1498" on="1"/>
        <pt x="84" y="1540" on="0"/>
        <pt x="149" y="1605" on="0"/>
        <pt x="299" y="1605" on="0"/>
        <pt x="366" y="1542" on="0"/>
        <pt x="366" y="1500" on="1"/>
        <pt x="366" y="1391" on="0"/>
        <pt x="84" y="1391" on="0"/>
      </contour>
      <contour>
        <pt x="393" y="1498" on="1"/>
        <pt x="393" y="1540" on="0"/>
        <pt x="458" y="1605" on="0"/>
        <pt x="608" y="1605" on="0"/>
        <pt x="675" y="1542" on="0"/>
        <pt x="675" y="1500" on="1"/>
        <pt x="675" y="1391" on="0"/>
        <pt x="393" y="1391" on="0"/>
      </contour>
    </TTGlyph>
    <TTGlyph name="Idotaccent" xMin="0" yMin="0" xMax="747" yMax="1697">
      <contour>
        <pt x="0" y="1094" on="1"/>
        <pt x="20" y="1244" on="1"/>
        <pt x="747" y="1244" on="1"/>
        <pt x="731" y="1084" on="1"/>
        <pt x="552" y="1017" on="1"/>
        <pt x="552" y="223" on="1"/>
        <pt x="732" y="160" on="1"/>
        <pt x="719" y="0" on="1"/>
        <pt x="2" y="0" on="1"/>
        <pt x="12" y="142" on="1"/>
        <pt x="188" y="221" on="1"/>
        <pt x="188" y="1020" on="1"/>
      </contour>
      <contour>
        <pt x="170" y="1544" on="1"/>
        <pt x="170" y="1604" on="0"/>
        <pt x="269" y="1697" on="0"/>
        <pt x="496" y="1697" on="0"/>
        <pt x="597" y="1606" on="0"/>
        <pt x="597" y="1547" on="1"/>
        <pt x="597" y="1391" on="0"/>
        <pt x="170" y="1391" on="0"/>
      </contour>
    </TTGlyph>
    <TTGlyph name="Igrave" xMin="0" yMin="0" xMax="747" yMax="1770">
      <contour>
        <pt x="0" y="1094" on="1"/>
        <pt x="20" y="1244" on="1"/>
        <pt x="747" y="1244" on="1"/>
        <pt x="731" y="1084" on="1"/>
        <pt x="552" y="1017" on="1"/>
        <pt x="552" y="223" on="1"/>
        <pt x="732" y="160" on="1"/>
        <pt x="719" y="0" on="1"/>
        <pt x="2" y="0" on="1"/>
        <pt x="12" y="142" on="1"/>
        <pt x="188" y="221" on="1"/>
        <pt x="188" y="1020" on="1"/>
      </contour>
      <contour>
        <pt x="94" y="1730" on="1"/>
        <pt x="312" y="1770" on="1"/>
        <pt x="462" y="1422" on="1"/>
        <pt x="304" y="1391" on="1"/>
      </contour>
    </TTGlyph>
    <TTGlyph name="Imacron" xMin="0" yMin="0" xMax="747" yMax="1586">
      <contour>
        <pt x="0" y="1094" on="1"/>
        <pt x="20" y="1244" on="1"/>
        <pt x="747" y="1244" on="1"/>
        <pt x="731" y="1084" on="1"/>
        <pt x="552" y="1017" on="1"/>
        <pt x="552" y="223" on="1"/>
        <pt x="732" y="160" on="1"/>
        <pt x="719" y="0" on="1"/>
        <pt x="2" y="0" on="1"/>
        <pt x="12" y="142" on="1"/>
        <pt x="188" y="221" on="1"/>
        <pt x="188" y="1020" on="1"/>
      </contour>
      <contour>
        <pt x="146" y="1391" on="1"/>
        <pt x="168" y="1586" on="1"/>
        <pt x="620" y="1586" on="1"/>
        <pt x="598" y="1391" on="1"/>
      </contour>
    </TTGlyph>
    <TTGlyph name="Iogonek" xMin="0" yMin="-385" xMax="778" yMax="1244">
      <contour>
        <pt x="708" y="0" on="1"/>
        <pt x="644" y="-174" on="0"/>
        <pt x="778" y="-290" on="1"/>
        <pt x="754" y="-385" on="1"/>
        <pt x="623" y="-377" on="0"/>
        <pt x="438" y="-278" on="0"/>
        <pt x="438" y="-134" on="0"/>
        <pt x="500" y="-49" on="0"/>
        <pt x="574" y="0" on="1"/>
        <pt x="2" y="0" on="1"/>
        <pt x="12" y="142" on="1"/>
        <pt x="188" y="221" on="1"/>
        <pt x="188" y="1020" on="1"/>
        <pt x="0" y="1094" on="1"/>
        <pt x="20" y="1244" on="1"/>
        <pt x="747" y="1244" on="1"/>
        <pt x="731" y="1084" on="1"/>
        <pt x="552" y="1017" on="1"/>
        <pt x="552" y="223" on="1"/>
        <pt x="732" y="160" on="1"/>
        <pt x="719" y="0" on="1"/>
      </contour>
    </TTGlyph>
    <TTGlyph name="J" xMin="0" yMin="-326" xMax="761" yMax="1244">
      <contour>
        <pt x="0" y="-151" on="1"/>
        <pt x="101" y="-70" on="0"/>
        <pt x="204" y="169" on="0"/>
        <pt x="204" y="285" on="1"/>
        <pt x="204" y="1020" on="1"/>
        <pt x="25" y="1094" on="1"/>
        <pt x="44" y="1244" on="1"/>
        <pt x="761" y="1244" on="1"/>
        <pt x="741" y="1094" on="1"/>
        <pt x="571" y="1027" on="1"/>
        <pt x="571" y="434" on="1"/>
        <pt x="571" y="199" on="0"/>
        <pt x="516" y="54" on="1"/>
        <pt x="465" y="-80" on="0"/>
        <pt x="303" y="-202" on="1"/>
        <pt x="230" y="-258" on="0"/>
        <pt x="117" y="-326" on="1"/>
      </contour>
    </TTGlyph>
    <TTGlyph name="K" xMin="0" yMin="-27" xMax="1507" yMax="1244">
      <contour>
        <pt x="630" y="655" on="1"/>
        <pt x="681" y="717" on="0"/>
        <pt x="695" y="740" on="1"/>
        <pt x="867" y="1003" on="1"/>
        <pt x="907" y="1244" on="1"/>
        <pt x="1428" y="1244" on="1"/>
        <pt x="1398" y="1094" on="1"/>
        <pt x="1174" y="1000" on="1"/>
        <pt x="942" y="685" on="1"/>
        <pt x="1100" y="470" on="1"/>
        <pt x="1172" y="372" on="0"/>
        <pt x="1242" y="284" on="0"/>
        <pt x="1336" y="193" on="0"/>
        <pt x="1421" y="153" on="0"/>
        <pt x="1482" y="139" on="1"/>
        <pt x="1507" y="133" on="1"/>
        <pt x="1475" y="2" on="1"/>
        <pt x="1444" y="-10" on="0"/>
        <pt x="1294" y="-27" on="0"/>
        <pt x="1170" y="-27" on="0"/>
        <pt x="1027" y="25" on="0"/>
        <pt x="968" y="78" on="1"/>
        <pt x="865" y="169" on="0"/>
        <pt x="763" y="346" on="1"/>
        <pt x="627" y="584" on="1"/>
      </contour>
      <contour>
        <pt x="0" y="1094" on="1"/>
        <pt x="32" y="1244" on="1"/>
        <pt x="742" y="1244" on="1"/>
        <pt x="721" y="1094" on="1"/>
        <pt x="585" y="1000" on="1"/>
        <pt x="585" y="240" on="1"/>
        <pt x="780" y="148" on="1"/>
        <pt x="768" y="0" on="1"/>
        <pt x="3" y="0" on="1"/>
        <pt x="19" y="138" on="1"/>
        <pt x="221" y="241" on="1"/>
        <pt x="221" y="993" on="1"/>
      </contour>
    </TTGlyph>
    <TTGlyph name="Kcommaaccent" xMin="0" yMin="-405" xMax="1507" yMax="1244">
      <contour>
        <pt x="630" y="655" on="1"/>
        <pt x="681" y="717" on="0"/>
        <pt x="695" y="740" on="1"/>
        <pt x="867" y="1003" on="1"/>
        <pt x="907" y="1244" on="1"/>
        <pt x="1428" y="1244" on="1"/>
        <pt x="1398" y="1094" on="1"/>
        <pt x="1174" y="1000" on="1"/>
        <pt x="942" y="685" on="1"/>
        <pt x="1100" y="470" on="1"/>
        <pt x="1172" y="372" on="0"/>
        <pt x="1242" y="284" on="0"/>
        <pt x="1336" y="193" on="0"/>
        <pt x="1421" y="153" on="0"/>
        <pt x="1482" y="139" on="1"/>
        <pt x="1507" y="133" on="1"/>
        <pt x="1475" y="2" on="1"/>
        <pt x="1444" y="-10" on="0"/>
        <pt x="1294" y="-27" on="0"/>
        <pt x="1170" y="-27" on="0"/>
        <pt x="1027" y="25" on="0"/>
        <pt x="968" y="78" on="1"/>
        <pt x="865" y="169" on="0"/>
        <pt x="763" y="346" on="1"/>
        <pt x="627" y="584" on="1"/>
      </contour>
      <contour>
        <pt x="0" y="1094" on="1"/>
        <pt x="32" y="1244" on="1"/>
        <pt x="742" y="1244" on="1"/>
        <pt x="721" y="1094" on="1"/>
        <pt x="585" y="1000" on="1"/>
        <pt x="585" y="240" on="1"/>
        <pt x="780" y="148" on="1"/>
        <pt x="768" y="0" on="1"/>
        <pt x="3" y="0" on="1"/>
        <pt x="19" y="138" on="1"/>
        <pt x="221" y="241" on="1"/>
        <pt x="221" y="993" on="1"/>
      </contour>
      <contour>
        <pt x="762" y="-226" on="1"/>
        <pt x="785" y="-100" on="0"/>
        <pt x="964" y="-100" on="1"/>
        <pt x="1040" y="-100" on="0"/>
        <pt x="1132" y="-170" on="0"/>
        <pt x="1132" y="-294" on="0"/>
        <pt x="1080" y="-336" on="1"/>
        <pt x="981" y="-416" on="0"/>
        <pt x="788" y="-405" on="1"/>
        <pt x="766" y="-345" on="1"/>
        <pt x="806" y="-339" on="0"/>
        <pt x="874" y="-303" on="0"/>
        <pt x="874" y="-262" on="0"/>
        <pt x="804" y="-232" on="0"/>
      </contour>
    </TTGlyph>
    <TTGlyph name="L" xMin="0" yMin="0" xMax="1159" yMax="1245">
      <contour>
        <pt x="0" y="0" on="1"/>
        <pt x="16" y="138" on="1"/>
        <pt x="176" y="217" on="1"/>
        <pt x="176" y="998" on="1"/>
        <pt x="4" y="1098" on="1"/>
        <pt x="23" y="1245" on="1"/>
        <pt x="766" y="1245" on="1"/>
        <pt x="745" y="1098" on="1"/>
        <pt x="549" y="1000" on="1"/>
        <pt x="549" y="200" on="1"/>
        <pt x="819" y="178" on="1"/>
        <pt x="993" y="453" on="1"/>
        <pt x="1159" y="430" on="1"/>
        <pt x="1112" y="0" on="1"/>
      </contour>
    </TTGlyph>
    <TTGlyph name="Lacute" xMin="0" yMin="0" xMax="1159" yMax="1727">
      <contour>
        <pt x="0" y="0" on="1"/>
        <pt x="16" y="138" on="1"/>
        <pt x="176" y="217" on="1"/>
        <pt x="176" y="998" on="1"/>
        <pt x="4" y="1098" on="1"/>
        <pt x="23" y="1245" on="1"/>
        <pt x="766" y="1245" on="1"/>
        <pt x="745" y="1098" on="1"/>
        <pt x="549" y="1000" on="1"/>
        <pt x="549" y="200" on="1"/>
        <pt x="819" y="178" on="1"/>
        <pt x="993" y="453" on="1"/>
        <pt x="1159" y="430" on="1"/>
        <pt x="1112" y="0" on="1"/>
      </contour>
      <contour>
        <pt x="284" y="1402" on="1"/>
        <pt x="439" y="1727" on="1"/>
        <pt x="659" y="1713" on="1"/>
        <pt x="428" y="1381" on="1"/>
      </contour>
    </TTGlyph>
    <TTGlyph name="Lcaron" xMin="0" yMin="0" xMax="1260" yMax="1269">
      <contour>
        <pt x="0" y="0" on="1"/>
        <pt x="16" y="138" on="1"/>
        <pt x="176" y="217" on="1"/>
        <pt x="176" y="998" on="1"/>
        <pt x="4" y="1098" on="1"/>
        <pt x="23" y="1245" on="1"/>
        <pt x="766" y="1245" on="1"/>
        <pt x="745" y="1098" on="1"/>
        <pt x="549" y="1000" on="1"/>
        <pt x="549" y="200" on="1"/>
        <pt x="819" y="178" on="1"/>
        <pt x="993" y="453" on="1"/>
        <pt x="1159" y="430" on="1"/>
        <pt x="1112" y="0" on="1"/>
      </contour>
      <contour>
        <pt x="822" y="732" on="1"/>
        <pt x="903" y="759" on="0"/>
        <pt x="987" y="860" on="0"/>
        <pt x="987" y="952" on="0"/>
        <pt x="937" y="1001" on="0"/>
        <pt x="872" y="1001" on="0"/>
        <pt x="846" y="988" on="1"/>
        <pt x="815" y="1040" on="0"/>
        <pt x="815" y="1087" on="1"/>
        <pt x="815" y="1174" on="0"/>
        <pt x="927" y="1269" on="0"/>
        <pt x="1017" y="1269" on="1"/>
        <pt x="1260" y="1269" on="0"/>
        <pt x="1260" y="1003" on="1"/>
        <pt x="1260" y="873" on="0"/>
        <pt x="1166" y="762" on="1"/>
        <pt x="1065" y="642" on="0"/>
        <pt x="866" y="614" on="1"/>
      </contour>
    </TTGlyph>
    <TTGlyph name="Lcommaaccent" xMin="0" yMin="-427" xMax="1159" yMax="1245">
      <contour>
        <pt x="0" y="0" on="1"/>
        <pt x="16" y="138" on="1"/>
        <pt x="176" y="217" on="1"/>
        <pt x="176" y="998" on="1"/>
        <pt x="4" y="1098" on="1"/>
        <pt x="23" y="1245" on="1"/>
        <pt x="766" y="1245" on="1"/>
        <pt x="745" y="1098" on="1"/>
        <pt x="549" y="1000" on="1"/>
        <pt x="549" y="200" on="1"/>
        <pt x="819" y="178" on="1"/>
        <pt x="993" y="453" on="1"/>
        <pt x="1159" y="430" on="1"/>
        <pt x="1112" y="0" on="1"/>
      </contour>
      <contour>
        <pt x="376" y="-248" on="1"/>
        <pt x="399" y="-122" on="0"/>
        <pt x="576" y="-122" on="1"/>
        <pt x="652" y="-122" on="0"/>
        <pt x="744" y="-192" on="0"/>
        <pt x="744" y="-316" on="0"/>
        <pt x="693" y="-358" on="1"/>
        <pt x="594" y="-438" on="0"/>
        <pt x="402" y="-427" on="1"/>
        <pt x="380" y="-367" on="1"/>
        <pt x="420" y="-361" on="0"/>
        <pt x="488" y="-325" on="0"/>
        <pt x="488" y="-284" on="0"/>
        <pt x="418" y="-254" on="0"/>
      </contour>
    </TTGlyph>
    <TTGlyph name="Lslash" xMin="0" yMin="0" xMax="1159" yMax="1245">
      <contour>
        <pt x="35" y="453" on="1"/>
        <pt x="31" y="628" on="1"/>
        <pt x="176" y="672" on="1"/>
        <pt x="176" y="998" on="1"/>
        <pt x="4" y="1098" on="1"/>
        <pt x="23" y="1245" on="1"/>
        <pt x="766" y="1245" on="1"/>
        <pt x="745" y="1098" on="1"/>
        <pt x="549" y="1000" on="1"/>
        <pt x="549" y="784" on="1"/>
        <pt x="767" y="850" on="1"/>
        <pt x="768" y="678" on="1"/>
        <pt x="549" y="611" on="1"/>
        <pt x="549" y="200" on="1"/>
        <pt x="819" y="178" on="1"/>
        <pt x="993" y="453" on="1"/>
        <pt x="1159" y="430" on="1"/>
        <pt x="1112" y="0" on="1"/>
        <pt x="0" y="0" on="1"/>
        <pt x="16" y="138" on="1"/>
        <pt x="176" y="217" on="1"/>
        <pt x="176" y="496" on="1"/>
      </contour>
    </TTGlyph>
    <TTGlyph name="M" xMin="0" yMin="-8" xMax="1804" yMax="1244">
      <contour>
        <pt x="0" y="0" on="1"/>
        <pt x="21" y="154" on="1"/>
        <pt x="189" y="233" on="1"/>
        <pt x="247" y="1030" on="1"/>
        <pt x="63" y="1087" on="1"/>
        <pt x="79" y="1244" on="1"/>
        <pt x="696" y="1244" on="1"/>
        <pt x="767" y="1039" on="1"/>
        <pt x="915" y="543" on="1"/>
        <pt x="1071" y="1041" on="1"/>
        <pt x="1138" y="1244" on="1"/>
        <pt x="1738" y="1244" on="1"/>
        <pt x="1720" y="1087" on="1"/>
        <pt x="1558" y="1033" on="1"/>
        <pt x="1628" y="229" on="1"/>
        <pt x="1804" y="161" on="1"/>
        <pt x="1790" y="0" on="1"/>
        <pt x="1149" y="0" on="1"/>
        <pt x="1172" y="154" on="1"/>
        <pt x="1284" y="233" on="1"/>
        <pt x="1231" y="776" on="1"/>
        <pt x="1006" y="31" on="1"/>
        <pt x="723" y="-8" on="1"/>
        <pt x="484" y="787" on="1"/>
        <pt x="451" y="229" on="1"/>
        <pt x="580" y="161" on="1"/>
        <pt x="555" y="0" on="1"/>
      </contour>
    </TTGlyph>
    <TTGlyph name="N" xMin="0" yMin="-29" xMax="1403" yMax="1244">
      <contour>
        <pt x="4" y="1087" on="1"/>
        <pt x="18" y="1244" on="1"/>
        <pt x="458" y="1244" on="1"/>
        <pt x="990" y="532" on="1"/>
        <pt x="990" y="1020" on="1"/>
        <pt x="802" y="1094" on="1"/>
        <pt x="826" y="1244" on="1"/>
        <pt x="1403" y="1244" on="1"/>
        <pt x="1378" y="1094" on="1"/>
        <pt x="1210" y="1027" on="1"/>
        <pt x="1210" y="15" on="1"/>
        <pt x="927" y="-29" on="1"/>
        <pt x="414" y="619" on="1"/>
        <pt x="414" y="211" on="1"/>
        <pt x="594" y="148" on="1"/>
        <pt x="581" y="0" on="1"/>
        <pt x="0" y="0" on="1"/>
        <pt x="10" y="138" on="1"/>
        <pt x="181" y="217" on="1"/>
        <pt x="181" y="1003" on="1"/>
      </contour>
    </TTGlyph>
    <TTGlyph name="Nacute" xMin="0" yMin="-29" xMax="1403" yMax="1727">
      <contour>
        <pt x="4" y="1087" on="1"/>
        <pt x="18" y="1244" on="1"/>
        <pt x="458" y="1244" on="1"/>
        <pt x="990" y="532" on="1"/>
        <pt x="990" y="1020" on="1"/>
        <pt x="802" y="1094" on="1"/>
        <pt x="826" y="1244" on="1"/>
        <pt x="1403" y="1244" on="1"/>
        <pt x="1378" y="1094" on="1"/>
        <pt x="1210" y="1027" on="1"/>
        <pt x="1210" y="15" on="1"/>
        <pt x="927" y="-29" on="1"/>
        <pt x="414" y="619" on="1"/>
        <pt x="414" y="211" on="1"/>
        <pt x="594" y="148" on="1"/>
        <pt x="581" y="0" on="1"/>
        <pt x="0" y="0" on="1"/>
        <pt x="10" y="138" on="1"/>
        <pt x="181" y="217" on="1"/>
        <pt x="181" y="1003" on="1"/>
      </contour>
      <contour>
        <pt x="572" y="1402" on="1"/>
        <pt x="728" y="1727" on="1"/>
        <pt x="948" y="1713" on="1"/>
        <pt x="716" y="1381" on="1"/>
      </contour>
    </TTGlyph>
    <TTGlyph name="Ncaron" xMin="0" yMin="-29" xMax="1403" yMax="1634">
      <contour>
        <pt x="4" y="1087" on="1"/>
        <pt x="18" y="1244" on="1"/>
        <pt x="458" y="1244" on="1"/>
        <pt x="990" y="532" on="1"/>
        <pt x="990" y="1020" on="1"/>
        <pt x="802" y="1094" on="1"/>
        <pt x="826" y="1244" on="1"/>
        <pt x="1403" y="1244" on="1"/>
        <pt x="1378" y="1094" on="1"/>
        <pt x="1210" y="1027" on="1"/>
        <pt x="1210" y="15" on="1"/>
        <pt x="927" y="-29" on="1"/>
        <pt x="414" y="619" on="1"/>
        <pt x="414" y="211" on="1"/>
        <pt x="594" y="148" on="1"/>
        <pt x="581" y="0" on="1"/>
        <pt x="0" y="0" on="1"/>
        <pt x="10" y="138" on="1"/>
        <pt x="181" y="217" on="1"/>
        <pt x="181" y="1003" on="1"/>
      </contour>
      <contour>
        <pt x="372" y="1597" on="1"/>
        <pt x="556" y="1634" on="1"/>
        <pt x="670" y="1549" on="1"/>
        <pt x="680" y="1549" on="1"/>
        <pt x="776" y="1631" on="1"/>
        <pt x="948" y="1602" on="1"/>
        <pt x="738" y="1401" on="1"/>
        <pt x="580" y="1391" on="1"/>
      </contour>
    </TTGlyph>
    <TTGlyph name="Ncommaaccent" xMin="0" yMin="-384" xMax="1403" yMax="1244">
      <contour>
        <pt x="4" y="1087" on="1"/>
        <pt x="18" y="1244" on="1"/>
        <pt x="458" y="1244" on="1"/>
        <pt x="990" y="532" on="1"/>
        <pt x="990" y="1020" on="1"/>
        <pt x="802" y="1094" on="1"/>
        <pt x="826" y="1244" on="1"/>
        <pt x="1403" y="1244" on="1"/>
        <pt x="1378" y="1094" on="1"/>
        <pt x="1210" y="1027" on="1"/>
        <pt x="1210" y="15" on="1"/>
        <pt x="927" y="-29" on="1"/>
        <pt x="414" y="619" on="1"/>
        <pt x="414" y="211" on="1"/>
        <pt x="594" y="148" on="1"/>
        <pt x="581" y="0" on="1"/>
        <pt x="0" y="0" on="1"/>
        <pt x="10" y="138" on="1"/>
        <pt x="181" y="217" on="1"/>
        <pt x="181" y="1003" on="1"/>
      </contour>
      <contour>
        <pt x="538" y="-205" on="1"/>
        <pt x="561" y="-79" on="0"/>
        <pt x="740" y="-79" on="1"/>
        <pt x="816" y="-79" on="0"/>
        <pt x="908" y="-149" on="0"/>
        <pt x="908" y="-273" on="0"/>
        <pt x="856" y="-314" on="1"/>
        <pt x="757" y="-395" on="0"/>
        <pt x="564" y="-384" on="1"/>
        <pt x="542" y="-324" on="1"/>
        <pt x="582" y="-318" on="0"/>
        <pt x="650" y="-282" on="0"/>
        <pt x="650" y="-241" on="0"/>
        <pt x="580" y="-211" on="0"/>
      </contour>
    </TTGlyph>
    <TTGlyph name="Ntilde" xMin="0" yMin="-29" xMax="1403" yMax="1647">
      <contour>
        <pt x="4" y="1087" on="1"/>
        <pt x="18" y="1244" on="1"/>
        <pt x="458" y="1244" on="1"/>
        <pt x="990" y="532" on="1"/>
        <pt x="990" y="1020" on="1"/>
        <pt x="802" y="1094" on="1"/>
        <pt x="826" y="1244" on="1"/>
        <pt x="1403" y="1244" on="1"/>
        <pt x="1378" y="1094" on="1"/>
        <pt x="1210" y="1027" on="1"/>
        <pt x="1210" y="15" on="1"/>
        <pt x="927" y="-29" on="1"/>
        <pt x="414" y="619" on="1"/>
        <pt x="414" y="211" on="1"/>
        <pt x="594" y="148" on="1"/>
        <pt x="581" y="0" on="1"/>
        <pt x="0" y="0" on="1"/>
        <pt x="10" y="138" on="1"/>
        <pt x="181" y="217" on="1"/>
        <pt x="181" y="1003" on="1"/>
      </contour>
      <contour>
        <pt x="389" y="1397" on="1"/>
        <pt x="376" y="1496" on="0"/>
        <pt x="426" y="1580" on="1"/>
        <pt x="450" y="1620" on="0"/>
        <pt x="547" y="1657" on="0"/>
        <pt x="612" y="1643" on="1"/>
        <pt x="839" y="1594" on="1"/>
        <pt x="859" y="1590" on="0"/>
        <pt x="894" y="1616" on="0"/>
        <pt x="909" y="1647" on="1"/>
        <pt x="1024" y="1636" on="1"/>
        <pt x="1023" y="1508" on="0"/>
        <pt x="894" y="1377" on="0"/>
        <pt x="776" y="1405" on="1"/>
        <pt x="567" y="1454" on="1"/>
        <pt x="543" y="1460" on="0"/>
        <pt x="513" y="1428" on="0"/>
        <pt x="507" y="1391" on="1"/>
      </contour>
    </TTGlyph>
    <TTGlyph name="O" xMin="0" yMin="-27" xMax="1462" yMax="1269">
      <contour>
        <pt x="736" y="163" on="1"/>
        <pt x="998" y="163" on="0"/>
        <pt x="998" y="573" on="1"/>
        <pt x="998" y="655" on="0"/>
        <pt x="969" y="835" on="0"/>
        <pt x="926" y="943" on="0"/>
        <pt x="896" y="990" on="1"/>
        <pt x="829" y="1094" on="0"/>
        <pt x="700" y="1094" on="1"/>
        <pt x="448" y="1094" on="0"/>
        <pt x="448" y="671" on="1"/>
        <pt x="448" y="553" on="0"/>
        <pt x="500" y="357" on="0"/>
        <pt x="560" y="242" on="0"/>
        <pt x="668" y="163" on="0"/>
      </contour>
      <contour>
        <pt x="0" y="326" on="0"/>
        <pt x="0" y="912" on="0"/>
        <pt x="405" y="1269" on="0"/>
        <pt x="753" y="1269" on="1"/>
        <pt x="1302" y="1269" on="0"/>
        <pt x="1428" y="865" on="1"/>
        <pt x="1462" y="754" on="0"/>
        <pt x="1462" y="460" on="0"/>
        <pt x="1341" y="215" on="0"/>
        <pt x="1236" y="136" on="1"/>
        <pt x="1018" y="-27" on="0"/>
        <pt x="683" y="-27" on="1"/>
        <pt x="337" y="-27" on="0"/>
        <pt x="164" y="154" on="1"/>
      </contour>
    </TTGlyph>
    <TTGlyph name="OE" xMin="0" yMin="-27" xMax="1832" yMax="1269">
      <contour>
        <pt x="487" y="1031" on="0"/>
        <pt x="447" y="835" on="0"/>
        <pt x="447" y="632" on="0"/>
        <pt x="451" y="552" on="0"/>
        <pt x="463" y="435" on="0"/>
        <pt x="491" y="337" on="0"/>
        <pt x="511" y="292" on="1"/>
        <pt x="554" y="195" on="0"/>
        <pt x="640" y="195" on="1"/>
        <pt x="694" y="195" on="0"/>
        <pt x="765" y="240" on="1"/>
        <pt x="765" y="1058" on="1"/>
        <pt x="655" y="1104" on="0"/>
        <pt x="554" y="1104" on="0"/>
      </contour>
      <contour>
        <pt x="0" y="619" on="1"/>
        <pt x="0" y="1004" on="0"/>
        <pt x="197" y="1156" on="1"/>
        <pt x="343" y="1269" on="0"/>
        <pt x="607" y="1269" on="1"/>
        <pt x="727" y="1269" on="0"/>
        <pt x="806" y="1241" on="1"/>
        <pt x="1747" y="1244" on="1"/>
        <pt x="1717" y="826" on="1"/>
        <pt x="1546" y="852" on="1"/>
        <pt x="1463" y="1072" on="1"/>
        <pt x="1134" y="1072" on="1"/>
        <pt x="1134" y="712" on="1"/>
        <pt x="1324" y="728" on="1"/>
        <pt x="1570" y="749" on="1"/>
        <pt x="1535" y="502" on="1"/>
        <pt x="1320" y="522" on="1"/>
        <pt x="1300" y="525" on="1"/>
        <pt x="1134" y="540" on="1"/>
        <pt x="1134" y="178" on="1"/>
        <pt x="1521" y="180" on="1"/>
        <pt x="1667" y="428" on="1"/>
        <pt x="1832" y="411" on="1"/>
        <pt x="1802" y="0" on="1"/>
        <pt x="761" y="0" on="1"/>
        <pt x="665" y="-27" on="0"/>
        <pt x="536" y="-27" on="1"/>
        <pt x="258" y="-27" on="0"/>
        <pt x="0" y="303" on="0"/>
      </contour>
    </TTGlyph>
    <TTGlyph name="Oacute" xMin="0" yMin="-27" xMax="1462" yMax="1727">
      <contour>
        <pt x="736" y="163" on="1"/>
        <pt x="998" y="163" on="0"/>
        <pt x="998" y="573" on="1"/>
        <pt x="998" y="655" on="0"/>
        <pt x="969" y="835" on="0"/>
        <pt x="926" y="943" on="0"/>
        <pt x="896" y="990" on="1"/>
        <pt x="829" y="1094" on="0"/>
        <pt x="700" y="1094" on="1"/>
        <pt x="448" y="1094" on="0"/>
        <pt x="448" y="671" on="1"/>
        <pt x="448" y="553" on="0"/>
        <pt x="500" y="357" on="0"/>
        <pt x="560" y="242" on="0"/>
        <pt x="668" y="163" on="0"/>
      </contour>
      <contour>
        <pt x="0" y="326" on="0"/>
        <pt x="0" y="912" on="0"/>
        <pt x="405" y="1269" on="0"/>
        <pt x="753" y="1269" on="1"/>
        <pt x="1302" y="1269" on="0"/>
        <pt x="1428" y="865" on="1"/>
        <pt x="1462" y="754" on="0"/>
        <pt x="1462" y="460" on="0"/>
        <pt x="1341" y="215" on="0"/>
        <pt x="1236" y="136" on="1"/>
        <pt x="1018" y="-27" on="0"/>
        <pt x="683" y="-27" on="1"/>
        <pt x="337" y="-27" on="0"/>
        <pt x="164" y="154" on="1"/>
      </contour>
      <contour>
        <pt x="635" y="1402" on="1"/>
        <pt x="790" y="1727" on="1"/>
        <pt x="1010" y="1713" on="1"/>
        <pt x="779" y="1381" on="1"/>
      </contour>
    </TTGlyph>
    <TTGlyph name="Ocircumflex" xMin="0" yMin="-27" xMax="1462" yMax="1616">
      <contour>
        <pt x="736" y="163" on="1"/>
        <pt x="998" y="163" on="0"/>
        <pt x="998" y="573" on="1"/>
        <pt x="998" y="655" on="0"/>
        <pt x="969" y="835" on="0"/>
        <pt x="926" y="943" on="0"/>
        <pt x="896" y="990" on="1"/>
        <pt x="829" y="1094" on="0"/>
        <pt x="700" y="1094" on="1"/>
        <pt x="448" y="1094" on="0"/>
        <pt x="448" y="671" on="1"/>
        <pt x="448" y="553" on="0"/>
        <pt x="500" y="357" on="0"/>
        <pt x="560" y="242" on="0"/>
        <pt x="668" y="163" on="0"/>
      </contour>
      <contour>
        <pt x="0" y="326" on="0"/>
        <pt x="0" y="912" on="0"/>
        <pt x="405" y="1269" on="0"/>
        <pt x="753" y="1269" on="1"/>
        <pt x="1302" y="1269" on="0"/>
        <pt x="1428" y="865" on="1"/>
        <pt x="1462" y="754" on="0"/>
        <pt x="1462" y="460" on="0"/>
        <pt x="1341" y="215" on="0"/>
        <pt x="1236" y="136" on="1"/>
        <pt x="1018" y="-27" on="0"/>
        <pt x="683" y="-27" on="1"/>
        <pt x="337" y="-27" on="0"/>
        <pt x="164" y="154" on="1"/>
      </contour>
      <contour>
        <pt x="462" y="1401" on="1"/>
        <pt x="633" y="1596" on="1"/>
        <pt x="810" y="1616" on="1"/>
        <pt x="1014" y="1411" on="1"/>
        <pt x="863" y="1352" on="1"/>
        <pt x="724" y="1453" on="1"/>
        <pt x="710" y="1453" on="1"/>
        <pt x="607" y="1351" on="1"/>
      </contour>
    </TTGlyph>
    <TTGlyph name="Odieresis" xMin="0" yMin="-27" xMax="1462" yMax="1605">
      <contour>
        <pt x="736" y="163" on="1"/>
        <pt x="998" y="163" on="0"/>
        <pt x="998" y="573" on="1"/>
        <pt x="998" y="655" on="0"/>
        <pt x="969" y="835" on="0"/>
        <pt x="926" y="943" on="0"/>
        <pt x="896" y="990" on="1"/>
        <pt x="829" y="1094" on="0"/>
        <pt x="700" y="1094" on="1"/>
        <pt x="448" y="1094" on="0"/>
        <pt x="448" y="671" on="1"/>
        <pt x="448" y="553" on="0"/>
        <pt x="500" y="357" on="0"/>
        <pt x="560" y="242" on="0"/>
        <pt x="668" y="163" on="0"/>
      </contour>
      <contour>
        <pt x="0" y="326" on="0"/>
        <pt x="0" y="912" on="0"/>
        <pt x="405" y="1269" on="0"/>
        <pt x="753" y="1269" on="1"/>
        <pt x="1302" y="1269" on="0"/>
        <pt x="1428" y="865" on="1"/>
        <pt x="1462" y="754" on="0"/>
        <pt x="1462" y="460" on="0"/>
        <pt x="1341" y="215" on="0"/>
        <pt x="1236" y="136" on="1"/>
        <pt x="1018" y="-27" on="0"/>
        <pt x="683" y="-27" on="1"/>
        <pt x="337" y="-27" on="0"/>
        <pt x="164" y="154" on="1"/>
      </contour>
      <contour>
        <pt x="454" y="1498" on="1"/>
        <pt x="454" y="1540" on="0"/>
        <pt x="519" y="1605" on="0"/>
        <pt x="669" y="1605" on="0"/>
        <pt x="736" y="1542" on="0"/>
        <pt x="736" y="1500" on="1"/>
        <pt x="736" y="1391" on="0"/>
        <pt x="454" y="1391" on="0"/>
      </contour>
      <contour>
        <pt x="763" y="1498" on="1"/>
        <pt x="763" y="1540" on="0"/>
        <pt x="828" y="1605" on="0"/>
        <pt x="978" y="1605" on="0"/>
        <pt x="1045" y="1542" on="0"/>
        <pt x="1045" y="1500" on="1"/>
        <pt x="1045" y="1391" on="0"/>
        <pt x="763" y="1391" on="0"/>
      </contour>
    </TTGlyph>
    <TTGlyph name="Ograve" xMin="0" yMin="-27" xMax="1462" yMax="1770">
      <contour>
        <pt x="736" y="163" on="1"/>
        <pt x="998" y="163" on="0"/>
        <pt x="998" y="573" on="1"/>
        <pt x="998" y="655" on="0"/>
        <pt x="969" y="835" on="0"/>
        <pt x="926" y="943" on="0"/>
        <pt x="896" y="990" on="1"/>
        <pt x="829" y="1094" on="0"/>
        <pt x="700" y="1094" on="1"/>
        <pt x="448" y="1094" on="0"/>
        <pt x="448" y="671" on="1"/>
        <pt x="448" y="553" on="0"/>
        <pt x="500" y="357" on="0"/>
        <pt x="560" y="242" on="0"/>
        <pt x="668" y="163" on="0"/>
      </contour>
      <contour>
        <pt x="0" y="326" on="0"/>
        <pt x="0" y="912" on="0"/>
        <pt x="405" y="1269" on="0"/>
        <pt x="753" y="1269" on="1"/>
        <pt x="1302" y="1269" on="0"/>
        <pt x="1428" y="865" on="1"/>
        <pt x="1462" y="754" on="0"/>
        <pt x="1462" y="460" on="0"/>
        <pt x="1341" y="215" on="0"/>
        <pt x="1236" y="136" on="1"/>
        <pt x="1018" y="-27" on="0"/>
        <pt x="683" y="-27" on="1"/>
        <pt x="337" y="-27" on="0"/>
        <pt x="164" y="154" on="1"/>
      </contour>
      <contour>
        <pt x="484" y="1730" on="1"/>
        <pt x="702" y="1770" on="1"/>
        <pt x="852" y="1422" on="1"/>
        <pt x="693" y="1391" on="1"/>
      </contour>
    </TTGlyph>
    <TTGlyph name="Ohungarumlaut" xMin="0" yMin="-27" xMax="1462" yMax="1685">
      <contour>
        <pt x="736" y="163" on="1"/>
        <pt x="998" y="163" on="0"/>
        <pt x="998" y="573" on="1"/>
        <pt x="998" y="655" on="0"/>
        <pt x="969" y="835" on="0"/>
        <pt x="926" y="943" on="0"/>
        <pt x="896" y="990" on="1"/>
        <pt x="829" y="1094" on="0"/>
        <pt x="700" y="1094" on="1"/>
        <pt x="448" y="1094" on="0"/>
        <pt x="448" y="671" on="1"/>
        <pt x="448" y="553" on="0"/>
        <pt x="500" y="357" on="0"/>
        <pt x="560" y="242" on="0"/>
        <pt x="668" y="163" on="0"/>
      </contour>
      <contour>
        <pt x="0" y="326" on="0"/>
        <pt x="0" y="912" on="0"/>
        <pt x="405" y="1269" on="0"/>
        <pt x="753" y="1269" on="1"/>
        <pt x="1302" y="1269" on="0"/>
        <pt x="1428" y="865" on="1"/>
        <pt x="1462" y="754" on="0"/>
        <pt x="1462" y="460" on="0"/>
        <pt x="1341" y="215" on="0"/>
        <pt x="1236" y="136" on="1"/>
        <pt x="1018" y="-27" on="0"/>
        <pt x="683" y="-27" on="1"/>
        <pt x="337" y="-27" on="0"/>
        <pt x="164" y="154" on="1"/>
      </contour>
      <contour>
        <pt x="669" y="1430" on="1"/>
        <pt x="927" y="1682" on="1"/>
        <pt x="1136" y="1654" on="1"/>
        <pt x="804" y="1391" on="1"/>
      </contour>
      <contour>
        <pt x="391" y="1430" on="1"/>
        <pt x="670" y="1685" on="1"/>
        <pt x="875" y="1661" on="1"/>
        <pt x="530" y="1391" on="1"/>
      </contour>
    </TTGlyph>
    <TTGlyph name="Omacron" xMin="0" yMin="-27" xMax="1462" yMax="1586">
      <contour>
        <pt x="736" y="163" on="1"/>
        <pt x="998" y="163" on="0"/>
        <pt x="998" y="573" on="1"/>
        <pt x="998" y="655" on="0"/>
        <pt x="969" y="835" on="0"/>
        <pt x="926" y="943" on="0"/>
        <pt x="896" y="990" on="1"/>
        <pt x="829" y="1094" on="0"/>
        <pt x="700" y="1094" on="1"/>
        <pt x="448" y="1094" on="0"/>
        <pt x="448" y="671" on="1"/>
        <pt x="448" y="553" on="0"/>
        <pt x="500" y="357" on="0"/>
        <pt x="560" y="242" on="0"/>
        <pt x="668" y="163" on="0"/>
      </contour>
      <contour>
        <pt x="0" y="326" on="0"/>
        <pt x="0" y="912" on="0"/>
        <pt x="405" y="1269" on="0"/>
        <pt x="753" y="1269" on="1"/>
        <pt x="1302" y="1269" on="0"/>
        <pt x="1428" y="865" on="1"/>
        <pt x="1462" y="754" on="0"/>
        <pt x="1462" y="460" on="0"/>
        <pt x="1341" y="215" on="0"/>
        <pt x="1236" y="136" on="1"/>
        <pt x="1018" y="-27" on="0"/>
        <pt x="683" y="-27" on="1"/>
        <pt x="337" y="-27" on="0"/>
        <pt x="164" y="154" on="1"/>
      </contour>
      <contour>
        <pt x="476" y="1391" on="1"/>
        <pt x="497" y="1586" on="1"/>
        <pt x="950" y="1586" on="1"/>
        <pt x="928" y="1391" on="1"/>
      </contour>
    </TTGlyph>
    <TTGlyph name="Oslash" xMin="0" yMin="-27" xMax="1462" yMax="1282">
      <contour>
        <pt x="142" y="179" on="1"/>
        <pt x="0" y="345" on="0"/>
        <pt x="0" y="912" on="0"/>
        <pt x="405" y="1269" on="0"/>
        <pt x="753" y="1269" on="1"/>
        <pt x="947" y="1269" on="0"/>
        <pt x="1093" y="1216" on="1"/>
        <pt x="1163" y="1282" on="1"/>
        <pt x="1406" y="1231" on="1"/>
        <pt x="1282" y="1104" on="1"/>
        <pt x="1462" y="938" on="0"/>
        <pt x="1462" y="613" on="1"/>
        <pt x="1462" y="460" on="0"/>
        <pt x="1341" y="215" on="0"/>
        <pt x="1236" y="136" on="1"/>
        <pt x="1018" y="-27" on="0"/>
        <pt x="683" y="-27" on="1"/>
        <pt x="472" y="-27" on="0"/>
        <pt x="322" y="44" on="1"/>
        <pt x="266" y="-19" on="1"/>
        <pt x="20" y="44" on="1"/>
      </contour>
      <contour>
        <pt x="736" y="163" on="1"/>
        <pt x="998" y="163" on="0"/>
        <pt x="998" y="573" on="1"/>
        <pt x="998" y="726" on="0"/>
        <pt x="960" y="851" on="1"/>
        <pt x="525" y="309" on="1"/>
        <pt x="601" y="163" on="0"/>
      </contour>
      <contour>
        <pt x="922" y="946" on="1"/>
        <pt x="845" y="1094" on="0"/>
        <pt x="570" y="1094" on="0"/>
        <pt x="448" y="877" on="0"/>
        <pt x="448" y="537" on="0"/>
        <pt x="486" y="410" on="1"/>
      </contour>
    </TTGlyph>
    <TTGlyph name="Otilde" xMin="0" yMin="-27" xMax="1462" yMax="1647">
      <contour>
        <pt x="736" y="163" on="1"/>
        <pt x="998" y="163" on="0"/>
        <pt x="998" y="573" on="1"/>
        <pt x="998" y="655" on="0"/>
        <pt x="969" y="835" on="0"/>
        <pt x="926" y="943" on="0"/>
        <pt x="896" y="990" on="1"/>
        <pt x="829" y="1094" on="0"/>
        <pt x="700" y="1094" on="1"/>
        <pt x="448" y="1094" on="0"/>
        <pt x="448" y="671" on="1"/>
        <pt x="448" y="553" on="0"/>
        <pt x="500" y="357" on="0"/>
        <pt x="560" y="242" on="0"/>
        <pt x="668" y="163" on="0"/>
      </contour>
      <contour>
        <pt x="0" y="326" on="0"/>
        <pt x="0" y="912" on="0"/>
        <pt x="405" y="1269" on="0"/>
        <pt x="753" y="1269" on="1"/>
        <pt x="1302" y="1269" on="0"/>
        <pt x="1428" y="865" on="1"/>
        <pt x="1462" y="754" on="0"/>
        <pt x="1462" y="460" on="0"/>
        <pt x="1341" y="215" on="0"/>
        <pt x="1236" y="136" on="1"/>
        <pt x="1018" y="-27" on="0"/>
        <pt x="683" y="-27" on="1"/>
        <pt x="337" y="-27" on="0"/>
        <pt x="164" y="154" on="1"/>
      </contour>
      <contour>
        <pt x="411" y="1397" on="1"/>
        <pt x="398" y="1496" on="0"/>
        <pt x="448" y="1580" on="1"/>
        <pt x="472" y="1620" on="0"/>
        <pt x="569" y="1657" on="0"/>
        <pt x="634" y="1643" on="1"/>
        <pt x="861" y="1594" on="1"/>
        <pt x="881" y="1590" on="0"/>
        <pt x="916" y="1616" on="0"/>
        <pt x="931" y="1647" on="1"/>
        <pt x="1046" y="1636" on="1"/>
        <pt x="1045" y="1508" on="0"/>
        <pt x="916" y="1377" on="0"/>
        <pt x="798" y="1405" on="1"/>
        <pt x="589" y="1454" on="1"/>
        <pt x="565" y="1460" on="0"/>
        <pt x="535" y="1428" on="0"/>
        <pt x="529" y="1391" on="1"/>
      </contour>
    </TTGlyph>
    <TTGlyph name="P" xMin="0" yMin="0" xMax="1195" yMax="1267">
      <contour>
        <pt x="0" y="0" on="1"/>
        <pt x="22" y="138" on="1"/>
        <pt x="209" y="217" on="1"/>
        <pt x="209" y="1008" on="1"/>
        <pt x="19" y="1052" on="1"/>
        <pt x="32" y="1211" on="1"/>
        <pt x="225" y="1241" on="0"/>
        <pt x="497" y="1267" on="0"/>
        <pt x="800" y="1267" on="0"/>
        <pt x="983" y="1228" on="0"/>
        <pt x="1053" y="1184" on="1"/>
        <pt x="1195" y="1095" on="0"/>
        <pt x="1195" y="878" on="1"/>
        <pt x="1195" y="694" on="0"/>
        <pt x="918" y="443" on="0"/>
        <pt x="698" y="443" on="1"/>
        <pt x="664" y="443" on="0"/>
        <pt x="617" y="448" on="1"/>
        <pt x="585" y="622" on="1"/>
        <pt x="606" y="622" on="1"/>
        <pt x="714" y="622" on="0"/>
        <pt x="825" y="735" on="0"/>
        <pt x="825" y="927" on="0"/>
        <pt x="725" y="1054" on="0"/>
        <pt x="630" y="1054" on="1"/>
        <pt x="603" y="1054" on="0"/>
        <pt x="563" y="1047" on="1"/>
        <pt x="563" y="233" on="1"/>
        <pt x="814" y="164" on="1"/>
        <pt x="790" y="0" on="1"/>
      </contour>
    </TTGlyph>
    <TTGlyph name="Q" xMin="0" yMin="-383" xMax="1451" yMax="1269">
      <contour>
        <pt x="435" y="671" on="1"/>
        <pt x="435" y="491" on="0"/>
        <pt x="527" y="338" on="1"/>
        <pt x="572" y="264" on="0"/>
        <pt x="719" y="161" on="0"/>
        <pt x="811" y="148" on="1"/>
        <pt x="921" y="204" on="0"/>
        <pt x="1001" y="409" on="0"/>
        <pt x="1001" y="573" on="1"/>
        <pt x="1001" y="845" on="0"/>
        <pt x="889" y="999" on="1"/>
        <pt x="820" y="1094" on="0"/>
        <pt x="697" y="1094" on="1"/>
        <pt x="435" y="1094" on="0"/>
      </contour>
      <contour>
        <pt x="0" y="609" on="1"/>
        <pt x="0" y="752" on="0"/>
        <pt x="110" y="997" on="0"/>
        <pt x="306" y="1171" on="0"/>
        <pt x="588" y="1269" on="0"/>
        <pt x="914" y="1269" on="0"/>
        <pt x="1164" y="1194" on="0"/>
        <pt x="1258" y="1118" on="1"/>
        <pt x="1451" y="959" on="0"/>
        <pt x="1451" y="623" on="1"/>
        <pt x="1451" y="394" on="0"/>
        <pt x="1312" y="228" on="1"/>
        <pt x="1179" y="71" on="0"/>
        <pt x="993" y="16" on="1"/>
        <pt x="1075" y="-133" on="0"/>
        <pt x="1428" y="-200" on="1"/>
        <pt x="1407" y="-335" on="1"/>
        <pt x="1265" y="-383" on="0"/>
        <pt x="1034" y="-383" on="0"/>
        <pt x="885" y="-342" on="0"/>
        <pt x="768" y="-260" on="0"/>
        <pt x="712" y="-118" on="0"/>
        <pt x="724" y="-26" on="1"/>
        <pt x="707" y="-27" on="0"/>
        <pt x="685" y="-27" on="1"/>
        <pt x="356" y="-27" on="0"/>
        <pt x="176" y="148" on="1"/>
        <pt x="0" y="321" on="0"/>
      </contour>
    </TTGlyph>
    <TTGlyph name="R" xMin="0" yMin="-27" xMax="1456" yMax="1255">
      <contour>
        <pt x="732" y="668" on="1"/>
        <pt x="851" y="733" on="0"/>
        <pt x="851" y="860" on="1"/>
        <pt x="851" y="949" on="0"/>
        <pt x="718" y="1075" on="0"/>
        <pt x="612" y="1075" on="1"/>
        <pt x="590" y="1075" on="0"/>
        <pt x="579" y="1074" on="1"/>
        <pt x="579" y="668" on="1"/>
      </contour>
      <contour>
        <pt x="0" y="0" on="1"/>
        <pt x="19" y="138" on="1"/>
        <pt x="209" y="217" on="1"/>
        <pt x="209" y="996" on="1"/>
        <pt x="17" y="1043" on="1"/>
        <pt x="29" y="1203" on="1"/>
        <pt x="140" y="1221" on="0"/>
        <pt x="557" y="1255" on="0"/>
        <pt x="666" y="1255" on="1"/>
        <pt x="963" y="1255" on="0"/>
        <pt x="1252" y="1096" on="0"/>
        <pt x="1252" y="908" on="1"/>
        <pt x="1252" y="730" on="0"/>
        <pt x="1066" y="607" on="1"/>
        <pt x="1020" y="577" on="0"/>
        <pt x="976" y="562" on="1"/>
        <pt x="976" y="561" on="1"/>
        <pt x="1097" y="400" on="1"/>
        <pt x="1225" y="230" on="0"/>
        <pt x="1318" y="179" on="1"/>
        <pt x="1364" y="154" on="0"/>
        <pt x="1417" y="142" on="1"/>
        <pt x="1456" y="133" on="1"/>
        <pt x="1425" y="2" on="1"/>
        <pt x="1329" y="-27" on="0"/>
        <pt x="1208" y="-27" on="1"/>
        <pt x="1035" y="-27" on="0"/>
        <pt x="820" y="131" on="0"/>
        <pt x="743" y="283" on="1"/>
        <pt x="653" y="459" on="1"/>
        <pt x="579" y="459" on="1"/>
        <pt x="579" y="229" on="1"/>
        <pt x="722" y="155" on="1"/>
        <pt x="710" y="0" on="1"/>
      </contour>
    </TTGlyph>
    <TTGlyph name="Racute" xMin="0" yMin="-27" xMax="1456" yMax="1727">
      <contour>
        <pt x="732" y="668" on="1"/>
        <pt x="851" y="733" on="0"/>
        <pt x="851" y="860" on="1"/>
        <pt x="851" y="949" on="0"/>
        <pt x="718" y="1075" on="0"/>
        <pt x="612" y="1075" on="1"/>
        <pt x="590" y="1075" on="0"/>
        <pt x="579" y="1074" on="1"/>
        <pt x="579" y="668" on="1"/>
      </contour>
      <contour>
        <pt x="0" y="0" on="1"/>
        <pt x="19" y="138" on="1"/>
        <pt x="209" y="217" on="1"/>
        <pt x="209" y="996" on="1"/>
        <pt x="17" y="1043" on="1"/>
        <pt x="29" y="1203" on="1"/>
        <pt x="140" y="1221" on="0"/>
        <pt x="557" y="1255" on="0"/>
        <pt x="666" y="1255" on="1"/>
        <pt x="963" y="1255" on="0"/>
        <pt x="1252" y="1096" on="0"/>
        <pt x="1252" y="908" on="1"/>
        <pt x="1252" y="730" on="0"/>
        <pt x="1066" y="607" on="1"/>
        <pt x="1020" y="577" on="0"/>
        <pt x="976" y="562" on="1"/>
        <pt x="976" y="561" on="1"/>
        <pt x="1097" y="400" on="1"/>
        <pt x="1225" y="230" on="0"/>
        <pt x="1318" y="179" on="1"/>
        <pt x="1364" y="154" on="0"/>
        <pt x="1417" y="142" on="1"/>
        <pt x="1456" y="133" on="1"/>
        <pt x="1425" y="2" on="1"/>
        <pt x="1329" y="-27" on="0"/>
        <pt x="1208" y="-27" on="1"/>
        <pt x="1035" y="-27" on="0"/>
        <pt x="820" y="131" on="0"/>
        <pt x="743" y="283" on="1"/>
        <pt x="653" y="459" on="1"/>
        <pt x="579" y="459" on="1"/>
        <pt x="579" y="229" on="1"/>
        <pt x="722" y="155" on="1"/>
        <pt x="710" y="0" on="1"/>
      </contour>
      <contour>
        <pt x="528" y="1402" on="1"/>
        <pt x="683" y="1727" on="1"/>
        <pt x="903" y="1713" on="1"/>
        <pt x="672" y="1381" on="1"/>
      </contour>
    </TTGlyph>
    <TTGlyph name="Rcaron" xMin="0" yMin="-27" xMax="1456" yMax="1634">
      <contour>
        <pt x="732" y="668" on="1"/>
        <pt x="851" y="733" on="0"/>
        <pt x="851" y="860" on="1"/>
        <pt x="851" y="949" on="0"/>
        <pt x="718" y="1075" on="0"/>
        <pt x="612" y="1075" on="1"/>
        <pt x="590" y="1075" on="0"/>
        <pt x="579" y="1074" on="1"/>
        <pt x="579" y="668" on="1"/>
      </contour>
      <contour>
        <pt x="0" y="0" on="1"/>
        <pt x="19" y="138" on="1"/>
        <pt x="209" y="217" on="1"/>
        <pt x="209" y="996" on="1"/>
        <pt x="17" y="1043" on="1"/>
        <pt x="29" y="1203" on="1"/>
        <pt x="140" y="1221" on="0"/>
        <pt x="557" y="1255" on="0"/>
        <pt x="666" y="1255" on="1"/>
        <pt x="963" y="1255" on="0"/>
        <pt x="1252" y="1096" on="0"/>
        <pt x="1252" y="908" on="1"/>
        <pt x="1252" y="730" on="0"/>
        <pt x="1066" y="607" on="1"/>
        <pt x="1020" y="577" on="0"/>
        <pt x="976" y="562" on="1"/>
        <pt x="976" y="561" on="1"/>
        <pt x="1097" y="400" on="1"/>
        <pt x="1225" y="230" on="0"/>
        <pt x="1318" y="179" on="1"/>
        <pt x="1364" y="154" on="0"/>
        <pt x="1417" y="142" on="1"/>
        <pt x="1456" y="133" on="1"/>
        <pt x="1425" y="2" on="1"/>
        <pt x="1329" y="-27" on="0"/>
        <pt x="1208" y="-27" on="1"/>
        <pt x="1035" y="-27" on="0"/>
        <pt x="820" y="131" on="0"/>
        <pt x="743" y="283" on="1"/>
        <pt x="653" y="459" on="1"/>
        <pt x="579" y="459" on="1"/>
        <pt x="579" y="229" on="1"/>
        <pt x="722" y="155" on="1"/>
        <pt x="710" y="0" on="1"/>
      </contour>
      <contour>
        <pt x="417" y="1597" on="1"/>
        <pt x="602" y="1634" on="1"/>
        <pt x="715" y="1549" on="1"/>
        <pt x="725" y="1549" on="1"/>
        <pt x="821" y="1631" on="1"/>
        <pt x="993" y="1602" on="1"/>
        <pt x="783" y="1401" on="1"/>
        <pt x="625" y="1391" on="1"/>
      </contour>
    </TTGlyph>
    <TTGlyph name="Rcommaaccent" xMin="0" yMin="-390" xMax="1456" yMax="1255">
      <contour>
        <pt x="732" y="668" on="1"/>
        <pt x="851" y="733" on="0"/>
        <pt x="851" y="860" on="1"/>
        <pt x="851" y="949" on="0"/>
        <pt x="718" y="1075" on="0"/>
        <pt x="612" y="1075" on="1"/>
        <pt x="590" y="1075" on="0"/>
        <pt x="579" y="1074" on="1"/>
        <pt x="579" y="668" on="1"/>
      </contour>
      <contour>
        <pt x="0" y="0" on="1"/>
        <pt x="19" y="138" on="1"/>
        <pt x="209" y="217" on="1"/>
        <pt x="209" y="996" on="1"/>
        <pt x="17" y="1043" on="1"/>
        <pt x="29" y="1203" on="1"/>
        <pt x="140" y="1221" on="0"/>
        <pt x="557" y="1255" on="0"/>
        <pt x="666" y="1255" on="1"/>
        <pt x="963" y="1255" on="0"/>
        <pt x="1252" y="1096" on="0"/>
        <pt x="1252" y="908" on="1"/>
        <pt x="1252" y="730" on="0"/>
        <pt x="1066" y="607" on="1"/>
        <pt x="1020" y="577" on="0"/>
        <pt x="976" y="562" on="1"/>
        <pt x="976" y="561" on="1"/>
        <pt x="1097" y="400" on="1"/>
        <pt x="1225" y="230" on="0"/>
        <pt x="1318" y="179" on="1"/>
        <pt x="1364" y="154" on="0"/>
        <pt x="1417" y="142" on="1"/>
        <pt x="1456" y="133" on="1"/>
        <pt x="1425" y="2" on="1"/>
        <pt x="1329" y="-27" on="0"/>
        <pt x="1208" y="-27" on="1"/>
        <pt x="1035" y="-27" on="0"/>
        <pt x="820" y="131" on="0"/>
        <pt x="743" y="283" on="1"/>
        <pt x="653" y="459" on="1"/>
        <pt x="579" y="459" on="1"/>
        <pt x="579" y="229" on="1"/>
        <pt x="722" y="155" on="1"/>
        <pt x="710" y="0" on="1"/>
      </contour>
      <contour>
        <pt x="628" y="-211" on="1"/>
        <pt x="651" y="-85" on="0"/>
        <pt x="828" y="-85" on="1"/>
        <pt x="904" y="-85" on="0"/>
        <pt x="996" y="-155" on="0"/>
        <pt x="996" y="-279" on="0"/>
        <pt x="945" y="-320" on="1"/>
        <pt x="846" y="-401" on="0"/>
        <pt x="654" y="-390" on="1"/>
        <pt x="632" y="-330" on="1"/>
        <pt x="672" y="-324" on="0"/>
        <pt x="740" y="-288" on="0"/>
        <pt x="740" y="-247" on="0"/>
        <pt x="670" y="-217" on="0"/>
      </contour>
    </TTGlyph>
    <TTGlyph name="S" xMin="0" yMin="-23" xMax="999" yMax="1266">
      <contour>
        <pt x="0" y="126" on="1"/>
        <pt x="34" y="488" on="1"/>
        <pt x="211" y="459" on="1"/>
        <pt x="253" y="272" on="1"/>
        <pt x="283" y="229" on="0"/>
        <pt x="410" y="181" on="0"/>
        <pt x="535" y="181" on="0"/>
        <pt x="605" y="240" on="0"/>
        <pt x="605" y="320" on="0"/>
        <pt x="539" y="383" on="0"/>
        <pt x="434" y="431" on="0"/>
        <pt x="306" y="480" on="0"/>
        <pt x="179" y="548" on="0"/>
        <pt x="126" y="591" on="1"/>
        <pt x="8" y="688" on="0"/>
        <pt x="8" y="857" on="1"/>
        <pt x="8" y="1094" on="0"/>
        <pt x="246" y="1204" on="1"/>
        <pt x="378" y="1266" on="0"/>
        <pt x="548" y="1266" on="1"/>
        <pt x="634" y="1266" on="0"/>
        <pt x="866" y="1211" on="0"/>
        <pt x="902" y="1176" on="1"/>
        <pt x="874" y="814" on="1"/>
        <pt x="701" y="844" on="1"/>
        <pt x="662" y="987" on="1"/>
        <pt x="630" y="1033" on="0"/>
        <pt x="508" y="1086" on="0"/>
        <pt x="395" y="1086" on="0"/>
        <pt x="341" y="1034" on="0"/>
        <pt x="341" y="951" on="0"/>
        <pt x="414" y="884" on="0"/>
        <pt x="530" y="831" on="0"/>
        <pt x="670" y="774" on="0"/>
        <pt x="810" y="699" on="0"/>
        <pt x="926" y="607" on="0"/>
        <pt x="999" y="467" on="0"/>
        <pt x="999" y="292" on="0"/>
        <pt x="920" y="147" on="0"/>
        <pt x="801" y="59" on="0"/>
        <pt x="725" y="30" on="1"/>
        <pt x="590" y="-23" on="0"/>
        <pt x="285" y="-23" on="0"/>
        <pt x="42" y="61" on="0"/>
      </contour>
    </TTGlyph>
    <TTGlyph name="Sacute" xMin="0" yMin="-23" xMax="999" yMax="1727">
      <contour>
        <pt x="0" y="126" on="1"/>
        <pt x="34" y="488" on="1"/>
        <pt x="211" y="459" on="1"/>
        <pt x="253" y="272" on="1"/>
        <pt x="283" y="229" on="0"/>
        <pt x="410" y="181" on="0"/>
        <pt x="535" y="181" on="0"/>
        <pt x="605" y="240" on="0"/>
        <pt x="605" y="320" on="0"/>
        <pt x="539" y="383" on="0"/>
        <pt x="434" y="431" on="0"/>
        <pt x="306" y="480" on="0"/>
        <pt x="179" y="548" on="0"/>
        <pt x="126" y="591" on="1"/>
        <pt x="8" y="688" on="0"/>
        <pt x="8" y="857" on="1"/>
        <pt x="8" y="1094" on="0"/>
        <pt x="246" y="1204" on="1"/>
        <pt x="378" y="1266" on="0"/>
        <pt x="548" y="1266" on="1"/>
        <pt x="634" y="1266" on="0"/>
        <pt x="866" y="1211" on="0"/>
        <pt x="902" y="1176" on="1"/>
        <pt x="874" y="814" on="1"/>
        <pt x="701" y="844" on="1"/>
        <pt x="662" y="987" on="1"/>
        <pt x="630" y="1033" on="0"/>
        <pt x="508" y="1086" on="0"/>
        <pt x="395" y="1086" on="0"/>
        <pt x="341" y="1034" on="0"/>
        <pt x="341" y="951" on="0"/>
        <pt x="414" y="884" on="0"/>
        <pt x="530" y="831" on="0"/>
        <pt x="670" y="774" on="0"/>
        <pt x="810" y="699" on="0"/>
        <pt x="926" y="607" on="0"/>
        <pt x="999" y="467" on="0"/>
        <pt x="999" y="292" on="0"/>
        <pt x="920" y="147" on="0"/>
        <pt x="801" y="59" on="0"/>
        <pt x="725" y="30" on="1"/>
        <pt x="590" y="-23" on="0"/>
        <pt x="285" y="-23" on="0"/>
        <pt x="42" y="61" on="0"/>
      </contour>
      <contour>
        <pt x="410" y="1402" on="1"/>
        <pt x="565" y="1727" on="1"/>
        <pt x="785" y="1713" on="1"/>
        <pt x="554" y="1381" on="1"/>
      </contour>
    </TTGlyph>
    <TTGlyph name="Scaron" xMin="0" yMin="-23" xMax="999" yMax="1634">
      <contour>
        <pt x="0" y="126" on="1"/>
        <pt x="34" y="488" on="1"/>
        <pt x="211" y="459" on="1"/>
        <pt x="253" y="272" on="1"/>
        <pt x="283" y="229" on="0"/>
        <pt x="410" y="181" on="0"/>
        <pt x="535" y="181" on="0"/>
        <pt x="605" y="240" on="0"/>
        <pt x="605" y="320" on="0"/>
        <pt x="539" y="383" on="0"/>
        <pt x="434" y="431" on="0"/>
        <pt x="306" y="480" on="0"/>
        <pt x="179" y="548" on="0"/>
        <pt x="126" y="591" on="1"/>
        <pt x="8" y="688" on="0"/>
        <pt x="8" y="857" on="1"/>
        <pt x="8" y="1094" on="0"/>
        <pt x="246" y="1204" on="1"/>
        <pt x="378" y="1266" on="0"/>
        <pt x="548" y="1266" on="1"/>
        <pt x="634" y="1266" on="0"/>
        <pt x="866" y="1211" on="0"/>
        <pt x="902" y="1176" on="1"/>
        <pt x="874" y="814" on="1"/>
        <pt x="701" y="844" on="1"/>
        <pt x="662" y="987" on="1"/>
        <pt x="630" y="1033" on="0"/>
        <pt x="508" y="1086" on="0"/>
        <pt x="395" y="1086" on="0"/>
        <pt x="341" y="1034" on="0"/>
        <pt x="341" y="951" on="0"/>
        <pt x="414" y="884" on="0"/>
        <pt x="530" y="831" on="0"/>
        <pt x="670" y="774" on="0"/>
        <pt x="810" y="699" on="0"/>
        <pt x="926" y="607" on="0"/>
        <pt x="999" y="467" on="0"/>
        <pt x="999" y="292" on="0"/>
        <pt x="920" y="147" on="0"/>
        <pt x="801" y="59" on="0"/>
        <pt x="725" y="30" on="1"/>
        <pt x="590" y="-23" on="0"/>
        <pt x="285" y="-23" on="0"/>
        <pt x="42" y="61" on="0"/>
      </contour>
      <contour>
        <pt x="219" y="1597" on="1"/>
        <pt x="404" y="1634" on="1"/>
        <pt x="517" y="1549" on="1"/>
        <pt x="527" y="1549" on="1"/>
        <pt x="623" y="1631" on="1"/>
        <pt x="795" y="1602" on="1"/>
        <pt x="585" y="1401" on="1"/>
        <pt x="427" y="1391" on="1"/>
      </contour>
    </TTGlyph>
    <TTGlyph name="Scedilla" xMin="0" yMin="-389" xMax="999" yMax="1266">
      <contour>
        <pt x="305" y="-301" on="1"/>
        <pt x="363" y="-300" on="0"/>
        <pt x="442" y="-261" on="0"/>
        <pt x="442" y="-237" on="1"/>
        <pt x="442" y="-198" on="0"/>
        <pt x="286" y="-145" on="1"/>
        <pt x="442" y="-23" on="1"/>
        <pt x="278" y="-22" on="0"/>
        <pt x="41" y="62" on="0"/>
        <pt x="0" y="126" on="1"/>
        <pt x="34" y="488" on="1"/>
        <pt x="211" y="459" on="1"/>
        <pt x="253" y="272" on="1"/>
        <pt x="283" y="229" on="0"/>
        <pt x="410" y="181" on="0"/>
        <pt x="535" y="181" on="0"/>
        <pt x="605" y="240" on="0"/>
        <pt x="605" y="320" on="0"/>
        <pt x="539" y="383" on="0"/>
        <pt x="434" y="431" on="0"/>
        <pt x="306" y="480" on="0"/>
        <pt x="179" y="548" on="0"/>
        <pt x="126" y="591" on="1"/>
        <pt x="8" y="688" on="0"/>
        <pt x="8" y="857" on="1"/>
        <pt x="8" y="1094" on="0"/>
        <pt x="246" y="1204" on="1"/>
        <pt x="378" y="1266" on="0"/>
        <pt x="548" y="1266" on="1"/>
        <pt x="634" y="1266" on="0"/>
        <pt x="866" y="1211" on="0"/>
        <pt x="902" y="1176" on="1"/>
        <pt x="874" y="814" on="1"/>
        <pt x="701" y="844" on="1"/>
        <pt x="662" y="987" on="1"/>
        <pt x="630" y="1033" on="0"/>
        <pt x="508" y="1086" on="0"/>
        <pt x="395" y="1086" on="0"/>
        <pt x="341" y="1034" on="0"/>
        <pt x="341" y="951" on="0"/>
        <pt x="414" y="884" on="0"/>
        <pt x="530" y="831" on="0"/>
        <pt x="670" y="774" on="0"/>
        <pt x="810" y="699" on="0"/>
        <pt x="926" y="607" on="0"/>
        <pt x="999" y="467" on="0"/>
        <pt x="999" y="301" on="0"/>
        <pt x="937" y="168" on="0"/>
        <pt x="884" y="124" on="1"/>
        <pt x="783" y="38" on="0"/>
        <pt x="641" y="2" on="1"/>
        <pt x="648" y="2" on="1"/>
        <pt x="530" y="-84" on="1"/>
        <pt x="705" y="-99" on="0"/>
        <pt x="705" y="-227" on="1"/>
        <pt x="705" y="-311" on="0"/>
        <pt x="539" y="-389" on="0"/>
        <pt x="341" y="-389" on="1"/>
      </contour>
    </TTGlyph>
    <TTGlyph name="Scommaaccent" xMin="0" yMin="-450" xMax="999" yMax="1266">
      <contour>
        <pt x="0" y="126" on="1"/>
        <pt x="34" y="488" on="1"/>
        <pt x="211" y="459" on="1"/>
        <pt x="253" y="272" on="1"/>
        <pt x="283" y="229" on="0"/>
        <pt x="410" y="181" on="0"/>
        <pt x="535" y="181" on="0"/>
        <pt x="605" y="240" on="0"/>
        <pt x="605" y="320" on="0"/>
        <pt x="539" y="383" on="0"/>
        <pt x="434" y="431" on="0"/>
        <pt x="306" y="480" on="0"/>
        <pt x="179" y="548" on="0"/>
        <pt x="126" y="591" on="1"/>
        <pt x="8" y="688" on="0"/>
        <pt x="8" y="857" on="1"/>
        <pt x="8" y="1094" on="0"/>
        <pt x="246" y="1204" on="1"/>
        <pt x="378" y="1266" on="0"/>
        <pt x="548" y="1266" on="1"/>
        <pt x="634" y="1266" on="0"/>
        <pt x="866" y="1211" on="0"/>
        <pt x="902" y="1176" on="1"/>
        <pt x="874" y="814" on="1"/>
        <pt x="701" y="844" on="1"/>
        <pt x="662" y="987" on="1"/>
        <pt x="630" y="1033" on="0"/>
        <pt x="508" y="1086" on="0"/>
        <pt x="395" y="1086" on="0"/>
        <pt x="341" y="1034" on="0"/>
        <pt x="341" y="951" on="0"/>
        <pt x="414" y="884" on="0"/>
        <pt x="530" y="831" on="0"/>
        <pt x="670" y="774" on="0"/>
        <pt x="810" y="699" on="0"/>
        <pt x="926" y="607" on="0"/>
        <pt x="999" y="467" on="0"/>
        <pt x="999" y="292" on="0"/>
        <pt x="920" y="147" on="0"/>
        <pt x="801" y="59" on="0"/>
        <pt x="725" y="30" on="1"/>
        <pt x="590" y="-23" on="0"/>
        <pt x="285" y="-23" on="0"/>
        <pt x="42" y="61" on="0"/>
      </contour>
      <contour>
        <pt x="272" y="-271" on="1"/>
        <pt x="295" y="-145" on="0"/>
        <pt x="472" y="-145" on="1"/>
        <pt x="548" y="-145" on="0"/>
        <pt x="640" y="-215" on="0"/>
        <pt x="640" y="-339" on="0"/>
        <pt x="589" y="-380" on="1"/>
        <pt x="490" y="-461" on="0"/>
        <pt x="298" y="-450" on="1"/>
        <pt x="276" y="-390" on="1"/>
        <pt x="316" y="-384" on="0"/>
        <pt x="384" y="-348" on="0"/>
        <pt x="384" y="-307" on="0"/>
        <pt x="314" y="-277" on="0"/>
      </contour>
    </TTGlyph>
    <TTGlyph name="T" xMin="0" yMin="0" xMax="1264" yMax="1244">
      <contour>
        <pt x="0" y="1244" on="1"/>
        <pt x="1264" y="1244" on="1"/>
        <pt x="1232" y="796" on="1"/>
        <pt x="1049" y="827" on="1"/>
        <pt x="985" y="1072" on="1"/>
        <pt x="801" y="1072" on="1"/>
        <pt x="801" y="208" on="1"/>
        <pt x="1003" y="153" on="1"/>
        <pt x="987" y="0" on="1"/>
        <pt x="250" y="0" on="1"/>
        <pt x="263" y="140" on="1"/>
        <pt x="440" y="209" on="1"/>
        <pt x="440" y="1072" on="1"/>
        <pt x="260" y="1072" on="1"/>
        <pt x="173" y="786" on="1"/>
        <pt x="3" y="812" on="1"/>
      </contour>
    </TTGlyph>
    <TTGlyph name="Tbar" xMin="0" yMin="0" xMax="1264" yMax="1244">
      <contour>
        <pt x="0" y="1244" on="1"/>
        <pt x="1264" y="1244" on="1"/>
        <pt x="1232" y="796" on="1"/>
        <pt x="1049" y="827" on="1"/>
        <pt x="985" y="1072" on="1"/>
        <pt x="801" y="1072" on="1"/>
        <pt x="801" y="208" on="1"/>
        <pt x="1003" y="153" on="1"/>
        <pt x="987" y="0" on="1"/>
        <pt x="250" y="0" on="1"/>
        <pt x="263" y="140" on="1"/>
        <pt x="440" y="209" on="1"/>
        <pt x="440" y="1072" on="1"/>
        <pt x="260" y="1072" on="1"/>
        <pt x="173" y="786" on="1"/>
        <pt x="3" y="812" on="1"/>
      </contour>
    </TTGlyph>
    <TTGlyph name="Tcaron" xMin="0" yMin="0" xMax="1264" yMax="1634">
      <contour>
        <pt x="0" y="1244" on="1"/>
        <pt x="1264" y="1244" on="1"/>
        <pt x="1232" y="796" on="1"/>
        <pt x="1049" y="827" on="1"/>
        <pt x="985" y="1072" on="1"/>
        <pt x="801" y="1072" on="1"/>
        <pt x="801" y="208" on="1"/>
        <pt x="1003" y="153" on="1"/>
        <pt x="987" y="0" on="1"/>
        <pt x="250" y="0" on="1"/>
        <pt x="263" y="140" on="1"/>
        <pt x="440" y="209" on="1"/>
        <pt x="440" y="1072" on="1"/>
        <pt x="260" y="1072" on="1"/>
        <pt x="173" y="786" on="1"/>
        <pt x="3" y="812" on="1"/>
      </contour>
      <contour>
        <pt x="343" y="1597" on="1"/>
        <pt x="528" y="1634" on="1"/>
        <pt x="641" y="1549" on="1"/>
        <pt x="651" y="1549" on="1"/>
        <pt x="747" y="1631" on="1"/>
        <pt x="919" y="1602" on="1"/>
        <pt x="709" y="1401" on="1"/>
        <pt x="551" y="1391" on="1"/>
      </contour>
    </TTGlyph>
    <TTGlyph name="Tcommaaccent" xMin="0" yMin="-385" xMax="1264" yMax="1244">
      <contour>
        <pt x="472" y="-297" on="1"/>
        <pt x="530" y="-296" on="0"/>
        <pt x="608" y="-257" on="0"/>
        <pt x="608" y="-233" on="1"/>
        <pt x="608" y="-194" on="0"/>
        <pt x="452" y="-141" on="1"/>
        <pt x="633" y="0" on="1"/>
        <pt x="250" y="0" on="1"/>
        <pt x="263" y="140" on="1"/>
        <pt x="440" y="209" on="1"/>
        <pt x="440" y="1072" on="1"/>
        <pt x="260" y="1072" on="1"/>
        <pt x="173" y="786" on="1"/>
        <pt x="3" y="812" on="1"/>
        <pt x="0" y="1244" on="1"/>
        <pt x="1264" y="1244" on="1"/>
        <pt x="1232" y="796" on="1"/>
        <pt x="1049" y="827" on="1"/>
        <pt x="985" y="1072" on="1"/>
        <pt x="801" y="1072" on="1"/>
        <pt x="801" y="208" on="1"/>
        <pt x="1003" y="153" on="1"/>
        <pt x="987" y="0" on="1"/>
        <pt x="806" y="0" on="1"/>
        <pt x="696" y="-80" on="1"/>
        <pt x="872" y="-95" on="0"/>
        <pt x="872" y="-223" on="1"/>
        <pt x="872" y="-307" on="0"/>
        <pt x="706" y="-385" on="0"/>
        <pt x="508" y="-385" on="1"/>
      </contour>
    </TTGlyph>
    <TTGlyph name="Thorn" xMin="0" yMin="0" xMax="1186" yMax="1244">
      <contour>
        <pt x="0" y="1094" on="1"/>
        <pt x="20" y="1244" on="1"/>
        <pt x="747" y="1244" on="1"/>
        <pt x="731" y="1084" on="1"/>
        <pt x="552" y="1017" on="1"/>
        <pt x="552" y="982" on="1"/>
        <pt x="613" y="993" on="0"/>
        <pt x="773" y="993" on="0"/>
        <pt x="919" y="978" on="0"/>
        <pt x="1055" y="934" on="0"/>
        <pt x="1096" y="896" on="1"/>
        <pt x="1186" y="813" on="0"/>
        <pt x="1186" y="465" on="0"/>
        <pt x="913" y="242" on="0"/>
        <pt x="689" y="242" on="1"/>
        <pt x="655" y="242" on="0"/>
        <pt x="608" y="247" on="1"/>
        <pt x="576" y="421" on="1"/>
        <pt x="699" y="421" on="0"/>
        <pt x="816" y="501" on="0"/>
        <pt x="816" y="690" on="0"/>
        <pt x="718" y="790" on="0"/>
        <pt x="621" y="790" on="1"/>
        <pt x="594" y="790" on="0"/>
        <pt x="554" y="783" on="1"/>
        <pt x="552" y="223" on="1"/>
        <pt x="732" y="160" on="1"/>
        <pt x="719" y="0" on="1"/>
        <pt x="2" y="0" on="1"/>
        <pt x="12" y="142" on="1"/>
        <pt x="188" y="221" on="1"/>
        <pt x="188" y="1020" on="1"/>
      </contour>
    </TTGlyph>
    <TTGlyph name="U" xMin="0" yMin="-27" xMax="1544" yMax="1244">
      <contour>
        <pt x="0" y="1094" on="1"/>
        <pt x="29" y="1244" on="1"/>
        <pt x="749" y="1244" on="1"/>
        <pt x="727" y="1094" on="1"/>
        <pt x="562" y="1027" on="1"/>
        <pt x="562" y="541" on="1"/>
        <pt x="562" y="382" on="0"/>
        <pt x="719" y="233" on="0"/>
        <pt x="848" y="233" on="1"/>
        <pt x="1115" y="233" on="0"/>
        <pt x="1115" y="537" on="1"/>
        <pt x="1115" y="1020" on="1"/>
        <pt x="939" y="1094" on="1"/>
        <pt x="959" y="1244" on="1"/>
        <pt x="1544" y="1244" on="1"/>
        <pt x="1527" y="1094" on="1"/>
        <pt x="1362" y="1027" on="1"/>
        <pt x="1358" y="565" on="1"/>
        <pt x="1352" y="-27" on="0"/>
        <pt x="777" y="-27" on="1"/>
        <pt x="614" y="-27" on="0"/>
        <pt x="483" y="7" on="0"/>
        <pt x="392" y="44" on="0"/>
        <pt x="324" y="95" on="0"/>
        <pt x="258" y="173" on="0"/>
        <pt x="237" y="222" on="1"/>
        <pt x="190" y="332" on="0"/>
        <pt x="190" y="484" on="1"/>
        <pt x="190" y="1020" on="1"/>
      </contour>
    </TTGlyph>
    <TTGlyph name="Uacute" xMin="0" yMin="-27" xMax="1544" yMax="1727">
      <contour>
        <pt x="0" y="1094" on="1"/>
        <pt x="29" y="1244" on="1"/>
        <pt x="749" y="1244" on="1"/>
        <pt x="727" y="1094" on="1"/>
        <pt x="562" y="1027" on="1"/>
        <pt x="562" y="541" on="1"/>
        <pt x="562" y="382" on="0"/>
        <pt x="719" y="233" on="0"/>
        <pt x="848" y="233" on="1"/>
        <pt x="1115" y="233" on="0"/>
        <pt x="1115" y="537" on="1"/>
        <pt x="1115" y="1020" on="1"/>
        <pt x="939" y="1094" on="1"/>
        <pt x="959" y="1244" on="1"/>
        <pt x="1544" y="1244" on="1"/>
        <pt x="1527" y="1094" on="1"/>
        <pt x="1362" y="1027" on="1"/>
        <pt x="1358" y="565" on="1"/>
        <pt x="1352" y="-27" on="0"/>
        <pt x="777" y="-27" on="1"/>
        <pt x="614" y="-27" on="0"/>
        <pt x="483" y="7" on="0"/>
        <pt x="392" y="44" on="0"/>
        <pt x="324" y="95" on="0"/>
        <pt x="258" y="173" on="0"/>
        <pt x="237" y="222" on="1"/>
        <pt x="190" y="332" on="0"/>
        <pt x="190" y="484" on="1"/>
        <pt x="190" y="1020" on="1"/>
      </contour>
      <contour>
        <pt x="768" y="1402" on="1"/>
        <pt x="924" y="1727" on="1"/>
        <pt x="1144" y="1713" on="1"/>
        <pt x="912" y="1381" on="1"/>
      </contour>
    </TTGlyph>
    <TTGlyph name="Ucircumflex" xMin="0" yMin="-27" xMax="1544" yMax="1616">
      <contour>
        <pt x="0" y="1094" on="1"/>
        <pt x="29" y="1244" on="1"/>
        <pt x="749" y="1244" on="1"/>
        <pt x="727" y="1094" on="1"/>
        <pt x="562" y="1027" on="1"/>
        <pt x="562" y="541" on="1"/>
        <pt x="562" y="382" on="0"/>
        <pt x="719" y="233" on="0"/>
        <pt x="848" y="233" on="1"/>
        <pt x="1115" y="233" on="0"/>
        <pt x="1115" y="537" on="1"/>
        <pt x="1115" y="1020" on="1"/>
        <pt x="939" y="1094" on="1"/>
        <pt x="959" y="1244" on="1"/>
        <pt x="1544" y="1244" on="1"/>
        <pt x="1527" y="1094" on="1"/>
        <pt x="1362" y="1027" on="1"/>
        <pt x="1358" y="565" on="1"/>
        <pt x="1352" y="-27" on="0"/>
        <pt x="777" y="-27" on="1"/>
        <pt x="614" y="-27" on="0"/>
        <pt x="483" y="7" on="0"/>
        <pt x="392" y="44" on="0"/>
        <pt x="324" y="95" on="0"/>
        <pt x="258" y="173" on="0"/>
        <pt x="237" y="222" on="1"/>
        <pt x="190" y="332" on="0"/>
        <pt x="190" y="484" on="1"/>
        <pt x="190" y="1020" on="1"/>
      </contour>
      <contour>
        <pt x="586" y="1401" on="1"/>
        <pt x="756" y="1596" on="1"/>
        <pt x="934" y="1616" on="1"/>
        <pt x="1138" y="1411" on="1"/>
        <pt x="986" y="1352" on="1"/>
        <pt x="848" y="1453" on="1"/>
        <pt x="834" y="1453" on="1"/>
        <pt x="730" y="1351" on="1"/>
      </contour>
    </TTGlyph>
    <TTGlyph name="Udieresis" xMin="0" yMin="-27" xMax="1544" yMax="1605">
      <contour>
        <pt x="0" y="1094" on="1"/>
        <pt x="29" y="1244" on="1"/>
        <pt x="749" y="1244" on="1"/>
        <pt x="727" y="1094" on="1"/>
        <pt x="562" y="1027" on="1"/>
        <pt x="562" y="541" on="1"/>
        <pt x="562" y="382" on="0"/>
        <pt x="719" y="233" on="0"/>
        <pt x="848" y="233" on="1"/>
        <pt x="1115" y="233" on="0"/>
        <pt x="1115" y="537" on="1"/>
        <pt x="1115" y="1020" on="1"/>
        <pt x="939" y="1094" on="1"/>
        <pt x="959" y="1244" on="1"/>
        <pt x="1544" y="1244" on="1"/>
        <pt x="1527" y="1094" on="1"/>
        <pt x="1362" y="1027" on="1"/>
        <pt x="1358" y="565" on="1"/>
        <pt x="1352" y="-27" on="0"/>
        <pt x="777" y="-27" on="1"/>
        <pt x="614" y="-27" on="0"/>
        <pt x="483" y="7" on="0"/>
        <pt x="392" y="44" on="0"/>
        <pt x="324" y="95" on="0"/>
        <pt x="258" y="173" on="0"/>
        <pt x="237" y="222" on="1"/>
        <pt x="190" y="332" on="0"/>
        <pt x="190" y="484" on="1"/>
        <pt x="190" y="1020" on="1"/>
      </contour>
      <contour>
        <pt x="547" y="1498" on="1"/>
        <pt x="547" y="1540" on="0"/>
        <pt x="612" y="1605" on="0"/>
        <pt x="762" y="1605" on="0"/>
        <pt x="829" y="1542" on="0"/>
        <pt x="829" y="1500" on="1"/>
        <pt x="829" y="1391" on="0"/>
        <pt x="547" y="1391" on="0"/>
      </contour>
      <contour>
        <pt x="856" y="1498" on="1"/>
        <pt x="856" y="1540" on="0"/>
        <pt x="921" y="1605" on="0"/>
        <pt x="1071" y="1605" on="0"/>
        <pt x="1138" y="1542" on="0"/>
        <pt x="1138" y="1500" on="1"/>
        <pt x="1138" y="1391" on="0"/>
        <pt x="856" y="1391" on="0"/>
      </contour>
    </TTGlyph>
    <TTGlyph name="Ugrave" xMin="0" yMin="-27" xMax="1544" yMax="1770">
      <contour>
        <pt x="0" y="1094" on="1"/>
        <pt x="29" y="1244" on="1"/>
        <pt x="749" y="1244" on="1"/>
        <pt x="727" y="1094" on="1"/>
        <pt x="562" y="1027" on="1"/>
        <pt x="562" y="541" on="1"/>
        <pt x="562" y="382" on="0"/>
        <pt x="719" y="233" on="0"/>
        <pt x="848" y="233" on="1"/>
        <pt x="1115" y="233" on="0"/>
        <pt x="1115" y="537" on="1"/>
        <pt x="1115" y="1020" on="1"/>
        <pt x="939" y="1094" on="1"/>
        <pt x="959" y="1244" on="1"/>
        <pt x="1544" y="1244" on="1"/>
        <pt x="1527" y="1094" on="1"/>
        <pt x="1362" y="1027" on="1"/>
        <pt x="1358" y="565" on="1"/>
        <pt x="1352" y="-27" on="0"/>
        <pt x="777" y="-27" on="1"/>
        <pt x="614" y="-27" on="0"/>
        <pt x="483" y="7" on="0"/>
        <pt x="392" y="44" on="0"/>
        <pt x="324" y="95" on="0"/>
        <pt x="258" y="173" on="0"/>
        <pt x="237" y="222" on="1"/>
        <pt x="190" y="332" on="0"/>
        <pt x="190" y="484" on="1"/>
        <pt x="190" y="1020" on="1"/>
      </contour>
      <contour>
        <pt x="538" y="1730" on="1"/>
        <pt x="756" y="1770" on="1"/>
        <pt x="906" y="1422" on="1"/>
        <pt x="746" y="1391" on="1"/>
      </contour>
    </TTGlyph>
    <TTGlyph name="Uhungarumlaut" xMin="0" yMin="-27" xMax="1544" yMax="1685">
      <contour>
        <pt x="0" y="1094" on="1"/>
        <pt x="29" y="1244" on="1"/>
        <pt x="749" y="1244" on="1"/>
        <pt x="727" y="1094" on="1"/>
        <pt x="562" y="1027" on="1"/>
        <pt x="562" y="541" on="1"/>
        <pt x="562" y="382" on="0"/>
        <pt x="719" y="233" on="0"/>
        <pt x="848" y="233" on="1"/>
        <pt x="1115" y="233" on="0"/>
        <pt x="1115" y="537" on="1"/>
        <pt x="1115" y="1020" on="1"/>
        <pt x="939" y="1094" on="1"/>
        <pt x="959" y="1244" on="1"/>
        <pt x="1544" y="1244" on="1"/>
        <pt x="1527" y="1094" on="1"/>
        <pt x="1362" y="1027" on="1"/>
        <pt x="1358" y="565" on="1"/>
        <pt x="1352" y="-27" on="0"/>
        <pt x="777" y="-27" on="1"/>
        <pt x="614" y="-27" on="0"/>
        <pt x="483" y="7" on="0"/>
        <pt x="392" y="44" on="0"/>
        <pt x="324" y="95" on="0"/>
        <pt x="258" y="173" on="0"/>
        <pt x="237" y="222" on="1"/>
        <pt x="190" y="332" on="0"/>
        <pt x="190" y="484" on="1"/>
        <pt x="190" y="1020" on="1"/>
      </contour>
      <contour>
        <pt x="842" y="1430" on="1"/>
        <pt x="1100" y="1682" on="1"/>
        <pt x="1310" y="1654" on="1"/>
        <pt x="978" y="1391" on="1"/>
      </contour>
      <contour>
        <pt x="564" y="1430" on="1"/>
        <pt x="844" y="1685" on="1"/>
        <pt x="1048" y="1661" on="1"/>
        <pt x="704" y="1391" on="1"/>
      </contour>
    </TTGlyph>
    <TTGlyph name="Umacron" xMin="0" yMin="-27" xMax="1544" yMax="1586">
      <contour>
        <pt x="0" y="1094" on="1"/>
        <pt x="29" y="1244" on="1"/>
        <pt x="749" y="1244" on="1"/>
        <pt x="727" y="1094" on="1"/>
        <pt x="562" y="1027" on="1"/>
        <pt x="562" y="541" on="1"/>
        <pt x="562" y="382" on="0"/>
        <pt x="719" y="233" on="0"/>
        <pt x="848" y="233" on="1"/>
        <pt x="1115" y="233" on="0"/>
        <pt x="1115" y="537" on="1"/>
        <pt x="1115" y="1020" on="1"/>
        <pt x="939" y="1094" on="1"/>
        <pt x="959" y="1244" on="1"/>
        <pt x="1544" y="1244" on="1"/>
        <pt x="1527" y="1094" on="1"/>
        <pt x="1362" y="1027" on="1"/>
        <pt x="1358" y="565" on="1"/>
        <pt x="1352" y="-27" on="0"/>
        <pt x="777" y="-27" on="1"/>
        <pt x="614" y="-27" on="0"/>
        <pt x="483" y="7" on="0"/>
        <pt x="392" y="44" on="0"/>
        <pt x="324" y="95" on="0"/>
        <pt x="258" y="173" on="0"/>
        <pt x="237" y="222" on="1"/>
        <pt x="190" y="332" on="0"/>
        <pt x="190" y="484" on="1"/>
        <pt x="190" y="1020" on="1"/>
      </contour>
      <contour>
        <pt x="610" y="1391" on="1"/>
        <pt x="630" y="1586" on="1"/>
        <pt x="1084" y="1586" on="1"/>
        <pt x="1062" y="1391" on="1"/>
      </contour>
    </TTGlyph>
    <TTGlyph name="Uogonek" xMin="0" yMin="-316" xMax="1544" yMax="1244">
      <contour>
        <pt x="0" y="1094" on="1"/>
        <pt x="29" y="1244" on="1"/>
        <pt x="749" y="1244" on="1"/>
        <pt x="727" y="1094" on="1"/>
        <pt x="562" y="1027" on="1"/>
        <pt x="562" y="541" on="1"/>
        <pt x="562" y="382" on="0"/>
        <pt x="719" y="233" on="0"/>
        <pt x="848" y="233" on="1"/>
        <pt x="1115" y="233" on="0"/>
        <pt x="1115" y="537" on="1"/>
        <pt x="1115" y="1020" on="1"/>
        <pt x="939" y="1094" on="1"/>
        <pt x="959" y="1244" on="1"/>
        <pt x="1544" y="1244" on="1"/>
        <pt x="1527" y="1094" on="1"/>
        <pt x="1362" y="1027" on="1"/>
        <pt x="1358" y="565" on="1"/>
        <pt x="1355" y="227" on="0"/>
        <pt x="1167" y="82" on="1"/>
        <pt x="1168" y="82" on="1"/>
        <pt x="1099" y="-106" on="0"/>
        <pt x="1234" y="-221" on="1"/>
        <pt x="1209" y="-316" on="1"/>
        <pt x="1078" y="-308" on="0"/>
        <pt x="893" y="-209" on="0"/>
        <pt x="893" y="-61" on="0"/>
        <pt x="929" y="-15" on="1"/>
        <pt x="858" y="-27" on="0"/>
        <pt x="731" y="-27" on="0"/>
        <pt x="660" y="-24" on="0"/>
        <pt x="560" y="-13" on="0"/>
        <pt x="483" y="7" on="0"/>
        <pt x="392" y="44" on="0"/>
        <pt x="324" y="95" on="0"/>
        <pt x="258" y="173" on="0"/>
        <pt x="237" y="222" on="1"/>
        <pt x="190" y="332" on="0"/>
        <pt x="190" y="484" on="1"/>
        <pt x="190" y="1020" on="1"/>
      </contour>
    </TTGlyph>
    <TTGlyph name="Uring" xMin="0" yMin="-27" xMax="1544" yMax="1730">
      <contour>
        <pt x="0" y="1094" on="1"/>
        <pt x="29" y="1244" on="1"/>
        <pt x="749" y="1244" on="1"/>
        <pt x="727" y="1094" on="1"/>
        <pt x="562" y="1027" on="1"/>
        <pt x="562" y="541" on="1"/>
        <pt x="562" y="382" on="0"/>
        <pt x="719" y="233" on="0"/>
        <pt x="848" y="233" on="1"/>
        <pt x="1115" y="233" on="0"/>
        <pt x="1115" y="537" on="1"/>
        <pt x="1115" y="1020" on="1"/>
        <pt x="939" y="1094" on="1"/>
        <pt x="959" y="1244" on="1"/>
        <pt x="1544" y="1244" on="1"/>
        <pt x="1527" y="1094" on="1"/>
        <pt x="1362" y="1027" on="1"/>
        <pt x="1358" y="565" on="1"/>
        <pt x="1352" y="-27" on="0"/>
        <pt x="777" y="-27" on="1"/>
        <pt x="614" y="-27" on="0"/>
        <pt x="483" y="7" on="0"/>
        <pt x="392" y="44" on="0"/>
        <pt x="324" y="95" on="0"/>
        <pt x="258" y="173" on="0"/>
        <pt x="237" y="222" on="1"/>
        <pt x="190" y="332" on="0"/>
        <pt x="190" y="484" on="1"/>
        <pt x="190" y="1020" on="1"/>
      </contour>
      <contour>
        <pt x="763" y="1558" on="1"/>
        <pt x="763" y="1501" on="0"/>
        <pt x="841" y="1501" on="1"/>
        <pt x="871" y="1501" on="0"/>
        <pt x="918" y="1531" on="0"/>
        <pt x="918" y="1585" on="0"/>
        <pt x="868" y="1617" on="0"/>
        <pt x="808" y="1617" on="0"/>
        <pt x="763" y="1583" on="0"/>
      </contour>
      <contour>
        <pt x="832" y="1391" on="1"/>
        <pt x="572" y="1391" on="0"/>
        <pt x="572" y="1557" on="1"/>
        <pt x="572" y="1633" on="0"/>
        <pt x="708" y="1730" on="0"/>
        <pt x="846" y="1730" on="1"/>
        <pt x="1121" y="1730" on="0"/>
        <pt x="1121" y="1566" on="1"/>
        <pt x="1121" y="1492" on="0"/>
        <pt x="978" y="1391" on="0"/>
      </contour>
    </TTGlyph>
    <TTGlyph name="V" xMin="0" yMin="-23" xMax="1470" yMax="1244">
      <contour>
        <pt x="0" y="1087" on="1"/>
        <pt x="20" y="1244" on="1"/>
        <pt x="776" y="1244" on="1"/>
        <pt x="753" y="1087" on="1"/>
        <pt x="591" y="1027" on="1"/>
        <pt x="826" y="421" on="1"/>
        <pt x="1044" y="1025" on="1"/>
        <pt x="870" y="1087" on="1"/>
        <pt x="885" y="1244" on="1"/>
        <pt x="1470" y="1244" on="1"/>
        <pt x="1455" y="1087" on="1"/>
        <pt x="1321" y="1027" on="1"/>
        <pt x="927" y="35" on="1"/>
        <pt x="574" y="-23" on="1"/>
        <pt x="145" y="1025" on="1"/>
      </contour>
    </TTGlyph>
    <TTGlyph name="W" xMin="0" yMin="-24" xMax="2037" yMax="1244">
      <contour>
        <pt x="0" y="1089" on="1"/>
        <pt x="11" y="1244" on="1"/>
        <pt x="766" y="1244" on="1"/>
        <pt x="730" y="1081" on="1"/>
        <pt x="577" y="1027" on="1"/>
        <pt x="731" y="486" on="1"/>
        <pt x="906" y="1200" on="1"/>
        <pt x="1245" y="1240" on="1"/>
        <pt x="1451" y="502" on="1"/>
        <pt x="1604" y="1030" on="1"/>
        <pt x="1437" y="1084" on="1"/>
        <pt x="1458" y="1244" on="1"/>
        <pt x="2037" y="1244" on="1"/>
        <pt x="2012" y="1087" on="1"/>
        <pt x="1880" y="1033" on="1"/>
        <pt x="1545" y="38" on="1"/>
        <pt x="1212" y="-23" on="1"/>
        <pt x="1005" y="721" on="1"/>
        <pt x="827" y="38" on="1"/>
        <pt x="481" y="-24" on="1"/>
        <pt x="176" y="1023" on="1"/>
      </contour>
    </TTGlyph>
    <TTGlyph name="Wacute" xMin="0" yMin="-24" xMax="2037" yMax="1727">
      <contour>
        <pt x="0" y="1089" on="1"/>
        <pt x="11" y="1244" on="1"/>
        <pt x="766" y="1244" on="1"/>
        <pt x="730" y="1081" on="1"/>
        <pt x="577" y="1027" on="1"/>
        <pt x="731" y="486" on="1"/>
        <pt x="906" y="1200" on="1"/>
        <pt x="1245" y="1240" on="1"/>
        <pt x="1451" y="502" on="1"/>
        <pt x="1604" y="1030" on="1"/>
        <pt x="1437" y="1084" on="1"/>
        <pt x="1458" y="1244" on="1"/>
        <pt x="2037" y="1244" on="1"/>
        <pt x="2012" y="1087" on="1"/>
        <pt x="1880" y="1033" on="1"/>
        <pt x="1545" y="38" on="1"/>
        <pt x="1212" y="-23" on="1"/>
        <pt x="1005" y="721" on="1"/>
        <pt x="827" y="38" on="1"/>
        <pt x="481" y="-24" on="1"/>
        <pt x="176" y="1023" on="1"/>
      </contour>
      <contour>
        <pt x="946" y="1402" on="1"/>
        <pt x="1101" y="1727" on="1"/>
        <pt x="1321" y="1713" on="1"/>
        <pt x="1090" y="1381" on="1"/>
      </contour>
    </TTGlyph>
    <TTGlyph name="Wcircumflex" xMin="0" yMin="-24" xMax="2037" yMax="1626">
      <contour>
        <pt x="0" y="1089" on="1"/>
        <pt x="11" y="1244" on="1"/>
        <pt x="766" y="1244" on="1"/>
        <pt x="730" y="1081" on="1"/>
        <pt x="577" y="1027" on="1"/>
        <pt x="731" y="486" on="1"/>
        <pt x="906" y="1200" on="1"/>
        <pt x="1245" y="1240" on="1"/>
        <pt x="1451" y="502" on="1"/>
        <pt x="1604" y="1030" on="1"/>
        <pt x="1437" y="1084" on="1"/>
        <pt x="1458" y="1244" on="1"/>
        <pt x="2037" y="1244" on="1"/>
        <pt x="2012" y="1087" on="1"/>
        <pt x="1880" y="1033" on="1"/>
        <pt x="1545" y="38" on="1"/>
        <pt x="1212" y="-23" on="1"/>
        <pt x="1005" y="721" on="1"/>
        <pt x="827" y="38" on="1"/>
        <pt x="481" y="-24" on="1"/>
        <pt x="176" y="1023" on="1"/>
      </contour>
      <contour>
        <pt x="803" y="1411" on="1"/>
        <pt x="974" y="1606" on="1"/>
        <pt x="1151" y="1626" on="1"/>
        <pt x="1355" y="1421" on="1"/>
        <pt x="1204" y="1362" on="1"/>
        <pt x="1065" y="1463" on="1"/>
        <pt x="1051" y="1463" on="1"/>
        <pt x="948" y="1361" on="1"/>
      </contour>
    </TTGlyph>
    <TTGlyph name="Wdieresis" xMin="0" yMin="-24" xMax="2037" yMax="1605">
      <contour>
        <pt x="0" y="1089" on="1"/>
        <pt x="11" y="1244" on="1"/>
        <pt x="766" y="1244" on="1"/>
        <pt x="730" y="1081" on="1"/>
        <pt x="577" y="1027" on="1"/>
        <pt x="731" y="486" on="1"/>
        <pt x="906" y="1200" on="1"/>
        <pt x="1245" y="1240" on="1"/>
        <pt x="1451" y="502" on="1"/>
        <pt x="1604" y="1030" on="1"/>
        <pt x="1437" y="1084" on="1"/>
        <pt x="1458" y="1244" on="1"/>
        <pt x="2037" y="1244" on="1"/>
        <pt x="2012" y="1087" on="1"/>
        <pt x="1880" y="1033" on="1"/>
        <pt x="1545" y="38" on="1"/>
        <pt x="1212" y="-23" on="1"/>
        <pt x="1005" y="721" on="1"/>
        <pt x="827" y="38" on="1"/>
        <pt x="481" y="-24" on="1"/>
        <pt x="176" y="1023" on="1"/>
      </contour>
      <contour>
        <pt x="775" y="1498" on="1"/>
        <pt x="775" y="1540" on="0"/>
        <pt x="840" y="1605" on="0"/>
        <pt x="990" y="1605" on="0"/>
        <pt x="1057" y="1542" on="0"/>
        <pt x="1057" y="1500" on="1"/>
        <pt x="1057" y="1391" on="0"/>
        <pt x="775" y="1391" on="0"/>
      </contour>
      <contour>
        <pt x="1084" y="1498" on="1"/>
        <pt x="1084" y="1540" on="0"/>
        <pt x="1149" y="1605" on="0"/>
        <pt x="1299" y="1605" on="0"/>
        <pt x="1366" y="1542" on="0"/>
        <pt x="1366" y="1500" on="1"/>
        <pt x="1366" y="1391" on="0"/>
        <pt x="1084" y="1391" on="0"/>
      </contour>
    </TTGlyph>
    <TTGlyph name="Wgrave" xMin="0" yMin="-24" xMax="2037" yMax="1770">
      <contour>
        <pt x="0" y="1089" on="1"/>
        <pt x="11" y="1244" on="1"/>
        <pt x="766" y="1244" on="1"/>
        <pt x="730" y="1081" on="1"/>
        <pt x="577" y="1027" on="1"/>
        <pt x="731" y="486" on="1"/>
        <pt x="906" y="1200" on="1"/>
        <pt x="1245" y="1240" on="1"/>
        <pt x="1451" y="502" on="1"/>
        <pt x="1604" y="1030" on="1"/>
        <pt x="1437" y="1084" on="1"/>
        <pt x="1458" y="1244" on="1"/>
        <pt x="2037" y="1244" on="1"/>
        <pt x="2012" y="1087" on="1"/>
        <pt x="1880" y="1033" on="1"/>
        <pt x="1545" y="38" on="1"/>
        <pt x="1212" y="-23" on="1"/>
        <pt x="1005" y="721" on="1"/>
        <pt x="827" y="38" on="1"/>
        <pt x="481" y="-24" on="1"/>
        <pt x="176" y="1023" on="1"/>
      </contour>
      <contour>
        <pt x="785" y="1730" on="1"/>
        <pt x="1003" y="1770" on="1"/>
        <pt x="1153" y="1422" on="1"/>
        <pt x="994" y="1391" on="1"/>
      </contour>
    </TTGlyph>
    <TTGlyph name="X" xMin="0" yMin="0" xMax="1344" yMax="1244">
      <contour>
        <pt x="0" y="0" on="1"/>
        <pt x="25" y="157" on="1"/>
        <pt x="154" y="233" on="1"/>
        <pt x="480" y="611" on="1"/>
        <pt x="139" y="1012" on="1"/>
        <pt x="13" y="1066" on="1"/>
        <pt x="41" y="1244" on="1"/>
        <pt x="686" y="1244" on="1"/>
        <pt x="659" y="1076" on="1"/>
        <pt x="568" y="1010" on="1"/>
        <pt x="728" y="810" on="1"/>
        <pt x="887" y="1014" on="1"/>
        <pt x="773" y="1084" on="1"/>
        <pt x="800" y="1244" on="1"/>
        <pt x="1308" y="1244" on="1"/>
        <pt x="1284" y="1087" on="1"/>
        <pt x="1154" y="1015" on="1"/>
        <pt x="849" y="665" on="1"/>
        <pt x="1241" y="225" on="1"/>
        <pt x="1344" y="179" on="1"/>
        <pt x="1318" y="0" on="1"/>
        <pt x="674" y="0" on="1"/>
        <pt x="703" y="166" on="1"/>
        <pt x="793" y="231" on="1"/>
        <pt x="609" y="466" on="1"/>
        <pt x="448" y="232" on="1"/>
        <pt x="591" y="167" on="1"/>
        <pt x="560" y="0" on="1"/>
      </contour>
    </TTGlyph>
    <TTGlyph name="Y" xMin="0" yMin="0" xMax="1288" yMax="1245">
      <contour>
        <pt x="0" y="1089" on="1"/>
        <pt x="32" y="1245" on="1"/>
        <pt x="693" y="1245" on="1"/>
        <pt x="665" y="1089" on="1"/>
        <pt x="590" y="1028" on="1"/>
        <pt x="739" y="739" on="1"/>
        <pt x="890" y="1025" on="1"/>
        <pt x="791" y="1087" on="1"/>
        <pt x="815" y="1244" on="1"/>
        <pt x="1288" y="1244" on="1"/>
        <pt x="1264" y="1087" on="1"/>
        <pt x="1150" y="1027" on="1"/>
        <pt x="834" y="498" on="1"/>
        <pt x="834" y="221" on="1"/>
        <pt x="1001" y="140" on="1"/>
        <pt x="988" y="0" on="1"/>
        <pt x="286" y="0" on="1"/>
        <pt x="304" y="138" on="1"/>
        <pt x="463" y="217" on="1"/>
        <pt x="463" y="485" on="1"/>
        <pt x="134" y="1027" on="1"/>
      </contour>
    </TTGlyph>
    <TTGlyph name="Yacute" xMin="0" yMin="0" xMax="1288" yMax="1727">
      <contour>
        <pt x="0" y="1089" on="1"/>
        <pt x="32" y="1245" on="1"/>
        <pt x="693" y="1245" on="1"/>
        <pt x="665" y="1089" on="1"/>
        <pt x="590" y="1028" on="1"/>
        <pt x="739" y="739" on="1"/>
        <pt x="890" y="1025" on="1"/>
        <pt x="791" y="1087" on="1"/>
        <pt x="815" y="1244" on="1"/>
        <pt x="1288" y="1244" on="1"/>
        <pt x="1264" y="1087" on="1"/>
        <pt x="1150" y="1027" on="1"/>
        <pt x="834" y="498" on="1"/>
        <pt x="834" y="221" on="1"/>
        <pt x="1001" y="140" on="1"/>
        <pt x="988" y="0" on="1"/>
        <pt x="286" y="0" on="1"/>
        <pt x="304" y="138" on="1"/>
        <pt x="463" y="217" on="1"/>
        <pt x="463" y="485" on="1"/>
        <pt x="134" y="1027" on="1"/>
      </contour>
      <contour>
        <pt x="666" y="1402" on="1"/>
        <pt x="820" y="1727" on="1"/>
        <pt x="1040" y="1713" on="1"/>
        <pt x="810" y="1381" on="1"/>
      </contour>
    </TTGlyph>
    <TTGlyph name="Ycircumflex" xMin="0" yMin="0" xMax="1288" yMax="1616">
      <contour>
        <pt x="0" y="1089" on="1"/>
        <pt x="32" y="1245" on="1"/>
        <pt x="693" y="1245" on="1"/>
        <pt x="665" y="1089" on="1"/>
        <pt x="590" y="1028" on="1"/>
        <pt x="739" y="739" on="1"/>
        <pt x="890" y="1025" on="1"/>
        <pt x="791" y="1087" on="1"/>
        <pt x="815" y="1244" on="1"/>
        <pt x="1288" y="1244" on="1"/>
        <pt x="1264" y="1087" on="1"/>
        <pt x="1150" y="1027" on="1"/>
        <pt x="834" y="498" on="1"/>
        <pt x="834" y="221" on="1"/>
        <pt x="1001" y="140" on="1"/>
        <pt x="988" y="0" on="1"/>
        <pt x="286" y="0" on="1"/>
        <pt x="304" y="138" on="1"/>
        <pt x="463" y="217" on="1"/>
        <pt x="463" y="485" on="1"/>
        <pt x="134" y="1027" on="1"/>
      </contour>
      <contour>
        <pt x="452" y="1401" on="1"/>
        <pt x="622" y="1596" on="1"/>
        <pt x="800" y="1616" on="1"/>
        <pt x="1004" y="1411" on="1"/>
        <pt x="852" y="1352" on="1"/>
        <pt x="714" y="1453" on="1"/>
        <pt x="700" y="1453" on="1"/>
        <pt x="596" y="1351" on="1"/>
      </contour>
    </TTGlyph>
    <TTGlyph name="Ydieresis" xMin="0" yMin="0" xMax="1288" yMax="1605">
      <contour>
        <pt x="0" y="1089" on="1"/>
        <pt x="32" y="1245" on="1"/>
        <pt x="693" y="1245" on="1"/>
        <pt x="665" y="1089" on="1"/>
        <pt x="590" y="1028" on="1"/>
        <pt x="739" y="739" on="1"/>
        <pt x="890" y="1025" on="1"/>
        <pt x="791" y="1087" on="1"/>
        <pt x="815" y="1244" on="1"/>
        <pt x="1288" y="1244" on="1"/>
        <pt x="1264" y="1087" on="1"/>
        <pt x="1150" y="1027" on="1"/>
        <pt x="834" y="498" on="1"/>
        <pt x="834" y="221" on="1"/>
        <pt x="1001" y="140" on="1"/>
        <pt x="988" y="0" on="1"/>
        <pt x="286" y="0" on="1"/>
        <pt x="304" y="138" on="1"/>
        <pt x="463" y="217" on="1"/>
        <pt x="463" y="485" on="1"/>
        <pt x="134" y="1027" on="1"/>
      </contour>
      <contour>
        <pt x="453" y="1498" on="1"/>
        <pt x="453" y="1540" on="0"/>
        <pt x="518" y="1605" on="0"/>
        <pt x="668" y="1605" on="0"/>
        <pt x="735" y="1542" on="0"/>
        <pt x="735" y="1500" on="1"/>
        <pt x="735" y="1391" on="0"/>
        <pt x="453" y="1391" on="0"/>
      </contour>
      <contour>
        <pt x="762" y="1498" on="1"/>
        <pt x="762" y="1540" on="0"/>
        <pt x="827" y="1605" on="0"/>
        <pt x="977" y="1605" on="0"/>
        <pt x="1044" y="1542" on="0"/>
        <pt x="1044" y="1500" on="1"/>
        <pt x="1044" y="1391" on="0"/>
        <pt x="762" y="1391" on="0"/>
      </contour>
    </TTGlyph>
    <TTGlyph name="Ygrave" xMin="0" yMin="0" xMax="1288" yMax="1770">
      <contour>
        <pt x="0" y="1089" on="1"/>
        <pt x="32" y="1245" on="1"/>
        <pt x="693" y="1245" on="1"/>
        <pt x="665" y="1089" on="1"/>
        <pt x="590" y="1028" on="1"/>
        <pt x="739" y="739" on="1"/>
        <pt x="890" y="1025" on="1"/>
        <pt x="791" y="1087" on="1"/>
        <pt x="815" y="1244" on="1"/>
        <pt x="1288" y="1244" on="1"/>
        <pt x="1264" y="1087" on="1"/>
        <pt x="1150" y="1027" on="1"/>
        <pt x="834" y="498" on="1"/>
        <pt x="834" y="221" on="1"/>
        <pt x="1001" y="140" on="1"/>
        <pt x="988" y="0" on="1"/>
        <pt x="286" y="0" on="1"/>
        <pt x="304" y="138" on="1"/>
        <pt x="463" y="217" on="1"/>
        <pt x="463" y="485" on="1"/>
        <pt x="134" y="1027" on="1"/>
      </contour>
      <contour>
        <pt x="424" y="1730" on="1"/>
        <pt x="642" y="1770" on="1"/>
        <pt x="792" y="1422" on="1"/>
        <pt x="632" y="1391" on="1"/>
      </contour>
    </TTGlyph>
    <TTGlyph name="Z" xMin="0" yMin="0" xMax="1072" yMax="1244">
      <contour>
        <pt x="0" y="236" on="1"/>
        <pt x="631" y="1069" on="1"/>
        <pt x="291" y="1069" on="1"/>
        <pt x="228" y="812" on="1"/>
        <pt x="28" y="844" on="1"/>
        <pt x="39" y="1244" on="1"/>
        <pt x="1070" y="1244" on="1"/>
        <pt x="1062" y="1089" on="1"/>
        <pt x="377" y="206" on="1"/>
        <pt x="735" y="176" on="1"/>
        <pt x="922" y="457" on="1"/>
        <pt x="1072" y="434" on="1"/>
        <pt x="1011" y="0" on="1"/>
        <pt x="13" y="0" on="1"/>
      </contour>
    </TTGlyph>
    <TTGlyph name="Zacute" xMin="0" yMin="0" xMax="1072" yMax="1727">
      <contour>
        <pt x="0" y="236" on="1"/>
        <pt x="631" y="1069" on="1"/>
        <pt x="291" y="1069" on="1"/>
        <pt x="228" y="812" on="1"/>
        <pt x="28" y="844" on="1"/>
        <pt x="39" y="1244" on="1"/>
        <pt x="1070" y="1244" on="1"/>
        <pt x="1062" y="1089" on="1"/>
        <pt x="377" y="206" on="1"/>
        <pt x="735" y="176" on="1"/>
        <pt x="922" y="457" on="1"/>
        <pt x="1072" y="434" on="1"/>
        <pt x="1011" y="0" on="1"/>
        <pt x="13" y="0" on="1"/>
      </contour>
      <contour>
        <pt x="456" y="1402" on="1"/>
        <pt x="612" y="1727" on="1"/>
        <pt x="832" y="1713" on="1"/>
        <pt x="600" y="1381" on="1"/>
      </contour>
    </TTGlyph>
    <TTGlyph name="Zcaron" xMin="0" yMin="0" xMax="1072" yMax="1634">
      <contour>
        <pt x="0" y="236" on="1"/>
        <pt x="631" y="1069" on="1"/>
        <pt x="291" y="1069" on="1"/>
        <pt x="228" y="812" on="1"/>
        <pt x="28" y="844" on="1"/>
        <pt x="39" y="1244" on="1"/>
        <pt x="1070" y="1244" on="1"/>
        <pt x="1062" y="1089" on="1"/>
        <pt x="377" y="206" on="1"/>
        <pt x="735" y="176" on="1"/>
        <pt x="922" y="457" on="1"/>
        <pt x="1072" y="434" on="1"/>
        <pt x="1011" y="0" on="1"/>
        <pt x="13" y="0" on="1"/>
      </contour>
      <contour>
        <pt x="336" y="1597" on="1"/>
        <pt x="520" y="1634" on="1"/>
        <pt x="634" y="1549" on="1"/>
        <pt x="644" y="1549" on="1"/>
        <pt x="740" y="1631" on="1"/>
        <pt x="912" y="1602" on="1"/>
        <pt x="702" y="1401" on="1"/>
        <pt x="544" y="1391" on="1"/>
      </contour>
    </TTGlyph>
    <TTGlyph name="Zdotaccent" xMin="0" yMin="0" xMax="1072" yMax="1697">
      <contour>
        <pt x="0" y="236" on="1"/>
        <pt x="631" y="1069" on="1"/>
        <pt x="291" y="1069" on="1"/>
        <pt x="228" y="812" on="1"/>
        <pt x="28" y="844" on="1"/>
        <pt x="39" y="1244" on="1"/>
        <pt x="1070" y="1244" on="1"/>
        <pt x="1062" y="1089" on="1"/>
        <pt x="377" y="206" on="1"/>
        <pt x="735" y="176" on="1"/>
        <pt x="922" y="457" on="1"/>
        <pt x="1072" y="434" on="1"/>
        <pt x="1011" y="0" on="1"/>
        <pt x="13" y="0" on="1"/>
      </contour>
      <contour>
        <pt x="391" y="1544" on="1"/>
        <pt x="391" y="1604" on="0"/>
        <pt x="490" y="1697" on="0"/>
        <pt x="717" y="1697" on="0"/>
        <pt x="818" y="1606" on="0"/>
        <pt x="818" y="1547" on="1"/>
        <pt x="818" y="1391" on="0"/>
        <pt x="391" y="1391" on="0"/>
      </contour>
    </TTGlyph>
    <TTGlyph name="a" xMin="0" yMin="-24" xMax="892" yMax="949">
      <contour>
        <pt x="374" y="388" on="0"/>
        <pt x="296" y="318" on="0"/>
        <pt x="296" y="248" on="0"/>
        <pt x="339" y="205" on="0"/>
        <pt x="417" y="205" on="0"/>
        <pt x="458" y="234" on="1"/>
        <pt x="458" y="398" on="1"/>
      </contour>
      <contour>
        <pt x="0" y="188" on="1"/>
        <pt x="0" y="328" on="0"/>
        <pt x="245" y="513" on="0"/>
        <pt x="458" y="512" on="1"/>
        <pt x="458" y="607" on="1"/>
        <pt x="458" y="676" on="0"/>
        <pt x="384" y="770" on="0"/>
        <pt x="296" y="770" on="0"/>
        <pt x="259" y="675" on="0"/>
        <pt x="250" y="552" on="1"/>
        <pt x="88" y="552" on="0"/>
        <pt x="50" y="616" on="1"/>
        <pt x="34" y="642" on="0"/>
        <pt x="34" y="739" on="0"/>
        <pt x="176" y="865" on="0"/>
        <pt x="393" y="949" on="0"/>
        <pt x="616" y="949" on="0"/>
        <pt x="766" y="803" on="0"/>
        <pt x="766" y="641" on="1"/>
        <pt x="766" y="374" on="1"/>
        <pt x="766" y="285" on="0"/>
        <pt x="800" y="224" on="0"/>
        <pt x="864" y="210" on="1"/>
        <pt x="892" y="204" on="1"/>
        <pt x="867" y="34" on="1"/>
        <pt x="818" y="2" on="0"/>
        <pt x="793" y="-6" on="0"/>
        <pt x="768" y="-16" on="0"/>
        <pt x="751" y="-18" on="0"/>
        <pt x="738" y="-20" on="1"/>
        <pt x="720" y="-24" on="0"/>
        <pt x="662" y="-24" on="1"/>
        <pt x="550" y="-24" on="0"/>
        <pt x="499" y="106" on="1"/>
        <pt x="494" y="119" on="1"/>
        <pt x="481" y="125" on="1"/>
        <pt x="459" y="66" on="0"/>
        <pt x="301" y="-23" on="0"/>
        <pt x="117" y="-23" on="0"/>
        <pt x="0" y="82" on="0"/>
      </contour>
    </TTGlyph>
    <TTGlyph name="aacute" xMin="0" yMin="-24" xMax="892" yMax="1409">
      <contour>
        <pt x="374" y="388" on="0"/>
        <pt x="296" y="318" on="0"/>
        <pt x="296" y="248" on="0"/>
        <pt x="339" y="205" on="0"/>
        <pt x="417" y="205" on="0"/>
        <pt x="458" y="234" on="1"/>
        <pt x="458" y="398" on="1"/>
      </contour>
      <contour>
        <pt x="0" y="188" on="1"/>
        <pt x="0" y="328" on="0"/>
        <pt x="245" y="513" on="0"/>
        <pt x="458" y="512" on="1"/>
        <pt x="458" y="607" on="1"/>
        <pt x="458" y="676" on="0"/>
        <pt x="384" y="770" on="0"/>
        <pt x="296" y="770" on="0"/>
        <pt x="259" y="675" on="0"/>
        <pt x="250" y="552" on="1"/>
        <pt x="88" y="552" on="0"/>
        <pt x="50" y="616" on="1"/>
        <pt x="34" y="642" on="0"/>
        <pt x="34" y="739" on="0"/>
        <pt x="176" y="865" on="0"/>
        <pt x="393" y="949" on="0"/>
        <pt x="616" y="949" on="0"/>
        <pt x="766" y="803" on="0"/>
        <pt x="766" y="641" on="1"/>
        <pt x="766" y="374" on="1"/>
        <pt x="766" y="285" on="0"/>
        <pt x="800" y="224" on="0"/>
        <pt x="864" y="210" on="1"/>
        <pt x="892" y="204" on="1"/>
        <pt x="867" y="34" on="1"/>
        <pt x="818" y="2" on="0"/>
        <pt x="793" y="-6" on="0"/>
        <pt x="768" y="-16" on="0"/>
        <pt x="751" y="-18" on="0"/>
        <pt x="738" y="-20" on="1"/>
        <pt x="720" y="-24" on="0"/>
        <pt x="662" y="-24" on="1"/>
        <pt x="550" y="-24" on="0"/>
        <pt x="499" y="106" on="1"/>
        <pt x="494" y="119" on="1"/>
        <pt x="481" y="125" on="1"/>
        <pt x="459" y="66" on="0"/>
        <pt x="301" y="-23" on="0"/>
        <pt x="117" y="-23" on="0"/>
        <pt x="0" y="82" on="0"/>
      </contour>
      <contour>
        <pt x="343" y="1084" on="1"/>
        <pt x="498" y="1409" on="1"/>
        <pt x="718" y="1395" on="1"/>
        <pt x="487" y="1063" on="1"/>
      </contour>
    </TTGlyph>
    <TTGlyph name="abreve" xMin="0" yMin="-24" xMax="892" yMax="1307">
      <contour>
        <pt x="374" y="388" on="0"/>
        <pt x="296" y="318" on="0"/>
        <pt x="296" y="248" on="0"/>
        <pt x="339" y="205" on="0"/>
        <pt x="417" y="205" on="0"/>
        <pt x="458" y="234" on="1"/>
        <pt x="458" y="398" on="1"/>
      </contour>
      <contour>
        <pt x="0" y="188" on="1"/>
        <pt x="0" y="328" on="0"/>
        <pt x="245" y="513" on="0"/>
        <pt x="458" y="512" on="1"/>
        <pt x="458" y="607" on="1"/>
        <pt x="458" y="676" on="0"/>
        <pt x="384" y="770" on="0"/>
        <pt x="296" y="770" on="0"/>
        <pt x="259" y="675" on="0"/>
        <pt x="250" y="552" on="1"/>
        <pt x="88" y="552" on="0"/>
        <pt x="50" y="616" on="1"/>
        <pt x="34" y="642" on="0"/>
        <pt x="34" y="739" on="0"/>
        <pt x="176" y="865" on="0"/>
        <pt x="393" y="949" on="0"/>
        <pt x="616" y="949" on="0"/>
        <pt x="766" y="803" on="0"/>
        <pt x="766" y="641" on="1"/>
        <pt x="766" y="374" on="1"/>
        <pt x="766" y="285" on="0"/>
        <pt x="800" y="224" on="0"/>
        <pt x="864" y="210" on="1"/>
        <pt x="892" y="204" on="1"/>
        <pt x="867" y="34" on="1"/>
        <pt x="818" y="2" on="0"/>
        <pt x="793" y="-6" on="0"/>
        <pt x="768" y="-16" on="0"/>
        <pt x="751" y="-18" on="0"/>
        <pt x="738" y="-20" on="1"/>
        <pt x="720" y="-24" on="0"/>
        <pt x="662" y="-24" on="1"/>
        <pt x="550" y="-24" on="0"/>
        <pt x="499" y="106" on="1"/>
        <pt x="494" y="119" on="1"/>
        <pt x="481" y="125" on="1"/>
        <pt x="459" y="66" on="0"/>
        <pt x="301" y="-23" on="0"/>
        <pt x="117" y="-23" on="0"/>
        <pt x="0" y="82" on="0"/>
      </contour>
      <contour>
        <pt x="204" y="1271" on="1"/>
        <pt x="383" y="1307" on="1"/>
        <pt x="388" y="1281" on="0"/>
        <pt x="426" y="1240" on="0"/>
        <pt x="488" y="1240" on="0"/>
        <pt x="523" y="1263" on="0"/>
        <pt x="536" y="1286" on="0"/>
        <pt x="545" y="1307" on="1"/>
        <pt x="718" y="1266" on="1"/>
        <pt x="701" y="1176" on="0"/>
        <pt x="564" y="1063" on="0"/>
        <pt x="463" y="1063" on="1"/>
        <pt x="256" y="1063" on="0"/>
      </contour>
    </TTGlyph>
    <TTGlyph name="acircumflex" xMin="0" yMin="-24" xMax="892" yMax="1298">
      <contour>
        <pt x="374" y="388" on="0"/>
        <pt x="296" y="318" on="0"/>
        <pt x="296" y="248" on="0"/>
        <pt x="339" y="205" on="0"/>
        <pt x="417" y="205" on="0"/>
        <pt x="458" y="234" on="1"/>
        <pt x="458" y="398" on="1"/>
      </contour>
      <contour>
        <pt x="0" y="188" on="1"/>
        <pt x="0" y="328" on="0"/>
        <pt x="245" y="513" on="0"/>
        <pt x="458" y="512" on="1"/>
        <pt x="458" y="607" on="1"/>
        <pt x="458" y="676" on="0"/>
        <pt x="384" y="770" on="0"/>
        <pt x="296" y="770" on="0"/>
        <pt x="259" y="675" on="0"/>
        <pt x="250" y="552" on="1"/>
        <pt x="88" y="552" on="0"/>
        <pt x="50" y="616" on="1"/>
        <pt x="34" y="642" on="0"/>
        <pt x="34" y="739" on="0"/>
        <pt x="176" y="865" on="0"/>
        <pt x="393" y="949" on="0"/>
        <pt x="616" y="949" on="0"/>
        <pt x="766" y="803" on="0"/>
        <pt x="766" y="641" on="1"/>
        <pt x="766" y="374" on="1"/>
        <pt x="766" y="285" on="0"/>
        <pt x="800" y="224" on="0"/>
        <pt x="864" y="210" on="1"/>
        <pt x="892" y="204" on="1"/>
        <pt x="867" y="34" on="1"/>
        <pt x="818" y="2" on="0"/>
        <pt x="793" y="-6" on="0"/>
        <pt x="768" y="-16" on="0"/>
        <pt x="751" y="-18" on="0"/>
        <pt x="738" y="-20" on="1"/>
        <pt x="720" y="-24" on="0"/>
        <pt x="662" y="-24" on="1"/>
        <pt x="550" y="-24" on="0"/>
        <pt x="499" y="106" on="1"/>
        <pt x="494" y="119" on="1"/>
        <pt x="481" y="125" on="1"/>
        <pt x="459" y="66" on="0"/>
        <pt x="301" y="-23" on="0"/>
        <pt x="117" y="-23" on="0"/>
        <pt x="0" y="82" on="0"/>
      </contour>
      <contour>
        <pt x="156" y="1083" on="1"/>
        <pt x="327" y="1278" on="1"/>
        <pt x="504" y="1298" on="1"/>
        <pt x="708" y="1093" on="1"/>
        <pt x="557" y="1034" on="1"/>
        <pt x="418" y="1135" on="1"/>
        <pt x="404" y="1135" on="1"/>
        <pt x="301" y="1033" on="1"/>
      </contour>
    </TTGlyph>
    <TTGlyph name="acute" xMin="-1" yMin="1368" xMax="374" yMax="1714">
      <contour>
        <pt x="-1" y="1389" on="1"/>
        <pt x="154" y="1714" on="1"/>
        <pt x="374" y="1700" on="1"/>
        <pt x="143" y="1368" on="1"/>
      </contour>
    </TTGlyph>
    <TTGlyph name="adieresis" xMin="0" yMin="-24" xMax="892" yMax="1287">
      <contour>
        <pt x="374" y="388" on="0"/>
        <pt x="296" y="318" on="0"/>
        <pt x="296" y="248" on="0"/>
        <pt x="339" y="205" on="0"/>
        <pt x="417" y="205" on="0"/>
        <pt x="458" y="234" on="1"/>
        <pt x="458" y="398" on="1"/>
      </contour>
      <contour>
        <pt x="0" y="188" on="1"/>
        <pt x="0" y="328" on="0"/>
        <pt x="245" y="513" on="0"/>
        <pt x="458" y="512" on="1"/>
        <pt x="458" y="607" on="1"/>
        <pt x="458" y="676" on="0"/>
        <pt x="384" y="770" on="0"/>
        <pt x="296" y="770" on="0"/>
        <pt x="259" y="675" on="0"/>
        <pt x="250" y="552" on="1"/>
        <pt x="88" y="552" on="0"/>
        <pt x="50" y="616" on="1"/>
        <pt x="34" y="642" on="0"/>
        <pt x="34" y="739" on="0"/>
        <pt x="176" y="865" on="0"/>
        <pt x="393" y="949" on="0"/>
        <pt x="616" y="949" on="0"/>
        <pt x="766" y="803" on="0"/>
        <pt x="766" y="641" on="1"/>
        <pt x="766" y="374" on="1"/>
        <pt x="766" y="285" on="0"/>
        <pt x="800" y="224" on="0"/>
        <pt x="864" y="210" on="1"/>
        <pt x="892" y="204" on="1"/>
        <pt x="867" y="34" on="1"/>
        <pt x="818" y="2" on="0"/>
        <pt x="793" y="-6" on="0"/>
        <pt x="768" y="-16" on="0"/>
        <pt x="751" y="-18" on="0"/>
        <pt x="738" y="-20" on="1"/>
        <pt x="720" y="-24" on="0"/>
        <pt x="662" y="-24" on="1"/>
        <pt x="550" y="-24" on="0"/>
        <pt x="499" y="106" on="1"/>
        <pt x="494" y="119" on="1"/>
        <pt x="481" y="125" on="1"/>
        <pt x="459" y="66" on="0"/>
        <pt x="301" y="-23" on="0"/>
        <pt x="117" y="-23" on="0"/>
        <pt x="0" y="82" on="0"/>
      </contour>
      <contour>
        <pt x="132" y="1180" on="1"/>
        <pt x="132" y="1222" on="0"/>
        <pt x="197" y="1287" on="0"/>
        <pt x="347" y="1287" on="0"/>
        <pt x="413" y="1224" on="0"/>
        <pt x="413" y="1182" on="1"/>
        <pt x="413" y="1073" on="0"/>
        <pt x="132" y="1073" on="0"/>
      </contour>
      <contour>
        <pt x="441" y="1180" on="1"/>
        <pt x="441" y="1222" on="0"/>
        <pt x="506" y="1287" on="0"/>
        <pt x="656" y="1287" on="0"/>
        <pt x="722" y="1224" on="0"/>
        <pt x="722" y="1182" on="1"/>
        <pt x="722" y="1073" on="0"/>
        <pt x="441" y="1073" on="0"/>
      </contour>
    </TTGlyph>
    <TTGlyph name="ae" xMin="0" yMin="-31" xMax="1292" yMax="950">
      <contour>
        <pt x="772" y="516" on="1"/>
        <pt x="942" y="531" on="1"/>
        <pt x="948" y="549" on="0"/>
        <pt x="948" y="662" on="0"/>
        <pt x="908" y="743" on="0"/>
        <pt x="865" y="743" on="1"/>
        <pt x="769" y="743" on="0"/>
      </contour>
      <contour>
        <pt x="374" y="388" on="0"/>
        <pt x="296" y="318" on="0"/>
        <pt x="296" y="248" on="0"/>
        <pt x="339" y="206" on="0"/>
        <pt x="419" y="206" on="0"/>
        <pt x="458" y="234" on="1"/>
        <pt x="458" y="398" on="1"/>
      </contour>
      <contour>
        <pt x="0" y="188" on="1"/>
        <pt x="0" y="328" on="0"/>
        <pt x="244" y="513" on="0"/>
        <pt x="458" y="512" on="1"/>
        <pt x="458" y="607" on="1"/>
        <pt x="458" y="671" on="0"/>
        <pt x="385" y="746" on="0"/>
        <pt x="301" y="746" on="0"/>
        <pt x="257" y="668" on="0"/>
        <pt x="239" y="568" on="1"/>
        <pt x="164" y="556" on="0"/>
        <pt x="34" y="632" on="0"/>
        <pt x="34" y="775" on="0"/>
        <pt x="200" y="888" on="0"/>
        <pt x="405" y="948" on="0"/>
        <pt x="481" y="948" on="1"/>
        <pt x="636" y="948" on="0"/>
        <pt x="701" y="882" on="1"/>
        <pt x="814" y="950" on="0"/>
        <pt x="938" y="950" on="1"/>
        <pt x="1098" y="950" on="0"/>
        <pt x="1274" y="745" on="0"/>
        <pt x="1274" y="580" on="1"/>
        <pt x="1274" y="510" on="0"/>
        <pt x="1253" y="401" on="1"/>
        <pt x="775" y="397" on="1"/>
        <pt x="781" y="300" on="0"/>
        <pt x="914" y="199" on="0"/>
        <pt x="1176" y="199" on="0"/>
        <pt x="1273" y="255" on="1"/>
        <pt x="1292" y="122" on="1"/>
        <pt x="1249" y="65" on="0"/>
        <pt x="1171" y="29" on="1"/>
        <pt x="1041" y="-31" on="0"/>
        <pt x="741" y="-31" on="0"/>
        <pt x="579" y="60" on="0"/>
        <pt x="523" y="141" on="1"/>
        <pt x="436" y="-23" on="0"/>
        <pt x="201" y="-23" on="1"/>
        <pt x="117" y="-23" on="0"/>
        <pt x="0" y="85" on="0"/>
      </contour>
    </TTGlyph>
    <TTGlyph name="agrave" xMin="0" yMin="-24" xMax="892" yMax="1452">
      <contour>
        <pt x="374" y="388" on="0"/>
        <pt x="296" y="318" on="0"/>
        <pt x="296" y="248" on="0"/>
        <pt x="339" y="205" on="0"/>
        <pt x="417" y="205" on="0"/>
        <pt x="458" y="234" on="1"/>
        <pt x="458" y="398" on="1"/>
      </contour>
      <contour>
        <pt x="0" y="188" on="1"/>
        <pt x="0" y="328" on="0"/>
        <pt x="245" y="513" on="0"/>
        <pt x="458" y="512" on="1"/>
        <pt x="458" y="607" on="1"/>
        <pt x="458" y="676" on="0"/>
        <pt x="384" y="770" on="0"/>
        <pt x="296" y="770" on="0"/>
        <pt x="259" y="675" on="0"/>
        <pt x="250" y="552" on="1"/>
        <pt x="88" y="552" on="0"/>
        <pt x="50" y="616" on="1"/>
        <pt x="34" y="642" on="0"/>
        <pt x="34" y="739" on="0"/>
        <pt x="176" y="865" on="0"/>
        <pt x="393" y="949" on="0"/>
        <pt x="616" y="949" on="0"/>
        <pt x="766" y="803" on="0"/>
        <pt x="766" y="641" on="1"/>
        <pt x="766" y="374" on="1"/>
        <pt x="766" y="285" on="0"/>
        <pt x="800" y="224" on="0"/>
        <pt x="864" y="210" on="1"/>
        <pt x="892" y="204" on="1"/>
        <pt x="867" y="34" on="1"/>
        <pt x="818" y="2" on="0"/>
        <pt x="793" y="-6" on="0"/>
        <pt x="768" y="-16" on="0"/>
        <pt x="751" y="-18" on="0"/>
        <pt x="738" y="-20" on="1"/>
        <pt x="720" y="-24" on="0"/>
        <pt x="662" y="-24" on="1"/>
        <pt x="550" y="-24" on="0"/>
        <pt x="499" y="106" on="1"/>
        <pt x="494" y="119" on="1"/>
        <pt x="481" y="125" on="1"/>
        <pt x="459" y="66" on="0"/>
        <pt x="301" y="-23" on="0"/>
        <pt x="117" y="-23" on="0"/>
        <pt x="0" y="82" on="0"/>
      </contour>
      <contour>
        <pt x="136" y="1412" on="1"/>
        <pt x="354" y="1452" on="1"/>
        <pt x="504" y="1104" on="1"/>
        <pt x="345" y="1073" on="1"/>
      </contour>
    </TTGlyph>
    <TTGlyph name="amacron" xMin="0" yMin="-24" xMax="892" yMax="1268">
      <contour>
        <pt x="374" y="388" on="0"/>
        <pt x="296" y="318" on="0"/>
        <pt x="296" y="248" on="0"/>
        <pt x="339" y="205" on="0"/>
        <pt x="417" y="205" on="0"/>
        <pt x="458" y="234" on="1"/>
        <pt x="458" y="398" on="1"/>
      </contour>
      <contour>
        <pt x="0" y="188" on="1"/>
        <pt x="0" y="328" on="0"/>
        <pt x="245" y="513" on="0"/>
        <pt x="458" y="512" on="1"/>
        <pt x="458" y="607" on="1"/>
        <pt x="458" y="676" on="0"/>
        <pt x="384" y="770" on="0"/>
        <pt x="296" y="770" on="0"/>
        <pt x="259" y="675" on="0"/>
        <pt x="250" y="552" on="1"/>
        <pt x="88" y="552" on="0"/>
        <pt x="50" y="616" on="1"/>
        <pt x="34" y="642" on="0"/>
        <pt x="34" y="739" on="0"/>
        <pt x="176" y="865" on="0"/>
        <pt x="393" y="949" on="0"/>
        <pt x="616" y="949" on="0"/>
        <pt x="766" y="803" on="0"/>
        <pt x="766" y="641" on="1"/>
        <pt x="766" y="374" on="1"/>
        <pt x="766" y="285" on="0"/>
        <pt x="800" y="224" on="0"/>
        <pt x="864" y="210" on="1"/>
        <pt x="892" y="204" on="1"/>
        <pt x="867" y="34" on="1"/>
        <pt x="818" y="2" on="0"/>
        <pt x="793" y="-6" on="0"/>
        <pt x="768" y="-16" on="0"/>
        <pt x="751" y="-18" on="0"/>
        <pt x="738" y="-20" on="1"/>
        <pt x="720" y="-24" on="0"/>
        <pt x="662" y="-24" on="1"/>
        <pt x="550" y="-24" on="0"/>
        <pt x="499" y="106" on="1"/>
        <pt x="494" y="119" on="1"/>
        <pt x="481" y="125" on="1"/>
        <pt x="459" y="66" on="0"/>
        <pt x="301" y="-23" on="0"/>
        <pt x="117" y="-23" on="0"/>
        <pt x="0" y="82" on="0"/>
      </contour>
      <contour>
        <pt x="244" y="1073" on="1"/>
        <pt x="265" y="1268" on="1"/>
        <pt x="718" y="1268" on="1"/>
        <pt x="696" y="1073" on="1"/>
      </contour>
    </TTGlyph>
    <TTGlyph name="ampersand" xMin="0" yMin="-29" xMax="1386" yMax="1273">
      <contour>
        <pt x="460" y="1029" on="1"/>
        <pt x="460" y="964" on="0"/>
        <pt x="574" y="846" on="1"/>
        <pt x="611" y="902" on="0"/>
        <pt x="611" y="1036" on="0"/>
        <pt x="560" y="1102" on="0"/>
        <pt x="499" y="1102" on="0"/>
        <pt x="460" y="1062" on="0"/>
      </contour>
      <contour>
        <pt x="413" y="550" on="1"/>
        <pt x="332" y="484" on="0"/>
        <pt x="332" y="314" on="0"/>
        <pt x="429" y="204" on="0"/>
        <pt x="578" y="204" on="0"/>
        <pt x="651" y="293" on="1"/>
        <pt x="422" y="546" on="1"/>
      </contour>
      <contour>
        <pt x="42" y="94" on="0"/>
        <pt x="0" y="206" on="0"/>
        <pt x="0" y="333" on="0"/>
        <pt x="23" y="424" on="0"/>
        <pt x="71" y="497" on="0"/>
        <pt x="121" y="553" on="0"/>
        <pt x="161" y="580" on="1"/>
        <pt x="226" y="622" on="0"/>
        <pt x="309" y="664" on="1"/>
        <pt x="252" y="716" on="0"/>
        <pt x="191" y="868" on="0"/>
        <pt x="191" y="1013" on="0"/>
        <pt x="260" y="1144" on="0"/>
        <pt x="316" y="1186" on="1"/>
        <pt x="436" y="1273" on="0"/>
        <pt x="696" y="1273" on="0"/>
        <pt x="857" y="1144" on="0"/>
        <pt x="857" y="919" on="0"/>
        <pt x="778" y="785" on="0"/>
        <pt x="702" y="731" on="1"/>
        <pt x="702" y="715" on="1"/>
        <pt x="848" y="563" on="1"/>
        <pt x="978" y="741" on="1"/>
        <pt x="897" y="780" on="1"/>
        <pt x="921" y="940" on="1"/>
        <pt x="1386" y="940" on="1"/>
        <pt x="1364" y="780" on="1"/>
        <pt x="1190" y="722" on="1"/>
        <pt x="977" y="429" on="1"/>
        <pt x="1189" y="208" on="0"/>
        <pt x="1289" y="162" on="1"/>
        <pt x="1335" y="141" on="1"/>
        <pt x="1305" y="6" on="1"/>
        <pt x="1283" y="-1" on="0"/>
        <pt x="1162" y="-18" on="0"/>
        <pt x="1124" y="-18" on="1"/>
        <pt x="939" y="-18" on="0"/>
        <pt x="811" y="120" on="1"/>
        <pt x="777" y="157" on="1"/>
        <pt x="703" y="68" on="0"/>
        <pt x="490" y="-29" on="0"/>
        <pt x="315" y="-29" on="0"/>
        <pt x="211" y="-14" on="0"/>
        <pt x="110" y="27" on="0"/>
      </contour>
    </TTGlyph>
    <TTGlyph name="ampersand.osf" xMin="-40" yMin="-18" xMax="1057" yMax="1026">
      <contour>
        <pt x="497" y="203" on="1"/>
        <pt x="309" y="400" on="1"/>
        <pt x="257" y="346" on="0"/>
        <pt x="257" y="234" on="0"/>
        <pt x="311" y="167" on="0"/>
        <pt x="434" y="167" on="0"/>
      </contour>
      <contour>
        <pt x="591" y="101" on="1"/>
        <pt x="434" y="-18" on="0"/>
        <pt x="120" y="-18" on="0"/>
        <pt x="-40" y="95" on="0"/>
        <pt x="-40" y="217" on="1"/>
        <pt x="-40" y="332" on="0"/>
        <pt x="38" y="402" on="1"/>
        <pt x="101" y="458" on="0"/>
        <pt x="204" y="510" on="1"/>
        <pt x="183" y="532" on="1"/>
        <pt x="88" y="633" on="0"/>
        <pt x="88" y="859" on="0"/>
        <pt x="276" y="1026" on="0"/>
        <pt x="520" y="1026" on="0"/>
        <pt x="681" y="903" on="0"/>
        <pt x="681" y="718" on="0"/>
        <pt x="597" y="596" on="0"/>
        <pt x="522" y="546" on="1"/>
        <pt x="678" y="385" on="1"/>
        <pt x="698" y="415" on="0"/>
        <pt x="718" y="452" on="1"/>
        <pt x="664" y="519" on="1"/>
        <pt x="689" y="656" on="1"/>
        <pt x="1057" y="656" on="1"/>
        <pt x="1035" y="519" on="1"/>
        <pt x="897" y="456" on="1"/>
        <pt x="836" y="361" on="0"/>
        <pt x="775" y="284" on="1"/>
        <pt x="794" y="264" on="1"/>
        <pt x="867" y="188" on="0"/>
        <pt x="1010" y="151" on="1"/>
        <pt x="1034" y="145" on="1"/>
        <pt x="1003" y="11" on="1"/>
        <pt x="921" y="-13" on="0"/>
        <pt x="838" y="-13" on="1"/>
        <pt x="712" y="-13" on="0"/>
      </contour>
      <contour>
        <pt x="422" y="650" on="1"/>
        <pt x="461" y="697" on="0"/>
        <pt x="461" y="829" on="0"/>
        <pt x="396" y="905" on="0"/>
        <pt x="350" y="905" on="0"/>
        <pt x="321" y="855" on="0"/>
        <pt x="321" y="819" on="1"/>
        <pt x="321" y="751" on="0"/>
      </contour>
    </TTGlyph>
    <TTGlyph name="aogonek" xMin="0" yMin="-359" xMax="965" yMax="949">
      <contour>
        <pt x="374" y="388" on="0"/>
        <pt x="296" y="318" on="0"/>
        <pt x="296" y="248" on="0"/>
        <pt x="339" y="205" on="0"/>
        <pt x="417" y="205" on="0"/>
        <pt x="458" y="234" on="1"/>
        <pt x="458" y="398" on="1"/>
      </contour>
      <contour>
        <pt x="0" y="188" on="1"/>
        <pt x="0" y="328" on="0"/>
        <pt x="245" y="513" on="0"/>
        <pt x="458" y="512" on="1"/>
        <pt x="458" y="607" on="1"/>
        <pt x="458" y="676" on="0"/>
        <pt x="384" y="770" on="0"/>
        <pt x="296" y="770" on="0"/>
        <pt x="259" y="675" on="0"/>
        <pt x="250" y="552" on="1"/>
        <pt x="88" y="552" on="0"/>
        <pt x="50" y="616" on="1"/>
        <pt x="34" y="642" on="0"/>
        <pt x="34" y="739" on="0"/>
        <pt x="176" y="865" on="0"/>
        <pt x="393" y="949" on="0"/>
        <pt x="616" y="949" on="0"/>
        <pt x="766" y="803" on="0"/>
        <pt x="766" y="641" on="1"/>
        <pt x="766" y="374" on="1"/>
        <pt x="766" y="285" on="0"/>
        <pt x="800" y="224" on="0"/>
        <pt x="864" y="210" on="1"/>
        <pt x="892" y="204" on="1"/>
        <pt x="868" y="39" on="1"/>
        <pt x="899" y="39" on="1"/>
        <pt x="830" y="-148" on="0"/>
        <pt x="965" y="-264" on="1"/>
        <pt x="940" y="-359" on="1"/>
        <pt x="809" y="-351" on="0"/>
        <pt x="624" y="-252" on="0"/>
        <pt x="624" y="-84" on="0"/>
        <pt x="693" y="-24" on="1"/>
        <pt x="681" y="-24" on="1"/>
        <pt x="604" y="-24" on="0"/>
        <pt x="564" y="8" on="1"/>
        <pt x="524" y="41" on="0"/>
        <pt x="494" y="119" on="1"/>
        <pt x="481" y="125" on="1"/>
        <pt x="459" y="66" on="0"/>
        <pt x="301" y="-23" on="0"/>
        <pt x="117" y="-23" on="0"/>
        <pt x="0" y="82" on="0"/>
      </contour>
    </TTGlyph>
    <TTGlyph name="approxequal" xMin="3" yMin="312" xMax="961" yMax="1087">
      <contour>
        <pt x="3" y="322" on="1"/>
        <pt x="-11" y="450" on="0"/>
        <pt x="32" y="552" on="1"/>
        <pt x="78" y="658" on="0"/>
        <pt x="196" y="684" on="1"/>
        <pt x="256" y="697" on="0"/>
        <pt x="339" y="676" on="1"/>
        <pt x="681" y="593" on="1"/>
        <pt x="729" y="583" on="0"/>
        <pt x="770" y="646" on="1"/>
        <pt x="779" y="661" on="0"/>
        <pt x="787" y="682" on="1"/>
        <pt x="961" y="664" on="1"/>
        <pt x="959" y="455" on="0"/>
        <pt x="770" y="288" on="0"/>
        <pt x="587" y="336" on="1"/>
        <pt x="272" y="418" on="1"/>
        <pt x="235" y="428" on="0"/>
        <pt x="190" y="375" on="0"/>
        <pt x="186" y="344" on="1"/>
        <pt x="181" y="312" on="1"/>
      </contour>
      <contour>
        <pt x="3" y="725" on="1"/>
        <pt x="-11" y="853" on="0"/>
        <pt x="32" y="956" on="1"/>
        <pt x="78" y="1061" on="0"/>
        <pt x="196" y="1087" on="1"/>
        <pt x="256" y="1100" on="0"/>
        <pt x="339" y="1079" on="1"/>
        <pt x="681" y="996" on="1"/>
        <pt x="729" y="986" on="0"/>
        <pt x="770" y="1049" on="1"/>
        <pt x="779" y="1064" on="0"/>
        <pt x="787" y="1085" on="1"/>
        <pt x="961" y="1067" on="1"/>
        <pt x="959" y="858" on="0"/>
        <pt x="770" y="691" on="0"/>
        <pt x="587" y="739" on="1"/>
        <pt x="272" y="821" on="1"/>
        <pt x="235" y="831" on="0"/>
        <pt x="190" y="778" on="0"/>
        <pt x="186" y="746" on="1"/>
        <pt x="181" y="715" on="1"/>
      </contour>
    </TTGlyph>
    <TTGlyph name="aring" xMin="0" yMin="-24" xMax="892" yMax="1412">
      <contour>
        <pt x="374" y="388" on="0"/>
        <pt x="296" y="318" on="0"/>
        <pt x="296" y="248" on="0"/>
        <pt x="339" y="205" on="0"/>
        <pt x="417" y="205" on="0"/>
        <pt x="458" y="234" on="1"/>
        <pt x="458" y="398" on="1"/>
      </contour>
      <contour>
        <pt x="0" y="188" on="1"/>
        <pt x="0" y="328" on="0"/>
        <pt x="245" y="513" on="0"/>
        <pt x="458" y="512" on="1"/>
        <pt x="458" y="607" on="1"/>
        <pt x="458" y="676" on="0"/>
        <pt x="384" y="770" on="0"/>
        <pt x="296" y="770" on="0"/>
        <pt x="259" y="675" on="0"/>
        <pt x="250" y="552" on="1"/>
        <pt x="88" y="552" on="0"/>
        <pt x="50" y="616" on="1"/>
        <pt x="34" y="642" on="0"/>
        <pt x="34" y="739" on="0"/>
        <pt x="176" y="865" on="0"/>
        <pt x="393" y="949" on="0"/>
        <pt x="616" y="949" on="0"/>
        <pt x="766" y="803" on="0"/>
        <pt x="766" y="641" on="1"/>
        <pt x="766" y="374" on="1"/>
        <pt x="766" y="285" on="0"/>
        <pt x="800" y="224" on="0"/>
        <pt x="864" y="210" on="1"/>
        <pt x="892" y="204" on="1"/>
        <pt x="867" y="34" on="1"/>
        <pt x="818" y="2" on="0"/>
        <pt x="793" y="-6" on="0"/>
        <pt x="768" y="-16" on="0"/>
        <pt x="751" y="-18" on="0"/>
        <pt x="738" y="-20" on="1"/>
        <pt x="720" y="-24" on="0"/>
        <pt x="662" y="-24" on="1"/>
        <pt x="550" y="-24" on="0"/>
        <pt x="499" y="106" on="1"/>
        <pt x="494" y="119" on="1"/>
        <pt x="481" y="125" on="1"/>
        <pt x="459" y="66" on="0"/>
        <pt x="301" y="-23" on="0"/>
        <pt x="117" y="-23" on="0"/>
        <pt x="0" y="82" on="0"/>
      </contour>
      <contour>
        <pt x="348" y="1240" on="1"/>
        <pt x="348" y="1183" on="0"/>
        <pt x="426" y="1183" on="1"/>
        <pt x="456" y="1183" on="0"/>
        <pt x="502" y="1213" on="0"/>
        <pt x="502" y="1267" on="0"/>
        <pt x="453" y="1299" on="0"/>
        <pt x="393" y="1299" on="0"/>
        <pt x="348" y="1265" on="0"/>
      </contour>
      <contour>
        <pt x="416" y="1073" on="1"/>
        <pt x="156" y="1073" on="0"/>
        <pt x="156" y="1239" on="1"/>
        <pt x="156" y="1315" on="0"/>
        <pt x="292" y="1412" on="0"/>
        <pt x="430" y="1412" on="1"/>
        <pt x="706" y="1412" on="0"/>
        <pt x="706" y="1248" on="1"/>
        <pt x="706" y="1175" on="0"/>
        <pt x="562" y="1073" on="0"/>
      </contour>
    </TTGlyph>
    <TTGlyph name="asciicircum" xMin="0" yMin="789" xMax="640" yMax="1250">
      <contour>
        <pt x="0" y="825" on="1"/>
        <pt x="241" y="1237" on="1"/>
        <pt x="385" y="1250" on="1"/>
        <pt x="640" y="823" on="1"/>
        <pt x="518" y="789" on="1"/>
        <pt x="302" y="963" on="1"/>
        <pt x="291" y="963" on="1"/>
        <pt x="114" y="796" on="1"/>
      </contour>
    </TTGlyph>
    <TTGlyph name="asciitilde" xMin="3" yMin="272" xMax="961" yMax="702">
      <contour>
        <pt x="3" y="282" on="1"/>
        <pt x="-12" y="413" on="0"/>
        <pt x="32" y="534" on="1"/>
        <pt x="79" y="661" on="0"/>
        <pt x="196" y="698" on="1"/>
        <pt x="256" y="717" on="0"/>
        <pt x="339" y="696" on="1"/>
        <pt x="681" y="613" on="1"/>
        <pt x="729" y="603" on="0"/>
        <pt x="770" y="666" on="1"/>
        <pt x="779" y="681" on="0"/>
        <pt x="787" y="702" on="1"/>
        <pt x="961" y="684" on="1"/>
        <pt x="959" y="388" on="0"/>
        <pt x="792" y="306" on="1"/>
        <pt x="706" y="265" on="0"/>
        <pt x="587" y="296" on="1"/>
        <pt x="272" y="378" on="1"/>
        <pt x="235" y="388" on="0"/>
        <pt x="190" y="335" on="0"/>
        <pt x="186" y="304" on="1"/>
        <pt x="181" y="272" on="1"/>
      </contour>
    </TTGlyph>
    <TTGlyph name="asterisk" xMin="0" yMin="548" xMax="740" yMax="1300">
      <contour>
        <pt x="0" y="913" on="1"/>
        <pt x="82" y="1088" on="1"/>
        <pt x="315" y="993" on="1"/>
        <pt x="260" y="1300" on="1"/>
        <pt x="449" y="1275" on="1"/>
        <pt x="423" y="1005" on="1"/>
        <pt x="703" y="1175" on="1"/>
        <pt x="740" y="989" on="1"/>
        <pt x="485" y="906" on="1"/>
        <pt x="727" y="714" on="1"/>
        <pt x="556" y="623" on="1"/>
        <pt x="411" y="824" on="1"/>
        <pt x="285" y="548" on="1"/>
        <pt x="146" y="686" on="1"/>
        <pt x="317" y="876" on="1"/>
      </contour>
    </TTGlyph>
    <TTGlyph name="at" xMin="0" yMin="-221" xMax="1448" yMax="1043">
      <contour>
        <pt x="621" y="395" on="1"/>
        <pt x="621" y="294" on="0"/>
        <pt x="674" y="294" on="1"/>
        <pt x="688" y="294" on="0"/>
        <pt x="729" y="306" on="1"/>
        <pt x="773" y="648" on="1"/>
        <pt x="771" y="647" on="0"/>
        <pt x="770" y="648" on="0"/>
        <pt x="765" y="652" on="0"/>
        <pt x="762" y="654" on="1"/>
        <pt x="756" y="659" on="0"/>
        <pt x="705" y="659" on="0"/>
        <pt x="654" y="592" on="0"/>
        <pt x="642" y="544" on="1"/>
        <pt x="621" y="453" on="0"/>
      </contour>
      <contour>
        <pt x="713" y="197" on="1"/>
        <pt x="636" y="86" on="0"/>
        <pt x="528" y="86" on="1"/>
        <pt x="449" y="86" on="0"/>
        <pt x="341" y="221" on="0"/>
        <pt x="341" y="423" on="0"/>
        <pt x="404" y="579" on="0"/>
        <pt x="526" y="713" on="0"/>
        <pt x="733" y="796" on="0"/>
        <pt x="946" y="796" on="0"/>
        <pt x="1025" y="778" on="1"/>
        <pt x="1041" y="761" on="1"/>
        <pt x="1001" y="395" on="1"/>
        <pt x="986" y="275" on="0"/>
        <pt x="1004" y="254" on="1"/>
        <pt x="1013" y="243" on="0"/>
        <pt x="1078" y="243" on="0"/>
        <pt x="1148" y="317" on="0"/>
        <pt x="1168" y="372" on="1"/>
        <pt x="1208" y="485" on="0"/>
        <pt x="1208" y="567" on="1"/>
        <pt x="1208" y="896" on="0"/>
        <pt x="811" y="894" on="1"/>
        <pt x="547" y="893" on="0"/>
        <pt x="248" y="599" on="0"/>
        <pt x="248" y="152" on="0"/>
        <pt x="507" y="-65" on="0"/>
        <pt x="783" y="-65" on="1"/>
        <pt x="902" y="-65" on="0"/>
        <pt x="1079" y="-29" on="0"/>
        <pt x="1144" y="26" on="1"/>
        <pt x="1189" y="-84" on="1"/>
        <pt x="1104" y="-149" on="0"/>
        <pt x="849" y="-221" on="0"/>
        <pt x="709" y="-221" on="1"/>
        <pt x="378" y="-221" on="0"/>
        <pt x="0" y="78" on="0"/>
        <pt x="0" y="326" on="1"/>
        <pt x="0" y="552" on="0"/>
        <pt x="155" y="734" on="1"/>
        <pt x="322" y="930" on="0"/>
        <pt x="583" y="1004" on="1"/>
        <pt x="724" y="1043" on="0"/>
        <pt x="968" y="1043" on="0"/>
        <pt x="1127" y="1015" on="0"/>
        <pt x="1275" y="950" on="0"/>
        <pt x="1329" y="902" on="1"/>
        <pt x="1448" y="798" on="0"/>
        <pt x="1448" y="477" on="0"/>
        <pt x="1305" y="223" on="0"/>
        <pt x="1066" y="72" on="0"/>
        <pt x="932" y="72" on="1"/>
        <pt x="857" y="72" on="0"/>
        <pt x="810" y="92" on="1"/>
        <pt x="722" y="127" on="0"/>
        <pt x="724" y="197" on="1"/>
      </contour>
    </TTGlyph>
    <TTGlyph name="atilde" xMin="0" yMin="-24" xMax="892" yMax="1329">
      <contour>
        <pt x="374" y="388" on="0"/>
        <pt x="296" y="318" on="0"/>
        <pt x="296" y="248" on="0"/>
        <pt x="339" y="205" on="0"/>
        <pt x="417" y="205" on="0"/>
        <pt x="458" y="234" on="1"/>
        <pt x="458" y="398" on="1"/>
      </contour>
      <contour>
        <pt x="0" y="188" on="1"/>
        <pt x="0" y="328" on="0"/>
        <pt x="245" y="513" on="0"/>
        <pt x="458" y="512" on="1"/>
        <pt x="458" y="607" on="1"/>
        <pt x="458" y="676" on="0"/>
        <pt x="384" y="770" on="0"/>
        <pt x="296" y="770" on="0"/>
        <pt x="259" y="675" on="0"/>
        <pt x="250" y="552" on="1"/>
        <pt x="88" y="552" on="0"/>
        <pt x="50" y="616" on="1"/>
        <pt x="34" y="642" on="0"/>
        <pt x="34" y="739" on="0"/>
        <pt x="176" y="865" on="0"/>
        <pt x="393" y="949" on="0"/>
        <pt x="616" y="949" on="0"/>
        <pt x="766" y="803" on="0"/>
        <pt x="766" y="641" on="1"/>
        <pt x="766" y="374" on="1"/>
        <pt x="766" y="285" on="0"/>
        <pt x="800" y="224" on="0"/>
        <pt x="864" y="210" on="1"/>
        <pt x="892" y="204" on="1"/>
        <pt x="867" y="34" on="1"/>
        <pt x="818" y="2" on="0"/>
        <pt x="793" y="-6" on="0"/>
        <pt x="768" y="-16" on="0"/>
        <pt x="751" y="-18" on="0"/>
        <pt x="738" y="-20" on="1"/>
        <pt x="720" y="-24" on="0"/>
        <pt x="662" y="-24" on="1"/>
        <pt x="550" y="-24" on="0"/>
        <pt x="499" y="106" on="1"/>
        <pt x="494" y="119" on="1"/>
        <pt x="481" y="125" on="1"/>
        <pt x="459" y="66" on="0"/>
        <pt x="301" y="-23" on="0"/>
        <pt x="117" y="-23" on="0"/>
        <pt x="0" y="82" on="0"/>
      </contour>
      <contour>
        <pt x="129" y="1079" on="1"/>
        <pt x="116" y="1178" on="0"/>
        <pt x="166" y="1262" on="1"/>
        <pt x="190" y="1302" on="0"/>
        <pt x="287" y="1339" on="0"/>
        <pt x="352" y="1325" on="1"/>
        <pt x="579" y="1276" on="1"/>
        <pt x="599" y="1272" on="0"/>
        <pt x="634" y="1298" on="0"/>
        <pt x="649" y="1329" on="1"/>
        <pt x="764" y="1318" on="1"/>
        <pt x="763" y="1190" on="0"/>
        <pt x="634" y="1059" on="0"/>
        <pt x="516" y="1087" on="1"/>
        <pt x="307" y="1136" on="1"/>
        <pt x="283" y="1142" on="0"/>
        <pt x="253" y="1110" on="0"/>
        <pt x="247" y="1073" on="1"/>
      </contour>
    </TTGlyph>
    <TTGlyph name="b" xMin="0" yMin="-23" xMax="1078" yMax="1277">
      <contour>
        <pt x="461" y="259" on="1"/>
        <pt x="524" y="202" on="0"/>
        <pt x="647" y="202" on="0"/>
        <pt x="729" y="339" on="0"/>
        <pt x="729" y="528" on="0"/>
        <pt x="668" y="645" on="0"/>
        <pt x="545" y="645" on="0"/>
        <pt x="461" y="578" on="1"/>
      </contour>
      <contour>
        <pt x="0" y="1086" on="1"/>
        <pt x="28" y="1251" on="1"/>
        <pt x="404" y="1277" on="1"/>
        <pt x="461" y="1223" on="1"/>
        <pt x="461" y="878" on="1"/>
        <pt x="446" y="777" on="1"/>
        <pt x="461" y="771" on="1"/>
        <pt x="534" y="852" on="0"/>
        <pt x="649" y="930" on="0"/>
        <pt x="725" y="930" on="1"/>
        <pt x="886" y="930" on="0"/>
        <pt x="1078" y="690" on="0"/>
        <pt x="1078" y="343" on="0"/>
        <pt x="919" y="102" on="0"/>
        <pt x="667" y="-23" on="0"/>
        <pt x="522" y="-23" on="1"/>
        <pt x="439" y="-23" on="0"/>
        <pt x="210" y="15" on="0"/>
        <pt x="145" y="51" on="1"/>
        <pt x="145" y="986" on="1"/>
      </contour>
    </TTGlyph>
    <TTGlyph name="backslash" xMin="0" yMin="-410" xMax="696" yMax="1333">
      <contour>
        <pt x="0" y="1333" on="1"/>
        <pt x="235" y="1316" on="1"/>
        <pt x="696" y="-410" on="1"/>
        <pt x="469" y="-397" on="1"/>
      </contour>
    </TTGlyph>
    <TTGlyph name="bar" xMin="0" yMin="-379" xMax="196" yMax="1260">
      <contour>
        <pt x="0" y="-363" on="1"/>
        <pt x="0" y="1260" on="1"/>
        <pt x="196" y="1248" on="1"/>
        <pt x="196" y="-379" on="1"/>
      </contour>
    </TTGlyph>
    <TTGlyph name="braceleft" xMin="0" yMin="-379" xMax="677" yMax="1255">
      <contour>
        <pt x="677" y="-379" on="1"/>
        <pt x="432" y="-379" on="1"/>
        <pt x="348" y="-379" on="0"/>
        <pt x="243" y="-307" on="0"/>
        <pt x="203" y="-189" on="0"/>
        <pt x="189" y="-45" on="0"/>
        <pt x="186" y="103" on="0"/>
        <pt x="178" y="166" on="1"/>
        <pt x="161" y="312" on="0"/>
        <pt x="61" y="333" on="1"/>
        <pt x="0" y="346" on="1"/>
        <pt x="0" y="545" on="1"/>
        <pt x="58" y="557" on="1"/>
        <pt x="155" y="577" on="0"/>
        <pt x="175" y="690" on="1"/>
        <pt x="194" y="797" on="0"/>
        <pt x="194" y="990" on="0"/>
        <pt x="217" y="1108" on="0"/>
        <pt x="238" y="1154" on="1"/>
        <pt x="284" y="1255" on="0"/>
        <pt x="430" y="1255" on="1"/>
        <pt x="670" y="1255" on="1"/>
        <pt x="664" y="1052" on="1"/>
        <pt x="531" y="1049" on="1"/>
        <pt x="498" y="1048" on="0"/>
        <pt x="479" y="935" on="0"/>
        <pt x="482" y="770" on="0"/>
        <pt x="475" y="601" on="0"/>
        <pt x="411" y="471" on="0"/>
        <pt x="346" y="459" on="1"/>
        <pt x="346" y="446" on="1"/>
        <pt x="401" y="410" on="0"/>
        <pt x="462" y="286" on="0"/>
        <pt x="473" y="153" on="0"/>
        <pt x="476" y="13" on="0"/>
        <pt x="475" y="-42" on="1"/>
        <pt x="473" y="-167" on="0"/>
        <pt x="541" y="-169" on="1"/>
        <pt x="665" y="-173" on="1"/>
      </contour>
    </TTGlyph>
    <TTGlyph name="braceright" xMin="0" yMin="-379" xMax="677" yMax="1255">
      <contour>
        <pt x="0" y="-379" on="1"/>
        <pt x="12" y="-173" on="1"/>
        <pt x="136" y="-169" on="1"/>
        <pt x="204" y="-167" on="0"/>
        <pt x="202" y="-42" on="1"/>
        <pt x="199" y="98" on="0"/>
        <pt x="207" y="192" on="1"/>
        <pt x="222" y="375" on="0"/>
        <pt x="331" y="446" on="1"/>
        <pt x="331" y="459" on="1"/>
        <pt x="266" y="471" on="0"/>
        <pt x="202" y="601" on="0"/>
        <pt x="195" y="770" on="0"/>
        <pt x="198" y="935" on="0"/>
        <pt x="179" y="1048" on="0"/>
        <pt x="146" y="1049" on="1"/>
        <pt x="13" y="1052" on="1"/>
        <pt x="7" y="1255" on="1"/>
        <pt x="247" y="1255" on="1"/>
        <pt x="393" y="1255" on="0"/>
        <pt x="439" y="1154" on="1"/>
        <pt x="483" y="1058" on="0"/>
        <pt x="483" y="865" on="0"/>
        <pt x="493" y="741" on="0"/>
        <pt x="502" y="690" on="1"/>
        <pt x="522" y="577" on="0"/>
        <pt x="619" y="557" on="1"/>
        <pt x="677" y="545" on="1"/>
        <pt x="677" y="346" on="1"/>
        <pt x="616" y="333" on="1"/>
        <pt x="516" y="312" on="0"/>
        <pt x="498" y="166" on="1"/>
        <pt x="491" y="103" on="0"/>
        <pt x="488" y="-45" on="0"/>
        <pt x="474" y="-189" on="0"/>
        <pt x="434" y="-307" on="0"/>
        <pt x="329" y="-379" on="0"/>
        <pt x="245" y="-379" on="1"/>
      </contour>
    </TTGlyph>
    <TTGlyph name="bracketleft" xMin="0" yMin="-378" xMax="477" yMax="1255">
      <contour>
        <pt x="477" y="-214" on="1"/>
        <pt x="449" y="-378" on="1"/>
        <pt x="0" y="-378" on="1"/>
        <pt x="4" y="1255" on="1"/>
        <pt x="440" y="1255" on="1"/>
        <pt x="470" y="1094" on="1"/>
        <pt x="231" y="1075" on="1"/>
        <pt x="231" y="-193" on="1"/>
      </contour>
    </TTGlyph>
    <TTGlyph name="bracketright" xMin="0" yMin="-378" xMax="477" yMax="1255">
      <contour>
        <pt x="0" y="-214" on="1"/>
        <pt x="246" y="-193" on="1"/>
        <pt x="246" y="1075" on="1"/>
        <pt x="7" y="1094" on="1"/>
        <pt x="37" y="1255" on="1"/>
        <pt x="473" y="1255" on="1"/>
        <pt x="477" y="-378" on="1"/>
        <pt x="28" y="-378" on="1"/>
      </contour>
    </TTGlyph>
    <TTGlyph name="breve" xMin="-40" yMin="1371" xMax="474" yMax="1615">
      <contour>
        <pt x="-40" y="1579" on="1"/>
        <pt x="139" y="1615" on="1"/>
        <pt x="144" y="1589" on="0"/>
        <pt x="182" y="1548" on="0"/>
        <pt x="244" y="1548" on="0"/>
        <pt x="279" y="1571" on="0"/>
        <pt x="292" y="1594" on="0"/>
        <pt x="301" y="1615" on="1"/>
        <pt x="474" y="1574" on="1"/>
        <pt x="457" y="1484" on="0"/>
        <pt x="320" y="1371" on="0"/>
        <pt x="219" y="1371" on="1"/>
        <pt x="12" y="1371" on="0"/>
      </contour>
    </TTGlyph>
    <TTGlyph name="brokenbar" xMin="0" yMin="-379" xMax="219" yMax="1274">
      <contour>
        <pt x="0" y="528" on="1"/>
        <pt x="0" y="1274" on="1"/>
        <pt x="216" y="1248" on="1"/>
        <pt x="218" y="505" on="1"/>
      </contour>
      <contour>
        <pt x="0" y="-351" on="1"/>
        <pt x="0" y="415" on="1"/>
        <pt x="219" y="387" on="1"/>
        <pt x="219" y="-379" on="1"/>
      </contour>
    </TTGlyph>
    <TTGlyph name="bullet" xMin="-9" yMin="541" xMax="435" yMax="890">
      <contour>
        <pt x="-9" y="715" on="1"/>
        <pt x="-9" y="779" on="0"/>
        <pt x="25" y="818" on="1"/>
        <pt x="88" y="890" on="0"/>
        <pt x="209" y="890" on="1"/>
        <pt x="382" y="890" on="0"/>
        <pt x="424" y="776" on="1"/>
        <pt x="435" y="748" on="0"/>
        <pt x="435" y="718" on="1"/>
        <pt x="435" y="541" on="0"/>
        <pt x="-9" y="541" on="0"/>
      </contour>
    </TTGlyph>
    <TTGlyph name="c" xMin="0" yMin="-31" xMax="857" yMax="967">
      <contour>
        <pt x="0" y="426" on="1"/>
        <pt x="0" y="718" on="0"/>
        <pt x="244" y="878" on="1"/>
        <pt x="380" y="967" on="0"/>
        <pt x="663" y="967" on="0"/>
        <pt x="823" y="829" on="0"/>
        <pt x="823" y="643" on="0"/>
        <pt x="711" y="560" on="0"/>
        <pt x="621" y="550" on="1"/>
        <pt x="579" y="681" on="0"/>
        <pt x="505" y="776" on="0"/>
        <pt x="449" y="776" on="1"/>
        <pt x="333" y="776" on="0"/>
        <pt x="333" y="515" on="1"/>
        <pt x="333" y="389" on="0"/>
        <pt x="462" y="200" on="0"/>
        <pt x="573" y="200" on="1"/>
        <pt x="650" y="200" on="0"/>
        <pt x="753" y="233" on="0"/>
        <pt x="817" y="271" on="1"/>
        <pt x="857" y="167" on="1"/>
        <pt x="818" y="84" on="0"/>
        <pt x="607" y="-31" on="0"/>
        <pt x="482" y="-31" on="1"/>
        <pt x="0" y="-31" on="0"/>
      </contour>
    </TTGlyph>
    <TTGlyph name="cacute" xMin="0" yMin="-31" xMax="857" yMax="1425">
      <contour>
        <pt x="0" y="426" on="1"/>
        <pt x="0" y="718" on="0"/>
        <pt x="244" y="878" on="1"/>
        <pt x="380" y="967" on="0"/>
        <pt x="663" y="967" on="0"/>
        <pt x="823" y="829" on="0"/>
        <pt x="823" y="643" on="0"/>
        <pt x="711" y="560" on="0"/>
        <pt x="621" y="550" on="1"/>
        <pt x="579" y="681" on="0"/>
        <pt x="505" y="776" on="0"/>
        <pt x="449" y="776" on="1"/>
        <pt x="333" y="776" on="0"/>
        <pt x="333" y="515" on="1"/>
        <pt x="333" y="389" on="0"/>
        <pt x="462" y="200" on="0"/>
        <pt x="573" y="200" on="1"/>
        <pt x="650" y="200" on="0"/>
        <pt x="753" y="233" on="0"/>
        <pt x="817" y="271" on="1"/>
        <pt x="857" y="167" on="1"/>
        <pt x="818" y="84" on="0"/>
        <pt x="607" y="-31" on="0"/>
        <pt x="482" y="-31" on="1"/>
        <pt x="0" y="-31" on="0"/>
      </contour>
      <contour>
        <pt x="400" y="1100" on="1"/>
        <pt x="555" y="1425" on="1"/>
        <pt x="775" y="1411" on="1"/>
        <pt x="544" y="1079" on="1"/>
      </contour>
    </TTGlyph>
    <TTGlyph name="caron" xMin="-21" yMin="1358" xMax="555" yMax="1601">
      <contour>
        <pt x="-21" y="1564" on="1"/>
        <pt x="164" y="1601" on="1"/>
        <pt x="277" y="1516" on="1"/>
        <pt x="287" y="1516" on="1"/>
        <pt x="383" y="1598" on="1"/>
        <pt x="555" y="1569" on="1"/>
        <pt x="345" y="1368" on="1"/>
        <pt x="187" y="1358" on="1"/>
      </contour>
    </TTGlyph>
</ttFont>
